<ttFont>
    <TTGlyph name=".notdef" xMin="49" yMin="0" xMax="883" yMax="1305">
      <contour>
        <pt x="883" y="0" on="1"/>
        <pt x="49" y="0" on="1"/>
        <pt x="49" y="1305" on="1"/>
        <pt x="883" y="1305" on="1"/>
      </contour>
      <contour>
        <pt x="186" y="117" on="1"/>
        <pt x="745" y="117" on="1"/>
        <pt x="745" y="1188" on="1"/>
        <pt x="186" y="1188" on="1"/>
      </contour>
    </TTGlyph>
    <TTGlyph name="A" xMin="-59" yMin="0" xMax="995" yMax="1305">
      <contour>
        <pt x="995" y="0" on="1"/>
        <pt x="848" y="0" on="1"/>
        <pt x="725" y="373" on="1"/>
        <pt x="209" y="373" on="1"/>
        <pt x="88" y="0" on="1"/>
        <pt x="-59" y="0" on="1"/>
        <pt x="375" y="1305" on="1"/>
        <pt x="561" y="1305" on="1"/>
      </contour>
      <contour>
        <pt x="686" y="494" on="1"/>
        <pt x="467" y="1167" on="1"/>
        <pt x="248" y="494" on="1"/>
      </contour>
    </TTGlyph>
    <TTGlyph name="AE" xMin="-63" yMin="0" xMax="932" yMax="1305">
      <contour>
        <pt x="932" y="0" on="1"/>
        <pt x="426" y="0" on="1"/>
        <pt x="426" y="373" on="1"/>
        <pt x="193" y="373" on="1"/>
        <pt x="82" y="0" on="1"/>
        <pt x="-63" y="0" on="1"/>
        <pt x="332" y="1305" on="1"/>
        <pt x="932" y="1305" on="1"/>
        <pt x="932" y="1184" on="1"/>
        <pt x="565" y="1184" on="1"/>
        <pt x="565" y="727" on="1"/>
        <pt x="842" y="727" on="1"/>
        <pt x="842" y="606" on="1"/>
        <pt x="565" y="606" on="1"/>
        <pt x="565" y="123" on="1"/>
        <pt x="932" y="123" on="1"/>
      </contour>
      <contour>
        <pt x="426" y="494" on="1"/>
        <pt x="426" y="1153" on="1"/>
        <pt x="229" y="494" on="1"/>
      </contour>
    </TTGlyph>
    <TTGlyph name="AEacute" xMin="-63" yMin="0" xMax="932" yMax="1739">
      <component glyphName="AE" x="0" y="0" flags="0x204"/>
      <component glyphName="acute" x="0" y="375" flags="0x4"/>
    </TTGlyph>
    <TTGlyph name="Aacute" xMin="-59" yMin="0" xMax="995" yMax="1735">
      <component glyphName="A" x="0" y="0" flags="0x204"/>
      <component glyphName="acute" x="0" y="371" flags="0x4"/>
    </TTGlyph>
    <TTGlyph name="Abreve" xMin="-59" yMin="0" xMax="995" yMax="1657">
      <component glyphName="A" x="0" y="0" flags="0x204"/>
      <component glyphName="breve" x="0" y="371" flags="0x4"/>
    </TTGlyph>
    <TTGlyph name="Acircumflex" xMin="-59" yMin="0" xMax="995" yMax="1739">
      <component glyphName="A" x="0" y="0" flags="0x204"/>
      <component glyphName="circumflex" x="0" y="371" flags="0x4"/>
    </TTGlyph>
    <TTGlyph name="Adieresis" xMin="-59" yMin="0" xMax="995" yMax="1676">
      <component glyphName="A" x="0" y="0" flags="0x204"/>
      <component glyphName="dieresis" x="0" y="371" flags="0x4"/>
    </TTGlyph>
    <TTGlyph name="Agrave" xMin="-59" yMin="0" xMax="995" yMax="1737">
      <component glyphName="A" x="0" y="0" flags="0x204"/>
      <component glyphName="grave" x="0" y="373" flags="0x4"/>
    </TTGlyph>
    <TTGlyph name="Alpha" xMin="-59" yMin="0" xMax="995" yMax="1305">
      <contour>
        <pt x="995" y="0" on="1"/>
        <pt x="848" y="0" on="1"/>
        <pt x="725" y="373" on="1"/>
        <pt x="209" y="373" on="1"/>
        <pt x="88" y="0" on="1"/>
        <pt x="-59" y="0" on="1"/>
        <pt x="375" y="1305" on="1"/>
        <pt x="561" y="1305" on="1"/>
      </contour>
      <contour>
        <pt x="686" y="494" on="1"/>
        <pt x="467" y="1167" on="1"/>
        <pt x="248" y="494" on="1"/>
      </contour>
    </TTGlyph>
    <TTGlyph name="Alphatonos" xMin="-59" yMin="0" xMax="995" yMax="1583">
      <component glyphName="Alpha" x="0" y="0" flags="0x200"/>
      <component glyphName="tonos" x="-372" y="0" flags="0x0"/>
    </TTGlyph>
    <TTGlyph name="Amacron" xMin="-59" yMin="0" xMax="995" yMax="1590">
      <component glyphName="A" x="0" y="0" flags="0x204"/>
      <component glyphName="macron" x="0" y="371" flags="0x4"/>
    </TTGlyph>
    <TTGlyph name="Aogonek" xMin="-59" yMin="-379" xMax="1135" yMax="1305">
      <contour>
        <pt x="1135" y="-379" on="1"/>
        <pt x="1010" y="-379" on="0"/>
        <pt x="866" y="-254" on="0"/>
        <pt x="866" y="-152" on="1"/>
        <pt x="866" y="-104" on="0"/>
        <pt x="897" y="-29" on="0"/>
        <pt x="920" y="0" on="1"/>
        <pt x="848" y="0" on="1"/>
        <pt x="725" y="373" on="1"/>
        <pt x="209" y="373" on="1"/>
        <pt x="88" y="0" on="1"/>
        <pt x="-59" y="0" on="1"/>
        <pt x="375" y="1305" on="1"/>
        <pt x="561" y="1305" on="1"/>
        <pt x="995" y="0" on="1"/>
        <pt x="946" y="-45" on="0"/>
        <pt x="946" y="-121" on="1"/>
        <pt x="946" y="-193" on="0"/>
        <pt x="1055" y="-289" on="0"/>
        <pt x="1135" y="-289" on="1"/>
      </contour>
      <contour>
        <pt x="686" y="494" on="1"/>
        <pt x="467" y="1167" on="1"/>
        <pt x="248" y="494" on="1"/>
      </contour>
    </TTGlyph>
    <TTGlyph name="Aring" xMin="-59" yMin="0" xMax="995" yMax="1675">
      <contour>
        <pt x="242" y="1450" on="1"/>
        <pt x="242" y="1497" on="0"/>
        <pt x="276" y="1579" on="0"/>
        <pt x="338" y="1640" on="0"/>
        <pt x="420" y="1675" on="0"/>
        <pt x="467" y="1675" on="1"/>
        <pt x="514" y="1675" on="0"/>
        <pt x="596" y="1640" on="0"/>
        <pt x="657" y="1579" on="0"/>
        <pt x="692" y="1497" on="0"/>
        <pt x="692" y="1450" on="1"/>
        <pt x="692" y="1384" on="0"/>
        <pt x="629" y="1282" on="0"/>
        <pt x="578" y="1253" on="1"/>
        <pt x="995" y="0" on="1"/>
        <pt x="848" y="0" on="1"/>
        <pt x="725" y="373" on="1"/>
        <pt x="209" y="373" on="1"/>
        <pt x="88" y="0" on="1"/>
        <pt x="-59" y="0" on="1"/>
        <pt x="356" y="1251" on="1"/>
        <pt x="305" y="1280" on="0"/>
        <pt x="242" y="1384" on="0"/>
      </contour>
      <contour>
        <pt x="686" y="494" on="1"/>
        <pt x="467" y="1167" on="1"/>
        <pt x="248" y="494" on="1"/>
      </contour>
      <contour>
        <pt x="332" y="1450" on="1"/>
        <pt x="332" y="1395" on="0"/>
        <pt x="412" y="1315" on="0"/>
        <pt x="467" y="1315" on="1"/>
        <pt x="522" y="1315" on="0"/>
        <pt x="602" y="1395" on="0"/>
        <pt x="602" y="1450" on="1"/>
        <pt x="602" y="1505" on="0"/>
        <pt x="522" y="1585" on="0"/>
        <pt x="467" y="1585" on="1"/>
        <pt x="412" y="1585" on="0"/>
        <pt x="332" y="1505" on="0"/>
      </contour>
    </TTGlyph>
    <TTGlyph name="Atilde" xMin="-59" yMin="0" xMax="995" yMax="1651">
      <component glyphName="A" x="0" y="0" flags="0x204"/>
      <component glyphName="tilde" x="0" y="371" flags="0x4"/>
    </TTGlyph>
    <TTGlyph name="B" xMin="49" yMin="0" xMax="930" yMax="1305">
      <contour>
        <pt x="930" y="373" on="1"/>
        <pt x="930" y="186" on="0"/>
        <pt x="688" y="0" on="0"/>
        <pt x="465" y="0" on="1"/>
        <pt x="49" y="0" on="1"/>
        <pt x="49" y="1305" on="1"/>
        <pt x="442" y="1305" on="1"/>
        <pt x="524" y="1305" on="0"/>
        <pt x="682" y="1278" on="0"/>
        <pt x="807" y="1204" on="0"/>
        <pt x="885" y="1073" on="0"/>
        <pt x="885" y="967" on="1"/>
        <pt x="885" y="764" on="0"/>
        <pt x="682" y="690" on="1"/>
        <pt x="930" y="614" on="0"/>
      </contour>
      <contour>
        <pt x="748" y="967" on="1"/>
        <pt x="748" y="1036" on="0"/>
        <pt x="690" y="1124" on="0"/>
        <pt x="600" y="1171" on="0"/>
        <pt x="492" y="1188" on="0"/>
        <pt x="442" y="1188" on="1"/>
        <pt x="186" y="1188" on="1"/>
        <pt x="186" y="745" on="1"/>
        <pt x="442" y="745" on="1"/>
        <pt x="498" y="745" on="0"/>
        <pt x="606" y="762" on="0"/>
        <pt x="692" y="811" on="0"/>
        <pt x="748" y="897" on="0"/>
      </contour>
      <contour>
        <pt x="793" y="373" on="1"/>
        <pt x="793" y="508" on="0"/>
        <pt x="618" y="631" on="0"/>
        <pt x="465" y="631" on="1"/>
        <pt x="186" y="631" on="1"/>
        <pt x="186" y="117" on="1"/>
        <pt x="465" y="117" on="1"/>
        <pt x="618" y="117" on="0"/>
        <pt x="793" y="246" on="0"/>
      </contour>
    </TTGlyph>
    <TTGlyph name="Beta" xMin="49" yMin="0" xMax="930" yMax="1305">
      <contour>
        <pt x="930" y="373" on="1"/>
        <pt x="930" y="186" on="0"/>
        <pt x="688" y="0" on="0"/>
        <pt x="465" y="0" on="1"/>
        <pt x="49" y="0" on="1"/>
        <pt x="49" y="1305" on="1"/>
        <pt x="442" y="1305" on="1"/>
        <pt x="524" y="1305" on="0"/>
        <pt x="682" y="1278" on="0"/>
        <pt x="807" y="1204" on="0"/>
        <pt x="885" y="1073" on="0"/>
        <pt x="885" y="967" on="1"/>
        <pt x="885" y="764" on="0"/>
        <pt x="682" y="690" on="1"/>
        <pt x="930" y="614" on="0"/>
      </contour>
      <contour>
        <pt x="748" y="967" on="1"/>
        <pt x="748" y="1036" on="0"/>
        <pt x="690" y="1124" on="0"/>
        <pt x="600" y="1171" on="0"/>
        <pt x="492" y="1188" on="0"/>
        <pt x="442" y="1188" on="1"/>
        <pt x="186" y="1188" on="1"/>
        <pt x="186" y="745" on="1"/>
        <pt x="442" y="745" on="1"/>
        <pt x="498" y="745" on="0"/>
        <pt x="606" y="762" on="0"/>
        <pt x="692" y="811" on="0"/>
        <pt x="748" y="897" on="0"/>
      </contour>
      <contour>
        <pt x="793" y="373" on="1"/>
        <pt x="793" y="508" on="0"/>
        <pt x="618" y="631" on="0"/>
        <pt x="465" y="631" on="1"/>
        <pt x="186" y="631" on="1"/>
        <pt x="186" y="117" on="1"/>
        <pt x="465" y="117" on="1"/>
        <pt x="618" y="117" on="0"/>
        <pt x="793" y="246" on="0"/>
      </contour>
    </TTGlyph>
    <TTGlyph name="C" xMin="-20" yMin="-23" xMax="940" yMax="1327">
      <contour>
        <pt x="940" y="342" on="1"/>
        <pt x="889" y="174" on="0"/>
        <pt x="657" y="-23" on="0"/>
        <pt x="481" y="-23" on="1"/>
        <pt x="344" y="-23" on="0"/>
        <pt x="154" y="90" on="0"/>
        <pt x="33" y="276" on="0"/>
        <pt x="-20" y="520" on="0"/>
        <pt x="-20" y="651" on="1"/>
        <pt x="-20" y="782" on="0"/>
        <pt x="33" y="1026" on="0"/>
        <pt x="154" y="1214" on="0"/>
        <pt x="344" y="1327" on="0"/>
        <pt x="481" y="1327" on="1"/>
        <pt x="602" y="1327" on="0"/>
        <pt x="774" y="1241" on="0"/>
        <pt x="815" y="1153" on="1"/>
        <pt x="815" y="1305" on="1"/>
        <pt x="932" y="1305" on="1"/>
        <pt x="932" y="877" on="1"/>
        <pt x="815" y="877" on="1"/>
        <pt x="815" y="946" on="0"/>
        <pt x="762" y="1069" on="0"/>
        <pt x="672" y="1159" on="0"/>
        <pt x="549" y="1210" on="0"/>
        <pt x="481" y="1210" on="1"/>
        <pt x="375" y="1210" on="0"/>
        <pt x="236" y="1110" on="0"/>
        <pt x="152" y="948" on="0"/>
        <pt x="117" y="750" on="0"/>
        <pt x="117" y="651" on="1"/>
        <pt x="117" y="553" on="0"/>
        <pt x="152" y="354" on="0"/>
        <pt x="236" y="195" on="0"/>
        <pt x="375" y="94" on="0"/>
        <pt x="481" y="94" on="1"/>
        <pt x="725" y="94" on="0"/>
        <pt x="821" y="389" on="1"/>
      </contour>
    </TTGlyph>
    <TTGlyph name="Cacute" xMin="-20" yMin="-23" xMax="940" yMax="1735">
      <component glyphName="C" x="0" y="0" flags="0x204"/>
      <component glyphName="acute" x="0" y="371" flags="0x4"/>
    </TTGlyph>
    <TTGlyph name="Ccaron" xMin="-20" yMin="-23" xMax="940" yMax="1739">
      <component glyphName="C" x="0" y="0" flags="0x204"/>
      <component glyphName="caron" x="0" y="371" flags="0x4"/>
    </TTGlyph>
    <TTGlyph name="Ccedilla" xMin="-20" yMin="-371" xMax="940" yMax="1327">
      <contour>
        <pt x="940" y="342" on="1"/>
        <pt x="895" y="193" on="0"/>
        <pt x="702" y="4" on="0"/>
        <pt x="559" y="-16" on="1"/>
        <pt x="559" y="-41" on="1"/>
        <pt x="559" y="-188" on="0"/>
        <pt x="477" y="-276" on="1"/>
        <pt x="389" y="-371" on="0"/>
        <pt x="242" y="-371" on="1"/>
        <pt x="242" y="-254" on="1"/>
        <pt x="444" y="-254" on="0"/>
        <pt x="444" y="-41" on="1"/>
        <pt x="444" y="-20" on="1"/>
        <pt x="317" y="-12" on="0"/>
        <pt x="139" y="104" on="0"/>
        <pt x="29" y="289" on="0"/>
        <pt x="-20" y="524" on="0"/>
        <pt x="-20" y="651" on="1"/>
        <pt x="-20" y="782" on="0"/>
        <pt x="33" y="1026" on="0"/>
        <pt x="154" y="1214" on="0"/>
        <pt x="344" y="1327" on="0"/>
        <pt x="481" y="1327" on="1"/>
        <pt x="602" y="1327" on="0"/>
        <pt x="774" y="1241" on="0"/>
        <pt x="815" y="1153" on="1"/>
        <pt x="815" y="1305" on="1"/>
        <pt x="932" y="1305" on="1"/>
        <pt x="932" y="877" on="1"/>
        <pt x="815" y="877" on="1"/>
        <pt x="815" y="946" on="0"/>
        <pt x="762" y="1069" on="0"/>
        <pt x="672" y="1159" on="0"/>
        <pt x="549" y="1210" on="0"/>
        <pt x="481" y="1210" on="1"/>
        <pt x="375" y="1210" on="0"/>
        <pt x="236" y="1110" on="0"/>
        <pt x="152" y="948" on="0"/>
        <pt x="117" y="750" on="0"/>
        <pt x="117" y="651" on="1"/>
        <pt x="117" y="553" on="0"/>
        <pt x="152" y="354" on="0"/>
        <pt x="236" y="195" on="0"/>
        <pt x="375" y="94" on="0"/>
        <pt x="481" y="94" on="1"/>
        <pt x="725" y="94" on="0"/>
        <pt x="821" y="389" on="1"/>
      </contour>
    </TTGlyph>
    <TTGlyph name="Ccircumflex" xMin="-20" yMin="-23" xMax="940" yMax="1739">
      <component glyphName="C" x="0" y="0" flags="0x204"/>
      <component glyphName="circumflex" x="0" y="371" flags="0x4"/>
    </TTGlyph>
    <TTGlyph name="Cdotaccent" xMin="-20" yMin="-23" xMax="940" yMax="1676">
      <component glyphName="C" x="0" y="0" flags="0x204"/>
      <component glyphName="dotaccent" x="0" y="371" flags="0x4"/>
    </TTGlyph>
    <TTGlyph name="Chi" xMin="-23" yMin="0" xMax="954" yMax="1305">
      <contour>
        <pt x="954" y="0" on="1"/>
        <pt x="584" y="0" on="1"/>
        <pt x="584" y="117" on="1"/>
        <pt x="672" y="117" on="1"/>
        <pt x="467" y="545" on="1"/>
        <pt x="260" y="117" on="1"/>
        <pt x="348" y="117" on="1"/>
        <pt x="348" y="0" on="1"/>
        <pt x="-23" y="0" on="1"/>
        <pt x="-23" y="117" on="1"/>
        <pt x="104" y="117" on="1"/>
        <pt x="387" y="657" on="1"/>
        <pt x="109" y="1188" on="1"/>
        <pt x="0" y="1188" on="1"/>
        <pt x="0" y="1305" on="1"/>
        <pt x="373" y="1305" on="1"/>
        <pt x="373" y="1188" on="1"/>
        <pt x="264" y="1188" on="1"/>
        <pt x="467" y="770" on="1"/>
        <pt x="664" y="1188" on="1"/>
        <pt x="559" y="1188" on="1"/>
        <pt x="559" y="1305" on="1"/>
        <pt x="932" y="1305" on="1"/>
        <pt x="932" y="1188" on="1"/>
        <pt x="819" y="1188" on="1"/>
        <pt x="547" y="657" on="1"/>
        <pt x="827" y="117" on="1"/>
        <pt x="954" y="117" on="1"/>
      </contour>
    </TTGlyph>
    <TTGlyph name="D" xMin="49" yMin="0" xMax="975" yMax="1305">
      <contour>
        <pt x="975" y="651" on="1"/>
        <pt x="975" y="520" on="0"/>
        <pt x="920" y="283" on="0"/>
        <pt x="799" y="104" on="0"/>
        <pt x="608" y="0" on="0"/>
        <pt x="473" y="0" on="1"/>
        <pt x="49" y="0" on="1"/>
        <pt x="49" y="1305" on="1"/>
        <pt x="473" y="1305" on="1"/>
        <pt x="606" y="1305" on="0"/>
        <pt x="797" y="1198" on="0"/>
        <pt x="918" y="1018" on="0"/>
        <pt x="975" y="782" on="0"/>
      </contour>
      <contour>
        <pt x="838" y="651" on="1"/>
        <pt x="838" y="907" on="0"/>
        <pt x="645" y="1188" on="0"/>
        <pt x="473" y="1188" on="1"/>
        <pt x="186" y="1188" on="1"/>
        <pt x="186" y="117" on="1"/>
        <pt x="473" y="117" on="1"/>
        <pt x="645" y="117" on="0"/>
        <pt x="838" y="395" on="0"/>
      </contour>
    </TTGlyph>
    <TTGlyph name="Dcaron" xMin="49" yMin="0" xMax="975" yMax="1743">
      <component glyphName="D" x="0" y="0" flags="0x204"/>
      <component glyphName="caron" x="0" y="375" flags="0x4"/>
    </TTGlyph>
    <TTGlyph name="Dcroat" xMin="-117" yMin="0" xMax="975" yMax="1305">
      <component glyphName="Eth" x="0" y="0" flags="0x204"/>
    </TTGlyph>
    <TTGlyph name="Delta" xMin="-59" yMin="0" xMax="995" yMax="1305">
      <contour>
        <pt x="995" y="0" on="1"/>
        <pt x="-59" y="0" on="1"/>
        <pt x="375" y="1305" on="1"/>
        <pt x="561" y="1305" on="1"/>
      </contour>
      <contour>
        <pt x="809" y="117" on="1"/>
        <pt x="467" y="1165" on="1"/>
        <pt x="125" y="117" on="1"/>
      </contour>
    </TTGlyph>
    <TTGlyph name="E" xMin="49" yMin="0" xMax="883" yMax="1305">
      <contour>
        <pt x="883" y="0" on="1"/>
        <pt x="49" y="0" on="1"/>
        <pt x="49" y="1305" on="1"/>
        <pt x="883" y="1305" on="1"/>
        <pt x="883" y="1188" on="1"/>
        <pt x="186" y="1188" on="1"/>
        <pt x="186" y="721" on="1"/>
        <pt x="700" y="721" on="1"/>
        <pt x="700" y="604" on="1"/>
        <pt x="186" y="604" on="1"/>
        <pt x="186" y="117" on="1"/>
        <pt x="883" y="117" on="1"/>
      </contour>
    </TTGlyph>
    <TTGlyph name="Eacute" xMin="49" yMin="0" xMax="883" yMax="1735">
      <component glyphName="E" x="0" y="0" flags="0x204"/>
      <component glyphName="acute" x="0" y="371" flags="0x4"/>
    </TTGlyph>
    <TTGlyph name="Ebreve" xMin="49" yMin="0" xMax="883" yMax="1657">
      <component glyphName="E" x="0" y="0" flags="0x204"/>
      <component glyphName="breve" x="0" y="371" flags="0x4"/>
    </TTGlyph>
    <TTGlyph name="Ecaron" xMin="49" yMin="0" xMax="883" yMax="1739">
      <component glyphName="E" x="0" y="0" flags="0x204"/>
      <component glyphName="caron" x="0" y="371" flags="0x4"/>
    </TTGlyph>
    <TTGlyph name="Ecircumflex" xMin="49" yMin="0" xMax="883" yMax="1739">
      <component glyphName="E" x="0" y="0" flags="0x204"/>
      <component glyphName="circumflex" x="0" y="371" flags="0x4"/>
    </TTGlyph>
    <TTGlyph name="Edieresis" xMin="49" yMin="0" xMax="883" yMax="1676">
      <component glyphName="E" x="0" y="0" flags="0x204"/>
      <component glyphName="dieresis" x="0" y="371" flags="0x4"/>
    </TTGlyph>
    <TTGlyph name="Edotaccent" xMin="49" yMin="0" xMax="883" yMax="1676">
      <component glyphName="E" x="0" y="0" flags="0x204"/>
      <component glyphName="dotaccent" x="0" y="371" flags="0x4"/>
    </TTGlyph>
    <TTGlyph name="Egrave" xMin="49" yMin="0" xMax="883" yMax="1737">
      <component glyphName="E" x="0" y="0" flags="0x204"/>
      <component glyphName="grave" x="0" y="373" flags="0x4"/>
    </TTGlyph>
    <TTGlyph name="Emacron" xMin="49" yMin="0" xMax="883" yMax="1590">
      <component glyphName="E" x="0" y="0" flags="0x204"/>
      <component glyphName="macron" x="0" y="371" flags="0x4"/>
    </TTGlyph>
    <TTGlyph name="Eng" xMin="49" yMin="-395" xMax="883" yMax="1305">
      <contour>
        <pt x="883" y="125" on="1"/>
        <pt x="883" y="-123" on="0"/>
        <pt x="672" y="-395" on="0"/>
        <pt x="455" y="-395" on="1"/>
        <pt x="244" y="-395" on="0"/>
        <pt x="121" y="-266" on="1"/>
        <pt x="207" y="-170" on="1"/>
        <pt x="256" y="-227" on="0"/>
        <pt x="383" y="-279" on="0"/>
        <pt x="455" y="-279" on="1"/>
        <pt x="520" y="-279" on="0"/>
        <pt x="614" y="-240" on="0"/>
        <pt x="680" y="-174" on="0"/>
        <pt x="721" y="-86" on="0"/>
        <pt x="731" y="-37" on="1"/>
        <pt x="186" y="1104" on="1"/>
        <pt x="186" y="0" on="1"/>
        <pt x="49" y="0" on="1"/>
        <pt x="49" y="1305" on="1"/>
        <pt x="242" y="1305" on="1"/>
        <pt x="745" y="252" on="1"/>
        <pt x="745" y="1305" on="1"/>
        <pt x="883" y="1305" on="1"/>
      </contour>
    </TTGlyph>
    <TTGlyph name="Eogonek" xMin="49" yMin="-379" xMax="1024" yMax="1305">
      <contour>
        <pt x="1024" y="-379" on="1"/>
        <pt x="899" y="-379" on="0"/>
        <pt x="756" y="-254" on="0"/>
        <pt x="756" y="-152" on="1"/>
        <pt x="756" y="-104" on="0"/>
        <pt x="786" y="-29" on="0"/>
        <pt x="809" y="0" on="1"/>
        <pt x="49" y="0" on="1"/>
        <pt x="49" y="1305" on="1"/>
        <pt x="883" y="1305" on="1"/>
        <pt x="883" y="1188" on="1"/>
        <pt x="186" y="1188" on="1"/>
        <pt x="186" y="721" on="1"/>
        <pt x="700" y="721" on="1"/>
        <pt x="700" y="604" on="1"/>
        <pt x="186" y="604" on="1"/>
        <pt x="186" y="117" on="1"/>
        <pt x="883" y="117" on="1"/>
        <pt x="883" y="2" on="1"/>
        <pt x="885" y="0" on="1"/>
        <pt x="836" y="-45" on="0"/>
        <pt x="836" y="-121" on="1"/>
        <pt x="836" y="-193" on="0"/>
        <pt x="944" y="-289" on="0"/>
        <pt x="1024" y="-289" on="1"/>
      </contour>
    </TTGlyph>
    <TTGlyph name="Epsilon" xMin="49" yMin="0" xMax="883" yMax="1305">
      <contour>
        <pt x="883" y="0" on="1"/>
        <pt x="49" y="0" on="1"/>
        <pt x="49" y="1305" on="1"/>
        <pt x="883" y="1305" on="1"/>
        <pt x="883" y="1188" on="1"/>
        <pt x="186" y="1188" on="1"/>
        <pt x="186" y="721" on="1"/>
        <pt x="700" y="721" on="1"/>
        <pt x="700" y="604" on="1"/>
        <pt x="186" y="604" on="1"/>
        <pt x="186" y="117" on="1"/>
        <pt x="883" y="117" on="1"/>
      </contour>
    </TTGlyph>
    <TTGlyph name="Epsilontonos" xMin="-161" yMin="0" xMax="883" yMax="1583">
      <component glyphName="Epsilon" x="0" y="0" flags="0x200"/>
      <component glyphName="tonos" x="-558" y="0" flags="0x0"/>
    </TTGlyph>
    <TTGlyph name="Eta" xMin="49" yMin="0" xMax="883" yMax="1305">
      <contour>
        <pt x="883" y="0" on="1"/>
        <pt x="745" y="0" on="1"/>
        <pt x="745" y="604" on="1"/>
        <pt x="186" y="604" on="1"/>
        <pt x="186" y="0" on="1"/>
        <pt x="49" y="0" on="1"/>
        <pt x="49" y="1305" on="1"/>
        <pt x="186" y="1305" on="1"/>
        <pt x="186" y="721" on="1"/>
        <pt x="745" y="721" on="1"/>
        <pt x="745" y="1305" on="1"/>
        <pt x="883" y="1305" on="1"/>
      </contour>
    </TTGlyph>
    <TTGlyph name="Etatonos" xMin="-161" yMin="0" xMax="883" yMax="1583">
      <component glyphName="tonos" x="-558" y="0" flags="0x200"/>
      <component glyphName="Eta" x="0" y="0" flags="0x0"/>
    </TTGlyph>
    <TTGlyph name="Eth" xMin="-117" yMin="0" xMax="975" yMax="1305">
      <contour>
        <pt x="975" y="653" on="1"/>
        <pt x="975" y="518" on="0"/>
        <pt x="915" y="281" on="0"/>
        <pt x="793" y="102" on="0"/>
        <pt x="602" y="0" on="0"/>
        <pt x="473" y="0" on="1"/>
        <pt x="49" y="0" on="1"/>
        <pt x="49" y="606" on="1"/>
        <pt x="-117" y="606" on="1"/>
        <pt x="-117" y="723" on="1"/>
        <pt x="49" y="723" on="1"/>
        <pt x="49" y="1305" on="1"/>
        <pt x="473" y="1305" on="1"/>
        <pt x="610" y="1305" on="0"/>
        <pt x="801" y="1198" on="0"/>
        <pt x="922" y="1018" on="0"/>
        <pt x="975" y="782" on="0"/>
      </contour>
      <contour>
        <pt x="838" y="653" on="1"/>
        <pt x="838" y="909" on="0"/>
        <pt x="645" y="1188" on="0"/>
        <pt x="473" y="1188" on="1"/>
        <pt x="186" y="1188" on="1"/>
        <pt x="186" y="723" on="1"/>
        <pt x="440" y="723" on="1"/>
        <pt x="440" y="606" on="1"/>
        <pt x="186" y="606" on="1"/>
        <pt x="186" y="117" on="1"/>
        <pt x="473" y="117" on="1"/>
        <pt x="645" y="117" on="0"/>
        <pt x="838" y="397" on="0"/>
      </contour>
    </TTGlyph>
    <TTGlyph name="Euro" xMin="0" yMin="-23" xMax="940" yMax="1327">
      <contour>
        <pt x="0" y="858" on="1"/>
        <pt x="166" y="858" on="1"/>
        <pt x="180" y="956" on="0"/>
        <pt x="240" y="1126" on="0"/>
        <pt x="336" y="1253" on="0"/>
        <pt x="473" y="1327" on="0"/>
        <pt x="563" y="1327" on="1"/>
        <pt x="702" y="1327" on="0"/>
        <pt x="889" y="1151" on="0"/>
        <pt x="940" y="963" on="1"/>
        <pt x="819" y="932" on="1"/>
        <pt x="791" y="1055" on="0"/>
        <pt x="659" y="1210" on="0"/>
        <pt x="567" y="1210" on="1"/>
        <pt x="467" y="1210" on="0"/>
        <pt x="330" y="1034" on="0"/>
        <pt x="303" y="858" on="1"/>
        <pt x="559" y="858" on="1"/>
        <pt x="559" y="745" on="1"/>
        <pt x="291" y="745" on="1"/>
        <pt x="289" y="723" on="0"/>
        <pt x="289" y="676" on="0"/>
        <pt x="289" y="651" on="1"/>
        <pt x="289" y="627" on="0"/>
        <pt x="289" y="582" on="0"/>
        <pt x="291" y="559" on="1"/>
        <pt x="559" y="559" on="1"/>
        <pt x="559" y="446" on="1"/>
        <pt x="303" y="446" on="1"/>
        <pt x="328" y="268" on="0"/>
        <pt x="467" y="94" on="0"/>
        <pt x="567" y="94" on="1"/>
        <pt x="659" y="94" on="0"/>
        <pt x="791" y="252" on="0"/>
        <pt x="819" y="375" on="1"/>
        <pt x="940" y="342" on="1"/>
        <pt x="889" y="154" on="0"/>
        <pt x="702" y="-23" on="0"/>
        <pt x="563" y="-23" on="1"/>
        <pt x="473" y="-23" on="0"/>
        <pt x="336" y="51" on="0"/>
        <pt x="240" y="176" on="0"/>
        <pt x="178" y="348" on="0"/>
        <pt x="164" y="446" on="1"/>
        <pt x="0" y="446" on="1"/>
        <pt x="0" y="559" on="1"/>
        <pt x="154" y="559" on="1"/>
        <pt x="152" y="582" on="0"/>
        <pt x="152" y="629" on="0"/>
        <pt x="152" y="651" on="1"/>
        <pt x="152" y="674" on="0"/>
        <pt x="152" y="723" on="0"/>
        <pt x="154" y="745" on="1"/>
        <pt x="0" y="745" on="1"/>
      </contour>
    </TTGlyph>
    <TTGlyph name="F" xMin="49" yMin="0" xMax="883" yMax="1305">
      <contour>
        <pt x="883" y="1188" on="1"/>
        <pt x="186" y="1188" on="1"/>
        <pt x="186" y="721" on="1"/>
        <pt x="700" y="721" on="1"/>
        <pt x="700" y="604" on="1"/>
        <pt x="186" y="604" on="1"/>
        <pt x="186" y="0" on="1"/>
        <pt x="49" y="0" on="1"/>
        <pt x="49" y="1305" on="1"/>
        <pt x="883" y="1305" on="1"/>
      </contour>
    </TTGlyph>
    <TTGlyph name="G" xMin="-20" yMin="-23" xMax="983" yMax="1327">
      <contour>
        <pt x="983" y="649" on="1"/>
        <pt x="983" y="516" on="0"/>
        <pt x="928" y="274" on="0"/>
        <pt x="807" y="88" on="0"/>
        <pt x="616" y="-23" on="0"/>
        <pt x="481" y="-23" on="1"/>
        <pt x="344" y="-23" on="0"/>
        <pt x="154" y="90" on="0"/>
        <pt x="33" y="276" on="0"/>
        <pt x="-20" y="520" on="0"/>
        <pt x="-20" y="651" on="1"/>
        <pt x="-20" y="782" on="0"/>
        <pt x="33" y="1026" on="0"/>
        <pt x="154" y="1214" on="0"/>
        <pt x="344" y="1327" on="0"/>
        <pt x="481" y="1327" on="1"/>
        <pt x="602" y="1327" on="0"/>
        <pt x="774" y="1241" on="0"/>
        <pt x="815" y="1153" on="1"/>
        <pt x="815" y="1305" on="1"/>
        <pt x="932" y="1305" on="1"/>
        <pt x="932" y="877" on="1"/>
        <pt x="815" y="877" on="1"/>
        <pt x="815" y="948" on="0"/>
        <pt x="762" y="1071" on="0"/>
        <pt x="672" y="1159" on="0"/>
        <pt x="549" y="1210" on="0"/>
        <pt x="481" y="1210" on="1"/>
        <pt x="375" y="1210" on="0"/>
        <pt x="236" y="1110" on="0"/>
        <pt x="152" y="948" on="0"/>
        <pt x="117" y="750" on="0"/>
        <pt x="117" y="651" on="1"/>
        <pt x="117" y="553" on="0"/>
        <pt x="152" y="354" on="0"/>
        <pt x="236" y="195" on="0"/>
        <pt x="375" y="94" on="0"/>
        <pt x="481" y="94" on="1"/>
        <pt x="639" y="94" on="0"/>
        <pt x="821" y="338" on="0"/>
        <pt x="838" y="559" on="1"/>
        <pt x="549" y="559" on="1"/>
        <pt x="549" y="676" on="1"/>
        <pt x="983" y="676" on="1"/>
      </contour>
    </TTGlyph>
    <TTGlyph name="Gamma" xMin="49" yMin="0" xMax="932" yMax="1305">
      <contour>
        <pt x="49" y="1305" on="1"/>
        <pt x="932" y="1305" on="1"/>
        <pt x="932" y="1188" on="1"/>
        <pt x="186" y="1188" on="1"/>
        <pt x="186" y="0" on="1"/>
        <pt x="49" y="0" on="1"/>
      </contour>
    </TTGlyph>
    <TTGlyph name="Gbreve" xMin="-20" yMin="-23" xMax="983" yMax="1657">
      <component glyphName="G" x="0" y="0" flags="0x204"/>
      <component glyphName="breve" x="0" y="371" flags="0x4"/>
    </TTGlyph>
    <TTGlyph name="Gcircumflex" xMin="-20" yMin="-23" xMax="983" yMax="1739">
      <component glyphName="G" x="0" y="0" flags="0x204"/>
      <component glyphName="circumflex" x="0" y="371" flags="0x4"/>
    </TTGlyph>
    <TTGlyph name="Gcommaaccent" xMin="-20" yMin="-373" xMax="983" yMax="1327">
      <component glyphName="G" x="0" y="0" flags="0x204"/>
      <component glyphName="commaaccent" x="0" y="0" flags="0x4"/>
    </TTGlyph>
    <TTGlyph name="Gdotaccent" xMin="-20" yMin="-23" xMax="983" yMax="1676">
      <component glyphName="G" x="0" y="0" flags="0x204"/>
      <component glyphName="dotaccent" x="0" y="371" flags="0x4"/>
    </TTGlyph>
    <TTGlyph name="H" xMin="49" yMin="0" xMax="883" yMax="1305">
      <contour>
        <pt x="883" y="0" on="1"/>
        <pt x="745" y="0" on="1"/>
        <pt x="745" y="604" on="1"/>
        <pt x="186" y="604" on="1"/>
        <pt x="186" y="0" on="1"/>
        <pt x="49" y="0" on="1"/>
        <pt x="49" y="1305" on="1"/>
        <pt x="186" y="1305" on="1"/>
        <pt x="186" y="721" on="1"/>
        <pt x="745" y="721" on="1"/>
        <pt x="745" y="1305" on="1"/>
        <pt x="883" y="1305" on="1"/>
      </contour>
    </TTGlyph>
    <TTGlyph name="Hbar" xMin="-137" yMin="0" xMax="1071" yMax="1305">
      <contour>
        <pt x="883" y="1096" on="1"/>
        <pt x="1071" y="1096" on="1"/>
        <pt x="1071" y="983" on="1"/>
        <pt x="883" y="983" on="1"/>
        <pt x="883" y="0" on="1"/>
        <pt x="745" y="0" on="1"/>
        <pt x="745" y="604" on="1"/>
        <pt x="186" y="604" on="1"/>
        <pt x="186" y="0" on="1"/>
        <pt x="49" y="0" on="1"/>
        <pt x="49" y="983" on="1"/>
        <pt x="-137" y="983" on="1"/>
        <pt x="-137" y="1096" on="1"/>
        <pt x="49" y="1096" on="1"/>
        <pt x="49" y="1305" on="1"/>
        <pt x="186" y="1305" on="1"/>
        <pt x="186" y="1096" on="1"/>
        <pt x="745" y="1096" on="1"/>
        <pt x="745" y="1305" on="1"/>
        <pt x="883" y="1305" on="1"/>
      </contour>
      <contour>
        <pt x="745" y="721" on="1"/>
        <pt x="745" y="983" on="1"/>
        <pt x="186" y="983" on="1"/>
        <pt x="186" y="721" on="1"/>
      </contour>
    </TTGlyph>
    <TTGlyph name="Hcircumflex" xMin="49" yMin="0" xMax="883" yMax="1739">
      <component glyphName="H" x="0" y="0" flags="0x204"/>
      <component glyphName="circumflex" x="0" y="371" flags="0x4"/>
    </TTGlyph>
    <TTGlyph name="I" xMin="186" yMin="0" xMax="745" yMax="1305">
      <contour>
        <pt x="745" y="0" on="1"/>
        <pt x="186" y="0" on="1"/>
        <pt x="186" y="117" on="1"/>
        <pt x="397" y="117" on="1"/>
        <pt x="397" y="1188" on="1"/>
        <pt x="186" y="1188" on="1"/>
        <pt x="186" y="1305" on="1"/>
        <pt x="745" y="1305" on="1"/>
        <pt x="745" y="1188" on="1"/>
        <pt x="535" y="1188" on="1"/>
        <pt x="535" y="117" on="1"/>
        <pt x="745" y="117" on="1"/>
      </contour>
    </TTGlyph>
    <TTGlyph name="IJ" xMin="0" yMin="-395" xMax="932" yMax="1305">
      <contour>
        <pt x="256" y="-170" on="1"/>
        <pt x="305" y="-227" on="0"/>
        <pt x="432" y="-279" on="0"/>
        <pt x="504" y="-279" on="1"/>
        <pt x="596" y="-279" on="0"/>
        <pt x="711" y="-205" on="0"/>
        <pt x="772" y="-90" on="0"/>
        <pt x="795" y="53" on="0"/>
        <pt x="795" y="125" on="1"/>
        <pt x="795" y="1305" on="1"/>
        <pt x="932" y="1305" on="1"/>
        <pt x="932" y="125" on="1"/>
        <pt x="932" y="-123" on="0"/>
        <pt x="721" y="-395" on="0"/>
        <pt x="504" y="-395" on="1"/>
        <pt x="293" y="-395" on="0"/>
        <pt x="170" y="-266" on="1"/>
      </contour>
      <contour>
        <pt x="559" y="0" on="1"/>
        <pt x="0" y="0" on="1"/>
        <pt x="0" y="117" on="1"/>
        <pt x="211" y="117" on="1"/>
        <pt x="211" y="1188" on="1"/>
        <pt x="0" y="1188" on="1"/>
        <pt x="0" y="1305" on="1"/>
        <pt x="559" y="1305" on="1"/>
        <pt x="559" y="1188" on="1"/>
        <pt x="349" y="1188" on="1"/>
        <pt x="349" y="117" on="1"/>
        <pt x="559" y="117" on="1"/>
      </contour>
    </TTGlyph>
    <TTGlyph name="Iacute" xMin="186" yMin="0" xMax="745" yMax="1735">
      <component glyphName="I" x="0" y="0" flags="0x204"/>
      <component glyphName="acute" x="0" y="371" flags="0x4"/>
    </TTGlyph>
    <TTGlyph name="Ibreve" xMin="182" yMin="0" xMax="752" yMax="1657">
      <component glyphName="I" x="0" y="0" flags="0x204"/>
      <component glyphName="breve" x="0" y="371" flags="0x4"/>
    </TTGlyph>
    <TTGlyph name="Icircumflex" xMin="170" yMin="0" xMax="764" yMax="1739">
      <component glyphName="I" x="0" y="0" flags="0x204"/>
      <component glyphName="circumflex" x="0" y="371" flags="0x4"/>
    </TTGlyph>
    <TTGlyph name="Idieresis" xMin="186" yMin="0" xMax="745" yMax="1676">
      <component glyphName="I" x="0" y="0" flags="0x204"/>
      <component glyphName="dieresis" x="0" y="371" flags="0x4"/>
    </TTGlyph>
    <TTGlyph name="Idotaccent" xMin="186" yMin="0" xMax="745" yMax="1676">
      <component glyphName="I" x="0" y="0" flags="0x204"/>
      <component glyphName="dotaccent" x="0" y="371" flags="0x4"/>
    </TTGlyph>
    <TTGlyph name="Igrave" xMin="186" yMin="0" xMax="745" yMax="1737">
      <component glyphName="I" x="0" y="0" flags="0x204"/>
      <component glyphName="grave" x="0" y="373" flags="0x4"/>
    </TTGlyph>
    <TTGlyph name="Imacron" xMin="186" yMin="0" xMax="745" yMax="1590">
      <component glyphName="I" x="0" y="0" flags="0x204"/>
      <component glyphName="macron" x="0" y="371" flags="0x4"/>
    </TTGlyph>
    <TTGlyph name="Iogonek" xMin="186" yMin="-379" xMax="885" yMax="1305">
      <contour>
        <pt x="885" y="-379" on="1"/>
        <pt x="760" y="-379" on="0"/>
        <pt x="616" y="-254" on="0"/>
        <pt x="616" y="-152" on="1"/>
        <pt x="616" y="-104" on="0"/>
        <pt x="647" y="-29" on="0"/>
        <pt x="670" y="0" on="1"/>
        <pt x="186" y="0" on="1"/>
        <pt x="186" y="117" on="1"/>
        <pt x="397" y="117" on="1"/>
        <pt x="397" y="1188" on="1"/>
        <pt x="186" y="1188" on="1"/>
        <pt x="186" y="1305" on="1"/>
        <pt x="745" y="1305" on="1"/>
        <pt x="745" y="1188" on="1"/>
        <pt x="535" y="1188" on="1"/>
        <pt x="535" y="117" on="1"/>
        <pt x="745" y="117" on="1"/>
        <pt x="745" y="0" on="1"/>
        <pt x="696" y="-45" on="0"/>
        <pt x="696" y="-121" on="1"/>
        <pt x="696" y="-193" on="0"/>
        <pt x="805" y="-289" on="0"/>
        <pt x="885" y="-289" on="1"/>
      </contour>
    </TTGlyph>
    <TTGlyph name="Iota" xMin="186" yMin="0" xMax="745" yMax="1305">
      <contour>
        <pt x="745" y="0" on="1"/>
        <pt x="186" y="0" on="1"/>
        <pt x="186" y="117" on="1"/>
        <pt x="397" y="117" on="1"/>
        <pt x="397" y="1188" on="1"/>
        <pt x="186" y="1188" on="1"/>
        <pt x="186" y="1305" on="1"/>
        <pt x="745" y="1305" on="1"/>
        <pt x="745" y="1188" on="1"/>
        <pt x="535" y="1188" on="1"/>
        <pt x="535" y="117" on="1"/>
        <pt x="745" y="117" on="1"/>
      </contour>
    </TTGlyph>
    <TTGlyph name="Iotadieresis" xMin="186" yMin="0" xMax="745" yMax="1678">
      <component glyphName="Iota" x="0" y="0" flags="0x200"/>
      <component glyphName="dieresis" x="0" y="373" flags="0x0"/>
    </TTGlyph>
    <TTGlyph name="Iotatonos" xMin="23" yMin="0" xMax="745" yMax="1583">
      <component glyphName="tonos" x="-374" y="0" flags="0x200"/>
      <component glyphName="Iota" x="0" y="0" flags="0x0"/>
    </TTGlyph>
    <TTGlyph name="Itilde" xMin="78" yMin="0" xMax="846" yMax="1651">
      <component glyphName="I" x="0" y="0" flags="0x204"/>
      <component glyphName="tilde" x="0" y="371" flags="0x4"/>
    </TTGlyph>
    <TTGlyph name="J" xMin="-2" yMin="-23" xMax="883" yMax="1305">
      <contour>
        <pt x="883" y="498" on="1"/>
        <pt x="883" y="250" on="0"/>
        <pt x="672" y="-23" on="0"/>
        <pt x="455" y="-23" on="1"/>
        <pt x="281" y="-23" on="0"/>
        <pt x="45" y="160" on="0"/>
        <pt x="-2" y="342" on="1"/>
        <pt x="117" y="387" on="1"/>
        <pt x="160" y="225" on="0"/>
        <pt x="330" y="94" on="0"/>
        <pt x="455" y="94" on="1"/>
        <pt x="547" y="94" on="0"/>
        <pt x="662" y="168" on="0"/>
        <pt x="723" y="283" on="0"/>
        <pt x="745" y="426" on="0"/>
        <pt x="745" y="498" on="1"/>
        <pt x="745" y="1305" on="1"/>
        <pt x="883" y="1305" on="1"/>
      </contour>
    </TTGlyph>
    <TTGlyph name="Jcircumflex" xMin="-2" yMin="-23" xMax="883" yMax="1739">
      <component glyphName="J" x="0" y="0" flags="0x204"/>
      <component glyphName="circumflex" x="0" y="371" flags="0x4"/>
    </TTGlyph>
    <TTGlyph name="K" xMin="49" yMin="0" xMax="926" yMax="1305">
      <contour>
        <pt x="926" y="0" on="1"/>
        <pt x="758" y="0" on="1"/>
        <pt x="324" y="639" on="1"/>
        <pt x="186" y="485" on="1"/>
        <pt x="186" y="0" on="1"/>
        <pt x="49" y="0" on="1"/>
        <pt x="49" y="1305" on="1"/>
        <pt x="186" y="1305" on="1"/>
        <pt x="186" y="670" on="1"/>
        <pt x="745" y="1305" on="1"/>
        <pt x="926" y="1305" on="1"/>
        <pt x="414" y="735" on="1"/>
      </contour>
    </TTGlyph>
    <TTGlyph name="Kappa" xMin="49" yMin="0" xMax="926" yMax="1305">
      <contour>
        <pt x="926" y="0" on="1"/>
        <pt x="758" y="0" on="1"/>
        <pt x="324" y="639" on="1"/>
        <pt x="186" y="485" on="1"/>
        <pt x="186" y="0" on="1"/>
        <pt x="49" y="0" on="1"/>
        <pt x="49" y="1305" on="1"/>
        <pt x="186" y="1305" on="1"/>
        <pt x="186" y="670" on="1"/>
        <pt x="745" y="1305" on="1"/>
        <pt x="926" y="1305" on="1"/>
        <pt x="414" y="735" on="1"/>
      </contour>
    </TTGlyph>
    <TTGlyph name="Kcommaaccent" xMin="49" yMin="-373" xMax="926" yMax="1305">
      <component glyphName="K" x="0" y="0" flags="0x204"/>
      <component glyphName="commaaccent" x="0" y="0" flags="0x4"/>
    </TTGlyph>
    <TTGlyph name="L" xMin="49" yMin="0" xMax="883" yMax="1305">
      <contour>
        <pt x="883" y="0" on="1"/>
        <pt x="49" y="0" on="1"/>
        <pt x="49" y="1305" on="1"/>
        <pt x="186" y="1305" on="1"/>
        <pt x="186" y="117" on="1"/>
        <pt x="883" y="117" on="1"/>
      </contour>
    </TTGlyph>
    <TTGlyph name="Lacute" xMin="49" yMin="0" xMax="883" yMax="1735">
      <component glyphName="L" x="0" y="0" flags="0x204"/>
      <component glyphName="acute" x="0" y="371" flags="0x4"/>
    </TTGlyph>
    <TTGlyph name="Lambda" xMin="-59" yMin="0" xMax="995" yMax="1305">
      <contour>
        <pt x="848" y="0" on="1"/>
        <pt x="467" y="1165" on="1"/>
        <pt x="88" y="0" on="1"/>
        <pt x="-59" y="0" on="1"/>
        <pt x="375" y="1305" on="1"/>
        <pt x="561" y="1305" on="1"/>
        <pt x="995" y="0" on="1"/>
      </contour>
    </TTGlyph>
    <TTGlyph name="Lcaron" xMin="49" yMin="0" xMax="883" yMax="1305">
      <component glyphName="L" x="0" y="0" flags="0x204"/>
      <component glyphName="tonos" x="213" y="-278" flags="0x4"/>
    </TTGlyph>
    <TTGlyph name="Lcommaaccent" xMin="49" yMin="-373" xMax="883" yMax="1305">
      <component glyphName="L" x="0" y="0" flags="0x204"/>
      <component glyphName="commaaccent" x="0" y="0" flags="0x4"/>
    </TTGlyph>
    <TTGlyph name="Ldot" xMin="49" yMin="0" xMax="883" yMax="1305">
      <component glyphName="L" x="0" y="0" flags="0x204"/>
      <component glyphName="periodcentered" x="186" y="186" flags="0x4"/>
    </TTGlyph>
    <TTGlyph name="Lslash" xMin="-162" yMin="0" xMax="883" yMax="1305">
      <contour>
        <pt x="883" y="0" on="1"/>
        <pt x="49" y="0" on="1"/>
        <pt x="49" y="563" on="1"/>
        <pt x="-162" y="494" on="1"/>
        <pt x="-162" y="621" on="1"/>
        <pt x="49" y="690" on="1"/>
        <pt x="49" y="1305" on="1"/>
        <pt x="186" y="1305" on="1"/>
        <pt x="186" y="737" on="1"/>
        <pt x="397" y="807" on="1"/>
        <pt x="397" y="680" on="1"/>
        <pt x="186" y="610" on="1"/>
        <pt x="186" y="119" on="1"/>
        <pt x="883" y="119" on="1"/>
      </contour>
    </TTGlyph>
    <TTGlyph name="M" xMin="49" yMin="0" xMax="883" yMax="1305">
      <contour>
        <pt x="883" y="0" on="1"/>
        <pt x="745" y="0" on="1"/>
        <pt x="745" y="1087" on="1"/>
        <pt x="514" y="414" on="1"/>
        <pt x="416" y="414" on="1"/>
        <pt x="186" y="1087" on="1"/>
        <pt x="186" y="0" on="1"/>
        <pt x="49" y="0" on="1"/>
        <pt x="49" y="1305" on="1"/>
        <pt x="227" y="1305" on="1"/>
        <pt x="465" y="623" on="1"/>
        <pt x="705" y="1305" on="1"/>
        <pt x="883" y="1305" on="1"/>
      </contour>
    </TTGlyph>
    <TTGlyph name="Mu" xMin="49" yMin="0" xMax="883" yMax="1305">
      <contour>
        <pt x="883" y="0" on="1"/>
        <pt x="745" y="0" on="1"/>
        <pt x="745" y="1087" on="1"/>
        <pt x="514" y="414" on="1"/>
        <pt x="416" y="414" on="1"/>
        <pt x="186" y="1087" on="1"/>
        <pt x="186" y="0" on="1"/>
        <pt x="49" y="0" on="1"/>
        <pt x="49" y="1305" on="1"/>
        <pt x="227" y="1305" on="1"/>
        <pt x="465" y="623" on="1"/>
        <pt x="705" y="1305" on="1"/>
        <pt x="883" y="1305" on="1"/>
      </contour>
    </TTGlyph>
    <TTGlyph name="N" xMin="49" yMin="0" xMax="883" yMax="1305">
      <contour>
        <pt x="883" y="0" on="1"/>
        <pt x="713" y="0" on="1"/>
        <pt x="186" y="1104" on="1"/>
        <pt x="186" y="0" on="1"/>
        <pt x="49" y="0" on="1"/>
        <pt x="49" y="1305" on="1"/>
        <pt x="242" y="1305" on="1"/>
        <pt x="745" y="252" on="1"/>
        <pt x="745" y="1305" on="1"/>
        <pt x="883" y="1305" on="1"/>
      </contour>
    </TTGlyph>
    <TTGlyph name="Nacute" xMin="49" yMin="0" xMax="883" yMax="1735">
      <component glyphName="N" x="0" y="0" flags="0x204"/>
      <component glyphName="acute" x="0" y="371" flags="0x4"/>
    </TTGlyph>
    <TTGlyph name="Ncaron" xMin="49" yMin="0" xMax="883" yMax="1739">
      <component glyphName="N" x="0" y="0" flags="0x204"/>
      <component glyphName="caron" x="0" y="371" flags="0x4"/>
    </TTGlyph>
    <TTGlyph name="Ncommaaccent" xMin="49" yMin="-373" xMax="883" yMax="1305">
      <component glyphName="N" x="0" y="0" flags="0x204"/>
      <component glyphName="commaaccent" x="0" y="0" flags="0x4"/>
    </TTGlyph>
    <TTGlyph name="Ntilde" xMin="49" yMin="0" xMax="883" yMax="1651">
      <component glyphName="N" x="0" y="0" flags="0x204"/>
      <component glyphName="tilde" x="0" y="371" flags="0x4"/>
    </TTGlyph>
    <TTGlyph name="Nu" xMin="49" yMin="0" xMax="883" yMax="1305">
      <contour>
        <pt x="883" y="0" on="1"/>
        <pt x="713" y="0" on="1"/>
        <pt x="186" y="1104" on="1"/>
        <pt x="186" y="0" on="1"/>
        <pt x="49" y="0" on="1"/>
        <pt x="49" y="1305" on="1"/>
        <pt x="242" y="1305" on="1"/>
        <pt x="745" y="252" on="1"/>
        <pt x="745" y="1305" on="1"/>
        <pt x="883" y="1305" on="1"/>
      </contour>
    </TTGlyph>
    <TTGlyph name="O" xMin="-33" yMin="-23" xMax="967" yMax="1327">
      <contour>
        <pt x="967" y="651" on="1"/>
        <pt x="967" y="520" on="0"/>
        <pt x="913" y="276" on="0"/>
        <pt x="795" y="90" on="0"/>
        <pt x="604" y="-23" on="0"/>
        <pt x="467" y="-23" on="1"/>
        <pt x="330" y="-23" on="0"/>
        <pt x="139" y="90" on="0"/>
        <pt x="20" y="276" on="0"/>
        <pt x="-33" y="520" on="0"/>
        <pt x="-33" y="651" on="1"/>
        <pt x="-33" y="782" on="0"/>
        <pt x="20" y="1026" on="0"/>
        <pt x="141" y="1214" on="0"/>
        <pt x="332" y="1327" on="0"/>
        <pt x="467" y="1327" on="1"/>
        <pt x="602" y="1327" on="0"/>
        <pt x="793" y="1214" on="0"/>
        <pt x="911" y="1026" on="0"/>
        <pt x="967" y="782" on="0"/>
      </contour>
      <contour>
        <pt x="829" y="651" on="1"/>
        <pt x="829" y="780" on="0"/>
        <pt x="780" y="987" on="0"/>
        <pt x="688" y="1133" on="0"/>
        <pt x="553" y="1210" on="0"/>
        <pt x="467" y="1210" on="1"/>
        <pt x="360" y="1210" on="0"/>
        <pt x="221" y="1110" on="0"/>
        <pt x="137" y="948" on="0"/>
        <pt x="104" y="750" on="0"/>
        <pt x="104" y="651" on="1"/>
        <pt x="104" y="553" on="0"/>
        <pt x="137" y="354" on="0"/>
        <pt x="221" y="195" on="0"/>
        <pt x="360" y="94" on="0"/>
        <pt x="467" y="94" on="1"/>
        <pt x="573" y="94" on="0"/>
        <pt x="713" y="195" on="0"/>
        <pt x="797" y="354" on="0"/>
        <pt x="829" y="553" on="0"/>
      </contour>
    </TTGlyph>
    <TTGlyph name="OE" xMin="-14" yMin="-23" xMax="932" yMax="1327">
      <contour>
        <pt x="422" y="651" on="1"/>
        <pt x="422" y="774" on="0"/>
        <pt x="412" y="981" on="0"/>
        <pt x="379" y="1128" on="0"/>
        <pt x="322" y="1210" on="0"/>
        <pt x="274" y="1210" on="1"/>
        <pt x="227" y="1210" on="0"/>
        <pt x="168" y="1128" on="0"/>
        <pt x="135" y="981" on="0"/>
        <pt x="123" y="774" on="0"/>
        <pt x="123" y="651" on="1"/>
        <pt x="123" y="528" on="0"/>
        <pt x="135" y="324" on="0"/>
        <pt x="168" y="176" on="0"/>
        <pt x="227" y="94" on="0"/>
        <pt x="274" y="94" on="1"/>
        <pt x="322" y="94" on="0"/>
        <pt x="379" y="176" on="0"/>
        <pt x="412" y="324" on="0"/>
        <pt x="422" y="528" on="0"/>
      </contour>
      <contour>
        <pt x="274" y="-23" on="1"/>
        <pt x="-14" y="-23" on="0"/>
        <pt x="-14" y="651" on="1"/>
        <pt x="-14" y="1327" on="0"/>
        <pt x="274" y="1327" on="1"/>
        <pt x="348" y="1327" on="0"/>
        <pt x="420" y="1251" on="0"/>
        <pt x="449" y="1171" on="1"/>
        <pt x="449" y="1305" on="1"/>
        <pt x="932" y="1305" on="1"/>
        <pt x="932" y="1188" on="1"/>
        <pt x="559" y="1188" on="1"/>
        <pt x="559" y="721" on="1"/>
        <pt x="842" y="721" on="1"/>
        <pt x="842" y="604" on="1"/>
        <pt x="559" y="604" on="1"/>
        <pt x="559" y="117" on="1"/>
        <pt x="932" y="117" on="1"/>
        <pt x="932" y="0" on="1"/>
        <pt x="449" y="0" on="1"/>
        <pt x="449" y="133" on="1"/>
        <pt x="420" y="53" on="0"/>
        <pt x="348" y="-23" on="0"/>
      </contour>
    </TTGlyph>
    <TTGlyph name="Oacute" xMin="-33" yMin="-23" xMax="967" yMax="1735">
      <component glyphName="O" x="0" y="0" flags="0x204"/>
      <component glyphName="acute" x="0" y="371" flags="0x4"/>
    </TTGlyph>
    <TTGlyph name="Obreve" xMin="-33" yMin="-23" xMax="967" yMax="1657">
      <component glyphName="O" x="0" y="0" flags="0x204"/>
      <component glyphName="breve" x="0" y="371" flags="0x4"/>
    </TTGlyph>
    <TTGlyph name="Ocircumflex" xMin="-33" yMin="-23" xMax="967" yMax="1739">
      <component glyphName="O" x="0" y="0" flags="0x204"/>
      <component glyphName="circumflex" x="0" y="371" flags="0x4"/>
    </TTGlyph>
    <TTGlyph name="Odieresis" xMin="-33" yMin="-23" xMax="967" yMax="1676">
      <component glyphName="O" x="0" y="0" flags="0x204"/>
      <component glyphName="dieresis" x="0" y="371" flags="0x4"/>
    </TTGlyph>
    <TTGlyph name="Ograve" xMin="-33" yMin="-23" xMax="967" yMax="1737">
      <component glyphName="O" x="0" y="0" flags="0x204"/>
      <component glyphName="grave" x="0" y="373" flags="0x4"/>
    </TTGlyph>
    <TTGlyph name="Ohungarumlaut" xMin="-33" yMin="-23" xMax="967" yMax="1770">
      <component glyphName="O" x="0" y="0" flags="0x204"/>
      <component glyphName="hungarumlaut" x="0" y="371" flags="0x4"/>
    </TTGlyph>
    <TTGlyph name="Omacron" xMin="-33" yMin="-23" xMax="967" yMax="1590">
      <component glyphName="O" x="0" y="0" flags="0x204"/>
      <component glyphName="macron" x="0" y="371" flags="0x4"/>
    </TTGlyph>
    <TTGlyph name="Omega" xMin="-20" yMin="0" xMax="956" yMax="1327">
      <contour>
        <pt x="956" y="741" on="1"/>
        <pt x="956" y="596" on="0"/>
        <pt x="846" y="324" on="0"/>
        <pt x="721" y="231" on="1"/>
        <pt x="721" y="117" on="1"/>
        <pt x="932" y="117" on="1"/>
        <pt x="932" y="0" on="1"/>
        <pt x="584" y="0" on="1"/>
        <pt x="584" y="291" on="1"/>
        <pt x="651" y="317" on="0"/>
        <pt x="741" y="420" on="0"/>
        <pt x="797" y="543" on="0"/>
        <pt x="819" y="678" on="0"/>
        <pt x="819" y="741" on="1"/>
        <pt x="819" y="823" on="0"/>
        <pt x="780" y="991" on="0"/>
        <pt x="694" y="1128" on="0"/>
        <pt x="561" y="1214" on="0"/>
        <pt x="467" y="1214" on="1"/>
        <pt x="377" y="1214" on="0"/>
        <pt x="244" y="1128" on="0"/>
        <pt x="158" y="991" on="0"/>
        <pt x="117" y="823" on="0"/>
        <pt x="117" y="741" on="1"/>
        <pt x="117" y="678" on="0"/>
        <pt x="139" y="543" on="0"/>
        <pt x="193" y="420" on="0"/>
        <pt x="281" y="317" on="0"/>
        <pt x="348" y="291" on="1"/>
        <pt x="348" y="0" on="1"/>
        <pt x="0" y="0" on="1"/>
        <pt x="0" y="117" on="1"/>
        <pt x="211" y="117" on="1"/>
        <pt x="211" y="231" on="1"/>
        <pt x="90" y="317" on="0"/>
        <pt x="-20" y="592" on="0"/>
        <pt x="-20" y="741" on="1"/>
        <pt x="-20" y="854" on="0"/>
        <pt x="43" y="1067" on="0"/>
        <pt x="166" y="1229" on="0"/>
        <pt x="348" y="1327" on="0"/>
        <pt x="467" y="1327" on="1"/>
        <pt x="586" y="1327" on="0"/>
        <pt x="768" y="1229" on="0"/>
        <pt x="893" y="1067" on="0"/>
        <pt x="956" y="854" on="0"/>
      </contour>
    </TTGlyph>
    <TTGlyph name="Omegatonos" xMin="-165" yMin="0" xMax="956" yMax="1583">
      <component glyphName="Omega" x="0" y="0" flags="0x200"/>
      <component glyphName="tonos" x="-562" y="0" flags="0x0"/>
    </TTGlyph>
    <TTGlyph name="Omicron" xMin="-33" yMin="-23" xMax="967" yMax="1327">
      <contour>
        <pt x="967" y="651" on="1"/>
        <pt x="967" y="520" on="0"/>
        <pt x="913" y="276" on="0"/>
        <pt x="795" y="90" on="0"/>
        <pt x="604" y="-23" on="0"/>
        <pt x="467" y="-23" on="1"/>
        <pt x="330" y="-23" on="0"/>
        <pt x="139" y="90" on="0"/>
        <pt x="20" y="276" on="0"/>
        <pt x="-33" y="520" on="0"/>
        <pt x="-33" y="651" on="1"/>
        <pt x="-33" y="782" on="0"/>
        <pt x="20" y="1026" on="0"/>
        <pt x="141" y="1214" on="0"/>
        <pt x="332" y="1327" on="0"/>
        <pt x="467" y="1327" on="1"/>
        <pt x="602" y="1327" on="0"/>
        <pt x="793" y="1214" on="0"/>
        <pt x="911" y="1026" on="0"/>
        <pt x="967" y="782" on="0"/>
      </contour>
      <contour>
        <pt x="829" y="651" on="1"/>
        <pt x="829" y="780" on="0"/>
        <pt x="780" y="987" on="0"/>
        <pt x="688" y="1133" on="0"/>
        <pt x="553" y="1210" on="0"/>
        <pt x="467" y="1210" on="1"/>
        <pt x="360" y="1210" on="0"/>
        <pt x="221" y="1110" on="0"/>
        <pt x="137" y="948" on="0"/>
        <pt x="104" y="750" on="0"/>
        <pt x="104" y="651" on="1"/>
        <pt x="104" y="553" on="0"/>
        <pt x="137" y="354" on="0"/>
        <pt x="221" y="195" on="0"/>
        <pt x="360" y="94" on="0"/>
        <pt x="467" y="94" on="1"/>
        <pt x="573" y="94" on="0"/>
        <pt x="713" y="195" on="0"/>
        <pt x="797" y="354" on="0"/>
        <pt x="829" y="553" on="0"/>
      </contour>
    </TTGlyph>
    <TTGlyph name="Omicrontonos" xMin="-165" yMin="-23" xMax="967" yMax="1583">
      <component glyphName="Omicron" x="0" y="0" flags="0x200"/>
      <component glyphName="tonos" x="-562" y="0" flags="0x0"/>
    </TTGlyph>
    <TTGlyph name="Oslash" xMin="-45" yMin="-23" xMax="979" yMax="1327">
      <contour>
        <pt x="-45" y="188" on="1"/>
        <pt x="33" y="272" on="1"/>
        <pt x="-2" y="356" on="0"/>
        <pt x="-33" y="547" on="0"/>
        <pt x="-33" y="651" on="1"/>
        <pt x="-33" y="782" on="0"/>
        <pt x="20" y="1026" on="0"/>
        <pt x="141" y="1214" on="0"/>
        <pt x="332" y="1327" on="0"/>
        <pt x="467" y="1327" on="1"/>
        <pt x="598" y="1327" on="0"/>
        <pt x="784" y="1221" on="0"/>
        <pt x="844" y="1130" on="1"/>
        <pt x="979" y="1276" on="1"/>
        <pt x="979" y="1116" on="1"/>
        <pt x="897" y="1030" on="1"/>
        <pt x="932" y="946" on="0"/>
        <pt x="967" y="756" on="0"/>
        <pt x="967" y="651" on="1"/>
        <pt x="967" y="520" on="0"/>
        <pt x="913" y="276" on="0"/>
        <pt x="795" y="90" on="0"/>
        <pt x="604" y="-23" on="0"/>
        <pt x="467" y="-23" on="1"/>
        <pt x="332" y="-23" on="0"/>
        <pt x="147" y="80" on="0"/>
        <pt x="88" y="170" on="1"/>
        <pt x="-45" y="29" on="1"/>
      </contour>
      <contour>
        <pt x="829" y="651" on="1"/>
        <pt x="829" y="801" on="0"/>
        <pt x="795" y="922" on="1"/>
        <pt x="180" y="268" on="1"/>
        <pt x="221" y="190" on="0"/>
        <pt x="360" y="94" on="0"/>
        <pt x="467" y="94" on="1"/>
        <pt x="573" y="94" on="0"/>
        <pt x="713" y="195" on="0"/>
        <pt x="797" y="354" on="0"/>
        <pt x="829" y="553" on="0"/>
      </contour>
      <contour>
        <pt x="104" y="651" on="1"/>
        <pt x="104" y="582" on="0"/>
        <pt x="119" y="444" on="0"/>
        <pt x="137" y="381" on="1"/>
        <pt x="750" y="1032" on="1"/>
        <pt x="702" y="1118" on="0"/>
        <pt x="561" y="1210" on="0"/>
        <pt x="467" y="1210" on="1"/>
        <pt x="360" y="1210" on="0"/>
        <pt x="221" y="1110" on="0"/>
        <pt x="137" y="948" on="0"/>
        <pt x="104" y="750" on="0"/>
      </contour>
    </TTGlyph>
    <TTGlyph name="Oslashacute" xMin="-45" yMin="-23" xMax="979" yMax="1739">
      <component glyphName="Oslash" x="0" y="0" flags="0x204"/>
      <component glyphName="acute" x="0" y="375" flags="0x4"/>
    </TTGlyph>
    <TTGlyph name="Otilde" xMin="-33" yMin="-23" xMax="967" yMax="1651">
      <component glyphName="O" x="0" y="0" flags="0x204"/>
      <component glyphName="tilde" x="0" y="371" flags="0x4"/>
    </TTGlyph>
    <TTGlyph name="P" xMin="49" yMin="0" xMax="930" yMax="1305">
      <contour>
        <pt x="930" y="932" on="1"/>
        <pt x="930" y="743" on="0"/>
        <pt x="694" y="559" on="0"/>
        <pt x="481" y="559" on="1"/>
        <pt x="186" y="559" on="1"/>
        <pt x="186" y="0" on="1"/>
        <pt x="49" y="0" on="1"/>
        <pt x="49" y="1305" on="1"/>
        <pt x="479" y="1305" on="1"/>
        <pt x="694" y="1305" on="0"/>
        <pt x="930" y="1118" on="0"/>
      </contour>
      <contour>
        <pt x="793" y="932" on="1"/>
        <pt x="793" y="1067" on="0"/>
        <pt x="623" y="1188" on="0"/>
        <pt x="481" y="1188" on="1"/>
        <pt x="186" y="1188" on="1"/>
        <pt x="186" y="676" on="1"/>
        <pt x="481" y="676" on="1"/>
        <pt x="623" y="676" on="0"/>
        <pt x="793" y="797" on="0"/>
      </contour>
    </TTGlyph>
    <TTGlyph name="Phi" xMin="-20" yMin="0" xMax="956" yMax="1305">
      <contour>
        <pt x="956" y="655" on="1"/>
        <pt x="956" y="557" on="0"/>
        <pt x="895" y="389" on="0"/>
        <pt x="784" y="262" on="0"/>
        <pt x="629" y="182" on="0"/>
        <pt x="535" y="172" on="1"/>
        <pt x="535" y="0" on="1"/>
        <pt x="397" y="0" on="1"/>
        <pt x="397" y="174" on="1"/>
        <pt x="303" y="184" on="0"/>
        <pt x="150" y="264" on="0"/>
        <pt x="39" y="389" on="0"/>
        <pt x="-20" y="557" on="0"/>
        <pt x="-20" y="655" on="1"/>
        <pt x="-20" y="754" on="0"/>
        <pt x="39" y="922" on="0"/>
        <pt x="150" y="1051" on="0"/>
        <pt x="303" y="1130" on="0"/>
        <pt x="397" y="1143" on="1"/>
        <pt x="397" y="1305" on="1"/>
        <pt x="535" y="1305" on="1"/>
        <pt x="535" y="1143" on="1"/>
        <pt x="629" y="1133" on="0"/>
        <pt x="784" y="1051" on="0"/>
        <pt x="895" y="924" on="0"/>
        <pt x="956" y="754" on="0"/>
      </contour>
      <contour>
        <pt x="819" y="655" on="1"/>
        <pt x="819" y="725" on="0"/>
        <pt x="780" y="850" on="0"/>
        <pt x="709" y="948" on="0"/>
        <pt x="602" y="1012" on="0"/>
        <pt x="535" y="1024" on="1"/>
        <pt x="535" y="293" on="1"/>
        <pt x="670" y="315" on="0"/>
        <pt x="819" y="514" on="0"/>
      </contour>
      <contour>
        <pt x="117" y="655" on="1"/>
        <pt x="117" y="514" on="0"/>
        <pt x="262" y="315" on="0"/>
        <pt x="397" y="293" on="1"/>
        <pt x="397" y="1024" on="1"/>
        <pt x="330" y="1012" on="0"/>
        <pt x="225" y="946" on="0"/>
        <pt x="154" y="850" on="0"/>
        <pt x="117" y="725" on="0"/>
      </contour>
    </TTGlyph>
    <TTGlyph name="Pi" xMin="49" yMin="0" xMax="883" yMax="1305">
      <contour>
        <pt x="883" y="0" on="1"/>
        <pt x="745" y="0" on="1"/>
        <pt x="745" y="1188" on="1"/>
        <pt x="186" y="1188" on="1"/>
        <pt x="186" y="0" on="1"/>
        <pt x="49" y="0" on="1"/>
        <pt x="49" y="1305" on="1"/>
        <pt x="883" y="1305" on="1"/>
      </contour>
    </TTGlyph>
    <TTGlyph name="Psi" xMin="49" yMin="0" xMax="883" yMax="1305">
      <contour>
        <pt x="883" y="807" on="1"/>
        <pt x="883" y="602" on="0"/>
        <pt x="715" y="346" on="0"/>
        <pt x="535" y="324" on="1"/>
        <pt x="535" y="0" on="1"/>
        <pt x="397" y="0" on="1"/>
        <pt x="397" y="324" on="1"/>
        <pt x="215" y="346" on="0"/>
        <pt x="49" y="604" on="0"/>
        <pt x="49" y="809" on="1"/>
        <pt x="49" y="1305" on="1"/>
        <pt x="186" y="1305" on="1"/>
        <pt x="186" y="807" on="1"/>
        <pt x="186" y="754" on="0"/>
        <pt x="203" y="637" on="0"/>
        <pt x="248" y="535" on="0"/>
        <pt x="330" y="457" on="0"/>
        <pt x="397" y="442" on="1"/>
        <pt x="397" y="1305" on="1"/>
        <pt x="535" y="1305" on="1"/>
        <pt x="535" y="442" on="1"/>
        <pt x="600" y="457" on="0"/>
        <pt x="682" y="535" on="0"/>
        <pt x="729" y="637" on="0"/>
        <pt x="745" y="754" on="0"/>
        <pt x="745" y="807" on="1"/>
        <pt x="745" y="1305" on="1"/>
        <pt x="883" y="1305" on="1"/>
      </contour>
    </TTGlyph>
    <TTGlyph name="Q" xMin="-33" yMin="-371" xMax="967" yMax="1327">
      <contour>
        <pt x="967" y="651" on="1"/>
        <pt x="967" y="526" on="0"/>
        <pt x="920" y="295" on="0"/>
        <pt x="815" y="113" on="0"/>
        <pt x="647" y="-6" on="0"/>
        <pt x="528" y="-18" on="1"/>
        <pt x="551" y="-152" on="0"/>
        <pt x="690" y="-254" on="0"/>
        <pt x="825" y="-254" on="1"/>
        <pt x="860" y="-254" on="0"/>
        <pt x="909" y="-252" on="0"/>
        <pt x="932" y="-250" on="1"/>
        <pt x="932" y="-367" on="1"/>
        <pt x="903" y="-369" on="0"/>
        <pt x="850" y="-371" on="0"/>
        <pt x="825" y="-371" on="1"/>
        <pt x="621" y="-371" on="0"/>
        <pt x="414" y="-197" on="0"/>
        <pt x="391" y="-16" on="1"/>
        <pt x="281" y="-2" on="0"/>
        <pt x="119" y="113" on="0"/>
        <pt x="16" y="291" on="0"/>
        <pt x="-33" y="522" on="0"/>
        <pt x="-33" y="651" on="1"/>
        <pt x="-33" y="782" on="0"/>
        <pt x="20" y="1026" on="0"/>
        <pt x="141" y="1214" on="0"/>
        <pt x="332" y="1327" on="0"/>
        <pt x="467" y="1327" on="1"/>
        <pt x="602" y="1327" on="0"/>
        <pt x="793" y="1214" on="0"/>
        <pt x="911" y="1026" on="0"/>
        <pt x="967" y="782" on="0"/>
      </contour>
      <contour>
        <pt x="829" y="651" on="1"/>
        <pt x="829" y="750" on="0"/>
        <pt x="795" y="948" on="0"/>
        <pt x="713" y="1110" on="0"/>
        <pt x="571" y="1210" on="0"/>
        <pt x="467" y="1210" on="1"/>
        <pt x="360" y="1210" on="0"/>
        <pt x="221" y="1110" on="0"/>
        <pt x="137" y="948" on="0"/>
        <pt x="104" y="750" on="0"/>
        <pt x="104" y="651" on="1"/>
        <pt x="104" y="391" on="0"/>
        <pt x="293" y="94" on="0"/>
        <pt x="467" y="94" on="1"/>
        <pt x="639" y="94" on="0"/>
        <pt x="829" y="391" on="0"/>
      </contour>
    </TTGlyph>
    <TTGlyph name="R" xMin="49" yMin="0" xMax="944" yMax="1305">
      <contour>
        <pt x="944" y="0" on="1"/>
        <pt x="770" y="0" on="1"/>
        <pt x="389" y="559" on="1"/>
        <pt x="186" y="559" on="1"/>
        <pt x="186" y="0" on="1"/>
        <pt x="49" y="0" on="1"/>
        <pt x="49" y="1305" on="1"/>
        <pt x="479" y="1305" on="1"/>
        <pt x="694" y="1305" on="0"/>
        <pt x="930" y="1118" on="0"/>
        <pt x="930" y="932" on="1"/>
        <pt x="930" y="850" on="0"/>
        <pt x="872" y="719" on="0"/>
        <pt x="772" y="627" on="0"/>
        <pt x="633" y="571" on="0"/>
        <pt x="551" y="565" on="1"/>
      </contour>
      <contour>
        <pt x="788" y="932" on="1"/>
        <pt x="788" y="1065" on="0"/>
        <pt x="623" y="1188" on="0"/>
        <pt x="479" y="1188" on="1"/>
        <pt x="186" y="1188" on="1"/>
        <pt x="186" y="676" on="1"/>
        <pt x="479" y="676" on="1"/>
        <pt x="623" y="676" on="0"/>
        <pt x="788" y="797" on="0"/>
      </contour>
    </TTGlyph>
    <TTGlyph name="Racute" xMin="49" yMin="0" xMax="944" yMax="1735">
      <component glyphName="R" x="0" y="0" flags="0x204"/>
      <component glyphName="acute" x="0" y="371" flags="0x4"/>
    </TTGlyph>
    <TTGlyph name="Rcaron" xMin="49" yMin="0" xMax="944" yMax="1739">
      <component glyphName="R" x="0" y="0" flags="0x204"/>
      <component glyphName="caron" x="0" y="371" flags="0x4"/>
    </TTGlyph>
    <TTGlyph name="Rcommaaccent" xMin="49" yMin="-373" xMax="944" yMax="1305">
      <component glyphName="R" x="0" y="0" flags="0x204"/>
      <component glyphName="commaaccent" x="0" y="0" flags="0x4"/>
    </TTGlyph>
    <TTGlyph name="Rho" xMin="49" yMin="0" xMax="930" yMax="1305">
      <contour>
        <pt x="930" y="932" on="1"/>
        <pt x="930" y="743" on="0"/>
        <pt x="694" y="559" on="0"/>
        <pt x="481" y="559" on="1"/>
        <pt x="186" y="559" on="1"/>
        <pt x="186" y="0" on="1"/>
        <pt x="49" y="0" on="1"/>
        <pt x="49" y="1305" on="1"/>
        <pt x="479" y="1305" on="1"/>
        <pt x="694" y="1305" on="0"/>
        <pt x="930" y="1118" on="0"/>
      </contour>
      <contour>
        <pt x="793" y="932" on="1"/>
        <pt x="793" y="1067" on="0"/>
        <pt x="623" y="1188" on="0"/>
        <pt x="481" y="1188" on="1"/>
        <pt x="186" y="1188" on="1"/>
        <pt x="186" y="676" on="1"/>
        <pt x="481" y="676" on="1"/>
        <pt x="623" y="676" on="0"/>
        <pt x="793" y="797" on="0"/>
      </contour>
    </TTGlyph>
    <TTGlyph name="S" xMin="25" yMin="-23" xMax="899" yMax="1327">
      <contour>
        <pt x="899" y="340" on="1"/>
        <pt x="899" y="258" on="0"/>
        <pt x="831" y="125" on="0"/>
        <pt x="717" y="29" on="0"/>
        <pt x="569" y="-23" on="0"/>
        <pt x="489" y="-23" on="1"/>
        <pt x="379" y="-23" on="0"/>
        <pt x="195" y="59" on="0"/>
        <pt x="141" y="139" on="1"/>
        <pt x="141" y="0" on="1"/>
        <pt x="25" y="0" on="1"/>
        <pt x="25" y="397" on="1"/>
        <pt x="141" y="397" on="1"/>
        <pt x="141" y="330" on="0"/>
        <pt x="203" y="219" on="0"/>
        <pt x="299" y="139" on="0"/>
        <pt x="424" y="94" on="0"/>
        <pt x="489" y="94" on="1"/>
        <pt x="547" y="94" on="0"/>
        <pt x="645" y="127" on="0"/>
        <pt x="719" y="188" on="0"/>
        <pt x="762" y="276" on="0"/>
        <pt x="762" y="332" on="1"/>
        <pt x="762" y="395" on="0"/>
        <pt x="707" y="485" on="0"/>
        <pt x="614" y="549" on="0"/>
        <pt x="498" y="594" on="0"/>
        <pt x="438" y="616" on="1"/>
        <pt x="367" y="641" on="0"/>
        <pt x="225" y="696" on="0"/>
        <pt x="113" y="780" on="0"/>
        <pt x="43" y="901" on="0"/>
        <pt x="43" y="991" on="1"/>
        <pt x="43" y="1071" on="0"/>
        <pt x="111" y="1196" on="0"/>
        <pt x="221" y="1282" on="0"/>
        <pt x="367" y="1327" on="0"/>
        <pt x="444" y="1327" on="1"/>
        <pt x="539" y="1327" on="0"/>
        <pt x="700" y="1249" on="0"/>
        <pt x="745" y="1169" on="1"/>
        <pt x="745" y="1305" on="1"/>
        <pt x="866" y="1305" on="1"/>
        <pt x="866" y="932" on="1"/>
        <pt x="745" y="932" on="1"/>
        <pt x="745" y="991" on="0"/>
        <pt x="696" y="1094" on="0"/>
        <pt x="612" y="1167" on="0"/>
        <pt x="504" y="1210" on="0"/>
        <pt x="444" y="1210" on="1"/>
        <pt x="391" y="1210" on="0"/>
        <pt x="295" y="1186" on="0"/>
        <pt x="223" y="1133" on="0"/>
        <pt x="180" y="1049" on="0"/>
        <pt x="180" y="991" on="1"/>
        <pt x="180" y="940" on="0"/>
        <pt x="231" y="868" on="0"/>
        <pt x="317" y="813" on="0"/>
        <pt x="430" y="768" on="0"/>
        <pt x="489" y="745" on="1"/>
        <pt x="563" y="719" on="0"/>
        <pt x="709" y="655" on="0"/>
        <pt x="825" y="565" on="0"/>
        <pt x="899" y="434" on="0"/>
      </contour>
    </TTGlyph>
    <TTGlyph name="SF010000" xMin="397" yMin="-373" xMax="1118" yMax="721">
      <contour>
        <pt x="397" y="721" on="1"/>
        <pt x="1118" y="721" on="1"/>
        <pt x="1118" y="584" on="1"/>
        <pt x="535" y="584" on="1"/>
        <pt x="535" y="-373" on="1"/>
        <pt x="397" y="-373" on="1"/>
      </contour>
    </TTGlyph>
    <TTGlyph name="SF020000" xMin="397" yMin="584" xMax="1118" yMax="1675">
      <contour>
        <pt x="397" y="1675" on="1"/>
        <pt x="535" y="1675" on="1"/>
        <pt x="535" y="721" on="1"/>
        <pt x="1118" y="721" on="1"/>
        <pt x="1118" y="584" on="1"/>
        <pt x="397" y="584" on="1"/>
      </contour>
    </TTGlyph>
    <TTGlyph name="SF030000" xMin="0" yMin="-373" xMax="535" yMax="721">
      <contour>
        <pt x="0" y="584" on="1"/>
        <pt x="0" y="721" on="1"/>
        <pt x="535" y="721" on="1"/>
        <pt x="535" y="-373" on="1"/>
        <pt x="397" y="-373" on="1"/>
        <pt x="397" y="584" on="1"/>
      </contour>
    </TTGlyph>
    <TTGlyph name="SF040000" xMin="0" yMin="584" xMax="535" yMax="1675">
      <contour>
        <pt x="0" y="584" on="1"/>
        <pt x="0" y="721" on="1"/>
        <pt x="397" y="721" on="1"/>
        <pt x="397" y="1675" on="1"/>
        <pt x="535" y="1675" on="1"/>
        <pt x="535" y="584" on="1"/>
      </contour>
    </TTGlyph>
    <TTGlyph name="SF050000" xMin="0" yMin="-373" xMax="1118" yMax="1675">
      <contour>
        <pt x="0" y="584" on="1"/>
        <pt x="0" y="721" on="1"/>
        <pt x="397" y="721" on="1"/>
        <pt x="397" y="1675" on="1"/>
        <pt x="535" y="1675" on="1"/>
        <pt x="535" y="721" on="1"/>
        <pt x="1118" y="721" on="1"/>
        <pt x="1118" y="584" on="1"/>
        <pt x="535" y="584" on="1"/>
        <pt x="535" y="-373" on="1"/>
        <pt x="397" y="-373" on="1"/>
        <pt x="397" y="584" on="1"/>
      </contour>
    </TTGlyph>
    <TTGlyph name="SF060000" xMin="0" yMin="-373" xMax="1118" yMax="721">
      <contour>
        <pt x="0" y="584" on="1"/>
        <pt x="0" y="721" on="1"/>
        <pt x="1118" y="721" on="1"/>
        <pt x="1118" y="584" on="1"/>
        <pt x="535" y="584" on="1"/>
        <pt x="535" y="-373" on="1"/>
        <pt x="397" y="-373" on="1"/>
        <pt x="397" y="584" on="1"/>
      </contour>
    </TTGlyph>
    <TTGlyph name="SF070000" xMin="0" yMin="584" xMax="1118" yMax="1675">
      <contour>
        <pt x="0" y="584" on="1"/>
        <pt x="0" y="721" on="1"/>
        <pt x="397" y="721" on="1"/>
        <pt x="397" y="1675" on="1"/>
        <pt x="535" y="1675" on="1"/>
        <pt x="535" y="721" on="1"/>
        <pt x="1118" y="721" on="1"/>
        <pt x="1118" y="584" on="1"/>
      </contour>
    </TTGlyph>
    <TTGlyph name="SF080000" xMin="397" yMin="-373" xMax="1118" yMax="1675">
      <contour>
        <pt x="397" y="1675" on="1"/>
        <pt x="535" y="1675" on="1"/>
        <pt x="535" y="721" on="1"/>
        <pt x="1118" y="721" on="1"/>
        <pt x="1118" y="584" on="1"/>
        <pt x="535" y="584" on="1"/>
        <pt x="535" y="-373" on="1"/>
        <pt x="397" y="-373" on="1"/>
      </contour>
    </TTGlyph>
    <TTGlyph name="SF090000" xMin="0" yMin="-373" xMax="535" yMax="1675">
      <contour>
        <pt x="535" y="-373" on="1"/>
        <pt x="397" y="-373" on="1"/>
        <pt x="397" y="584" on="1"/>
        <pt x="0" y="584" on="1"/>
        <pt x="0" y="721" on="1"/>
        <pt x="397" y="721" on="1"/>
        <pt x="397" y="1675" on="1"/>
        <pt x="535" y="1675" on="1"/>
      </contour>
    </TTGlyph>
    <TTGlyph name="SF100000" xMin="0" yMin="584" xMax="1118" yMax="721">
      <contour>
        <pt x="0" y="584" on="1"/>
        <pt x="0" y="721" on="1"/>
        <pt x="1118" y="721" on="1"/>
        <pt x="1118" y="584" on="1"/>
      </contour>
    </TTGlyph>
    <TTGlyph name="SF110000" xMin="397" yMin="-373" xMax="535" yMax="1675">
      <contour>
        <pt x="397" y="1675" on="1"/>
        <pt x="535" y="1675" on="1"/>
        <pt x="535" y="-373" on="1"/>
        <pt x="397" y="-373" on="1"/>
      </contour>
    </TTGlyph>
    <TTGlyph name="SF190000" xMin="0" yMin="-373" xMax="535" yMax="1675">
      <contour>
        <pt x="0" y="770" on="1"/>
        <pt x="0" y="907" on="1"/>
        <pt x="397" y="907" on="1"/>
        <pt x="397" y="1675" on="1"/>
        <pt x="535" y="1675" on="1"/>
        <pt x="535" y="770" on="1"/>
      </contour>
      <contour>
        <pt x="535" y="535" on="1"/>
        <pt x="535" y="-373" on="1"/>
        <pt x="397" y="-373" on="1"/>
        <pt x="397" y="397" on="1"/>
        <pt x="0" y="397" on="1"/>
        <pt x="0" y="535" on="1"/>
      </contour>
    </TTGlyph>
    <TTGlyph name="SF200000" xMin="0" yMin="-373" xMax="721" yMax="1675">
      <contour>
        <pt x="348" y="-373" on="1"/>
        <pt x="211" y="-373" on="1"/>
        <pt x="211" y="584" on="1"/>
        <pt x="0" y="584" on="1"/>
        <pt x="0" y="721" on="1"/>
        <pt x="211" y="721" on="1"/>
        <pt x="211" y="1675" on="1"/>
        <pt x="348" y="1675" on="1"/>
      </contour>
      <contour>
        <pt x="584" y="1675" on="1"/>
        <pt x="721" y="1675" on="1"/>
        <pt x="721" y="-373" on="1"/>
        <pt x="584" y="-373" on="1"/>
      </contour>
    </TTGlyph>
    <TTGlyph name="SF210000" xMin="0" yMin="-373" xMax="721" yMax="721">
      <contour>
        <pt x="348" y="721" on="1"/>
        <pt x="348" y="348" on="1"/>
        <pt x="721" y="348" on="1"/>
        <pt x="721" y="-373" on="1"/>
        <pt x="584" y="-373" on="1"/>
        <pt x="584" y="211" on="1"/>
        <pt x="348" y="211" on="1"/>
        <pt x="348" y="-373" on="1"/>
        <pt x="211" y="-373" on="1"/>
        <pt x="211" y="584" on="1"/>
        <pt x="0" y="584" on="1"/>
        <pt x="0" y="721" on="1"/>
      </contour>
    </TTGlyph>
    <TTGlyph name="SF220000" xMin="0" yMin="-373" xMax="535" yMax="907">
      <contour>
        <pt x="0" y="397" on="1"/>
        <pt x="0" y="535" on="1"/>
        <pt x="211" y="535" on="1"/>
        <pt x="211" y="770" on="1"/>
        <pt x="0" y="770" on="1"/>
        <pt x="0" y="907" on="1"/>
        <pt x="348" y="907" on="1"/>
        <pt x="348" y="535" on="1"/>
        <pt x="535" y="535" on="1"/>
        <pt x="535" y="-373" on="1"/>
        <pt x="397" y="-373" on="1"/>
        <pt x="397" y="397" on="1"/>
      </contour>
    </TTGlyph>
    <TTGlyph name="SF230000" xMin="0" yMin="-373" xMax="721" yMax="1675">
      <contour>
        <pt x="0" y="770" on="1"/>
        <pt x="0" y="907" on="1"/>
        <pt x="211" y="907" on="1"/>
        <pt x="211" y="1675" on="1"/>
        <pt x="348" y="1675" on="1"/>
        <pt x="348" y="770" on="1"/>
      </contour>
      <contour>
        <pt x="348" y="535" on="1"/>
        <pt x="348" y="-373" on="1"/>
        <pt x="211" y="-373" on="1"/>
        <pt x="211" y="397" on="1"/>
        <pt x="0" y="397" on="1"/>
        <pt x="0" y="535" on="1"/>
      </contour>
      <contour>
        <pt x="584" y="1675" on="1"/>
        <pt x="721" y="1675" on="1"/>
        <pt x="721" y="-373" on="1"/>
        <pt x="584" y="-373" on="1"/>
      </contour>
    </TTGlyph>
    <TTGlyph name="SF240000" xMin="211" yMin="-373" xMax="721" yMax="1675">
      <contour>
        <pt x="348" y="-373" on="1"/>
        <pt x="211" y="-373" on="1"/>
        <pt x="211" y="1675" on="1"/>
        <pt x="348" y="1675" on="1"/>
      </contour>
      <contour>
        <pt x="584" y="1675" on="1"/>
        <pt x="721" y="1675" on="1"/>
        <pt x="721" y="-373" on="1"/>
        <pt x="584" y="-373" on="1"/>
      </contour>
    </TTGlyph>
    <TTGlyph name="SF250000" xMin="0" yMin="-373" xMax="721" yMax="907">
      <contour>
        <pt x="584" y="770" on="1"/>
        <pt x="0" y="770" on="1"/>
        <pt x="0" y="907" on="1"/>
        <pt x="721" y="907" on="1"/>
        <pt x="721" y="-373" on="1"/>
        <pt x="584" y="-373" on="1"/>
      </contour>
      <contour>
        <pt x="348" y="535" on="1"/>
        <pt x="348" y="-373" on="1"/>
        <pt x="211" y="-373" on="1"/>
        <pt x="211" y="397" on="1"/>
        <pt x="0" y="397" on="1"/>
        <pt x="0" y="535" on="1"/>
      </contour>
    </TTGlyph>
    <TTGlyph name="SF260000" xMin="0" yMin="397" xMax="721" yMax="1675">
      <contour>
        <pt x="0" y="770" on="1"/>
        <pt x="0" y="907" on="1"/>
        <pt x="211" y="907" on="1"/>
        <pt x="211" y="1675" on="1"/>
        <pt x="348" y="1675" on="1"/>
        <pt x="348" y="770" on="1"/>
      </contour>
      <contour>
        <pt x="584" y="535" on="1"/>
        <pt x="584" y="1675" on="1"/>
        <pt x="721" y="1675" on="1"/>
        <pt x="721" y="397" on="1"/>
        <pt x="0" y="397" on="1"/>
        <pt x="0" y="535" on="1"/>
      </contour>
    </TTGlyph>
    <TTGlyph name="SF270000" xMin="0" yMin="584" xMax="721" yMax="1675">
      <contour>
        <pt x="0" y="584" on="1"/>
        <pt x="0" y="721" on="1"/>
        <pt x="211" y="721" on="1"/>
        <pt x="211" y="1675" on="1"/>
        <pt x="348" y="1675" on="1"/>
        <pt x="348" y="1094" on="1"/>
        <pt x="584" y="1094" on="1"/>
        <pt x="584" y="1675" on="1"/>
        <pt x="721" y="1675" on="1"/>
        <pt x="721" y="956" on="1"/>
        <pt x="348" y="956" on="1"/>
        <pt x="348" y="584" on="1"/>
      </contour>
    </TTGlyph>
    <TTGlyph name="SF280000" xMin="0" yMin="397" xMax="535" yMax="1675">
      <contour>
        <pt x="25" y="537" on="1"/>
        <pt x="25" y="770" on="1"/>
        <pt x="0" y="770" on="1"/>
        <pt x="0" y="907" on="1"/>
        <pt x="397" y="907" on="1"/>
        <pt x="397" y="1675" on="1"/>
        <pt x="535" y="1675" on="1"/>
        <pt x="535" y="770" on="1"/>
        <pt x="162" y="770" on="1"/>
        <pt x="162" y="397" on="1"/>
        <pt x="0" y="397" on="1"/>
        <pt x="0" y="537" on="1"/>
      </contour>
    </TTGlyph>
    <TTGlyph name="SF360000" xMin="397" yMin="-373" xMax="1118" yMax="1675">
      <contour>
        <pt x="397" y="770" on="1"/>
        <pt x="397" y="1675" on="1"/>
        <pt x="535" y="1675" on="1"/>
        <pt x="535" y="907" on="1"/>
        <pt x="1118" y="907" on="1"/>
        <pt x="1118" y="770" on="1"/>
      </contour>
      <contour>
        <pt x="1118" y="535" on="1"/>
        <pt x="1118" y="397" on="1"/>
        <pt x="535" y="397" on="1"/>
        <pt x="535" y="-373" on="1"/>
        <pt x="397" y="-373" on="1"/>
        <pt x="397" y="535" on="1"/>
      </contour>
    </TTGlyph>
    <TTGlyph name="SF370000" xMin="211" yMin="-373" xMax="1118" yMax="1675">
      <contour>
        <pt x="348" y="-373" on="1"/>
        <pt x="211" y="-373" on="1"/>
        <pt x="211" y="1675" on="1"/>
        <pt x="348" y="1675" on="1"/>
      </contour>
      <contour>
        <pt x="584" y="1675" on="1"/>
        <pt x="721" y="1675" on="1"/>
        <pt x="721" y="721" on="1"/>
        <pt x="1118" y="721" on="1"/>
        <pt x="1118" y="584" on="1"/>
        <pt x="721" y="584" on="1"/>
        <pt x="721" y="-373" on="1"/>
        <pt x="584" y="-373" on="1"/>
      </contour>
    </TTGlyph>
    <TTGlyph name="SF380000" xMin="211" yMin="397" xMax="1118" yMax="1675">
      <contour>
        <pt x="211" y="397" on="1"/>
        <pt x="211" y="1675" on="1"/>
        <pt x="348" y="1675" on="1"/>
        <pt x="348" y="535" on="1"/>
        <pt x="1118" y="535" on="1"/>
        <pt x="1118" y="397" on="1"/>
      </contour>
      <contour>
        <pt x="584" y="770" on="1"/>
        <pt x="584" y="1675" on="1"/>
        <pt x="721" y="1675" on="1"/>
        <pt x="721" y="907" on="1"/>
        <pt x="1118" y="907" on="1"/>
        <pt x="1118" y="770" on="1"/>
      </contour>
    </TTGlyph>
    <TTGlyph name="SF390000" xMin="211" yMin="-373" xMax="1118" yMax="907">
      <contour>
        <pt x="348" y="770" on="1"/>
        <pt x="348" y="-373" on="1"/>
        <pt x="211" y="-373" on="1"/>
        <pt x="211" y="907" on="1"/>
        <pt x="1118" y="907" on="1"/>
        <pt x="1118" y="770" on="1"/>
      </contour>
      <contour>
        <pt x="1118" y="535" on="1"/>
        <pt x="1118" y="397" on="1"/>
        <pt x="721" y="397" on="1"/>
        <pt x="721" y="-373" on="1"/>
        <pt x="584" y="-373" on="1"/>
        <pt x="584" y="535" on="1"/>
      </contour>
    </TTGlyph>
    <TTGlyph name="SF400000" xMin="0" yMin="397" xMax="1118" yMax="1675">
      <contour>
        <pt x="0" y="770" on="1"/>
        <pt x="0" y="907" on="1"/>
        <pt x="211" y="907" on="1"/>
        <pt x="211" y="1675" on="1"/>
        <pt x="348" y="1675" on="1"/>
        <pt x="348" y="770" on="1"/>
      </contour>
      <contour>
        <pt x="584" y="770" on="1"/>
        <pt x="584" y="1675" on="1"/>
        <pt x="721" y="1675" on="1"/>
        <pt x="721" y="907" on="1"/>
        <pt x="1118" y="907" on="1"/>
        <pt x="1118" y="770" on="1"/>
      </contour>
      <contour>
        <pt x="1118" y="535" on="1"/>
        <pt x="1118" y="397" on="1"/>
        <pt x="0" y="397" on="1"/>
        <pt x="0" y="535" on="1"/>
      </contour>
    </TTGlyph>
    <TTGlyph name="SF410000" xMin="0" yMin="-373" xMax="1118" yMax="907">
      <contour>
        <pt x="348" y="535" on="1"/>
        <pt x="348" y="-373" on="1"/>
        <pt x="211" y="-373" on="1"/>
        <pt x="211" y="397" on="1"/>
        <pt x="0" y="397" on="1"/>
        <pt x="0" y="535" on="1"/>
      </contour>
      <contour>
        <pt x="1118" y="907" on="1"/>
        <pt x="1118" y="770" on="1"/>
        <pt x="0" y="770" on="1"/>
        <pt x="0" y="907" on="1"/>
      </contour>
      <contour>
        <pt x="1118" y="535" on="1"/>
        <pt x="1118" y="397" on="1"/>
        <pt x="721" y="397" on="1"/>
        <pt x="721" y="-373" on="1"/>
        <pt x="584" y="-373" on="1"/>
        <pt x="584" y="535" on="1"/>
      </contour>
    </TTGlyph>
    <TTGlyph name="SF420000" xMin="211" yMin="-373" xMax="1118" yMax="1675">
      <contour>
        <pt x="348" y="-373" on="1"/>
        <pt x="211" y="-373" on="1"/>
        <pt x="211" y="1675" on="1"/>
        <pt x="348" y="1675" on="1"/>
      </contour>
      <contour>
        <pt x="584" y="770" on="1"/>
        <pt x="584" y="1675" on="1"/>
        <pt x="721" y="1675" on="1"/>
        <pt x="721" y="907" on="1"/>
        <pt x="1118" y="907" on="1"/>
        <pt x="1118" y="770" on="1"/>
      </contour>
      <contour>
        <pt x="1118" y="535" on="1"/>
        <pt x="1118" y="397" on="1"/>
        <pt x="721" y="397" on="1"/>
        <pt x="721" y="-373" on="1"/>
        <pt x="584" y="-373" on="1"/>
        <pt x="584" y="535" on="1"/>
      </contour>
    </TTGlyph>
    <TTGlyph name="SF430000" xMin="0" yMin="397" xMax="1118" yMax="907">
      <contour>
        <pt x="1118" y="907" on="1"/>
        <pt x="1118" y="770" on="1"/>
        <pt x="0" y="770" on="1"/>
        <pt x="0" y="907" on="1"/>
      </contour>
      <contour>
        <pt x="1118" y="535" on="1"/>
        <pt x="1118" y="397" on="1"/>
        <pt x="0" y="397" on="1"/>
        <pt x="0" y="535" on="1"/>
      </contour>
    </TTGlyph>
    <TTGlyph name="SF440000" xMin="0" yMin="-373" xMax="1118" yMax="1675">
      <contour>
        <pt x="0" y="770" on="1"/>
        <pt x="0" y="907" on="1"/>
        <pt x="211" y="907" on="1"/>
        <pt x="211" y="1675" on="1"/>
        <pt x="348" y="1675" on="1"/>
        <pt x="348" y="770" on="1"/>
      </contour>
      <contour>
        <pt x="348" y="535" on="1"/>
        <pt x="348" y="-373" on="1"/>
        <pt x="211" y="-373" on="1"/>
        <pt x="211" y="397" on="1"/>
        <pt x="0" y="397" on="1"/>
        <pt x="0" y="535" on="1"/>
      </contour>
      <contour>
        <pt x="582" y="770" on="1"/>
        <pt x="582" y="1675" on="1"/>
        <pt x="719" y="1675" on="1"/>
        <pt x="719" y="907" on="1"/>
        <pt x="1118" y="907" on="1"/>
        <pt x="1118" y="770" on="1"/>
      </contour>
      <contour>
        <pt x="1118" y="535" on="1"/>
        <pt x="1118" y="397" on="1"/>
        <pt x="719" y="397" on="1"/>
        <pt x="719" y="-373" on="1"/>
        <pt x="582" y="-373" on="1"/>
        <pt x="582" y="535" on="1"/>
      </contour>
    </TTGlyph>
    <TTGlyph name="SF450000" xMin="0" yMin="397" xMax="1118" yMax="1675">
      <contour>
        <pt x="0" y="770" on="1"/>
        <pt x="0" y="907" on="1"/>
        <pt x="397" y="907" on="1"/>
        <pt x="397" y="1675" on="1"/>
        <pt x="535" y="1675" on="1"/>
        <pt x="535" y="907" on="1"/>
        <pt x="1118" y="907" on="1"/>
        <pt x="1118" y="770" on="1"/>
      </contour>
      <contour>
        <pt x="1118" y="535" on="1"/>
        <pt x="1118" y="397" on="1"/>
        <pt x="0" y="397" on="1"/>
        <pt x="0" y="535" on="1"/>
      </contour>
    </TTGlyph>
    <TTGlyph name="SF460000" xMin="0" yMin="584" xMax="1118" yMax="1675">
      <contour>
        <pt x="0" y="584" on="1"/>
        <pt x="0" y="721" on="1"/>
        <pt x="211" y="721" on="1"/>
        <pt x="211" y="1675" on="1"/>
        <pt x="348" y="1675" on="1"/>
        <pt x="348" y="584" on="1"/>
      </contour>
      <contour>
        <pt x="584" y="584" on="1"/>
        <pt x="584" y="1675" on="1"/>
        <pt x="721" y="1675" on="1"/>
        <pt x="721" y="721" on="1"/>
        <pt x="1118" y="721" on="1"/>
        <pt x="1118" y="584" on="1"/>
      </contour>
    </TTGlyph>
    <TTGlyph name="SF470000" xMin="0" yMin="-373" xMax="1118" yMax="907">
      <contour>
        <pt x="0" y="397" on="1"/>
        <pt x="0" y="535" on="1"/>
        <pt x="1118" y="535" on="1"/>
        <pt x="1118" y="397" on="1"/>
        <pt x="535" y="397" on="1"/>
        <pt x="535" y="-373" on="1"/>
        <pt x="397" y="-373" on="1"/>
        <pt x="397" y="397" on="1"/>
      </contour>
      <contour>
        <pt x="1118" y="907" on="1"/>
        <pt x="1118" y="770" on="1"/>
        <pt x="0" y="770" on="1"/>
        <pt x="0" y="907" on="1"/>
      </contour>
    </TTGlyph>
    <TTGlyph name="SF480000" xMin="0" yMin="-373" xMax="1118" yMax="721">
      <contour>
        <pt x="348" y="721" on="1"/>
        <pt x="348" y="-373" on="1"/>
        <pt x="211" y="-373" on="1"/>
        <pt x="211" y="584" on="1"/>
        <pt x="0" y="584" on="1"/>
        <pt x="0" y="721" on="1"/>
      </contour>
      <contour>
        <pt x="1118" y="721" on="1"/>
        <pt x="1118" y="584" on="1"/>
        <pt x="721" y="584" on="1"/>
        <pt x="721" y="-373" on="1"/>
        <pt x="584" y="-373" on="1"/>
        <pt x="584" y="721" on="1"/>
      </contour>
    </TTGlyph>
    <TTGlyph name="SF490000" xMin="211" yMin="584" xMax="1118" yMax="1675">
      <contour>
        <pt x="584" y="584" on="1"/>
        <pt x="584" y="956" on="1"/>
        <pt x="211" y="956" on="1"/>
        <pt x="211" y="1675" on="1"/>
        <pt x="348" y="1675" on="1"/>
        <pt x="348" y="1094" on="1"/>
        <pt x="584" y="1094" on="1"/>
        <pt x="584" y="1675" on="1"/>
        <pt x="721" y="1675" on="1"/>
        <pt x="721" y="723" on="1"/>
        <pt x="1118" y="723" on="1"/>
        <pt x="1118" y="584" on="1"/>
      </contour>
    </TTGlyph>
    <TTGlyph name="SF500000" xMin="397" yMin="397" xMax="1118" yMax="1675">
      <contour>
        <pt x="770" y="397" on="1"/>
        <pt x="770" y="770" on="1"/>
        <pt x="397" y="770" on="1"/>
        <pt x="397" y="1675" on="1"/>
        <pt x="535" y="1675" on="1"/>
        <pt x="535" y="907" on="1"/>
        <pt x="1118" y="907" on="1"/>
        <pt x="1118" y="770" on="1"/>
        <pt x="907" y="770" on="1"/>
        <pt x="907" y="537" on="1"/>
        <pt x="1118" y="537" on="1"/>
        <pt x="1118" y="397" on="1"/>
      </contour>
    </TTGlyph>
    <TTGlyph name="SF510000" xMin="397" yMin="-373" xMax="1118" yMax="907">
      <contour>
        <pt x="1118" y="535" on="1"/>
        <pt x="1118" y="397" on="1"/>
        <pt x="535" y="397" on="1"/>
        <pt x="535" y="-373" on="1"/>
        <pt x="397" y="-373" on="1"/>
        <pt x="397" y="535" on="1"/>
        <pt x="770" y="535" on="1"/>
        <pt x="770" y="907" on="1"/>
        <pt x="1118" y="907" on="1"/>
        <pt x="1118" y="770" on="1"/>
        <pt x="907" y="770" on="1"/>
        <pt x="907" y="535" on="1"/>
      </contour>
    </TTGlyph>
    <TTGlyph name="SF520000" xMin="211" yMin="-373" xMax="1118" yMax="721">
      <contour>
        <pt x="1118" y="721" on="1"/>
        <pt x="1118" y="584" on="1"/>
        <pt x="721" y="584" on="1"/>
        <pt x="721" y="-373" on="1"/>
        <pt x="584" y="-373" on="1"/>
        <pt x="584" y="211" on="1"/>
        <pt x="348" y="211" on="1"/>
        <pt x="348" y="-373" on="1"/>
        <pt x="211" y="-373" on="1"/>
        <pt x="211" y="348" on="1"/>
        <pt x="584" y="348" on="1"/>
        <pt x="584" y="721" on="1"/>
      </contour>
    </TTGlyph>
    <TTGlyph name="SF530000" xMin="0" yMin="-373" xMax="1118" yMax="1675">
      <contour>
        <pt x="1118" y="721" on="1"/>
        <pt x="1118" y="584" on="1"/>
        <pt x="721" y="584" on="1"/>
        <pt x="721" y="-373" on="1"/>
        <pt x="584" y="-373" on="1"/>
        <pt x="584" y="1675" on="1"/>
        <pt x="721" y="1675" on="1"/>
        <pt x="721" y="721" on="1"/>
      </contour>
      <contour>
        <pt x="348" y="1675" on="1"/>
        <pt x="348" y="-373" on="1"/>
        <pt x="211" y="-373" on="1"/>
        <pt x="211" y="584" on="1"/>
        <pt x="0" y="584" on="1"/>
        <pt x="0" y="721" on="1"/>
        <pt x="211" y="721" on="1"/>
        <pt x="211" y="1675" on="1"/>
      </contour>
    </TTGlyph>
    <TTGlyph name="SF540000" xMin="0" yMin="-373" xMax="1118" yMax="1675">
      <contour>
        <pt x="0" y="770" on="1"/>
        <pt x="0" y="907" on="1"/>
        <pt x="397" y="907" on="1"/>
        <pt x="397" y="1675" on="1"/>
        <pt x="535" y="1675" on="1"/>
        <pt x="535" y="907" on="1"/>
        <pt x="1118" y="907" on="1"/>
        <pt x="1118" y="770" on="1"/>
      </contour>
      <contour>
        <pt x="1118" y="535" on="1"/>
        <pt x="1118" y="397" on="1"/>
        <pt x="535" y="397" on="1"/>
        <pt x="535" y="-373" on="1"/>
        <pt x="397" y="-373" on="1"/>
        <pt x="397" y="397" on="1"/>
        <pt x="0" y="397" on="1"/>
        <pt x="0" y="535" on="1"/>
      </contour>
    </TTGlyph>
    <TTGlyph name="Sacute" xMin="25" yMin="-23" xMax="899" yMax="1735">
      <component glyphName="S" x="0" y="0" flags="0x204"/>
      <component glyphName="acute" x="0" y="371" flags="0x4"/>
    </TTGlyph>
    <TTGlyph name="Scaron" xMin="25" yMin="-23" xMax="899" yMax="1739">
      <component glyphName="S" x="0" y="0" flags="0x204"/>
      <component glyphName="caron" x="0" y="371" flags="0x4"/>
    </TTGlyph>
    <TTGlyph name="Scedilla" xMin="25" yMin="-371" xMax="899" yMax="1327">
      <contour>
        <pt x="899" y="340" on="1"/>
        <pt x="899" y="266" on="0"/>
        <pt x="844" y="145" on="0"/>
        <pt x="752" y="53" on="0"/>
        <pt x="629" y="-6" on="0"/>
        <pt x="559" y="-16" on="1"/>
        <pt x="559" y="-41" on="1"/>
        <pt x="559" y="-188" on="0"/>
        <pt x="477" y="-276" on="1"/>
        <pt x="389" y="-371" on="0"/>
        <pt x="242" y="-371" on="1"/>
        <pt x="242" y="-254" on="1"/>
        <pt x="444" y="-254" on="0"/>
        <pt x="444" y="-41" on="1"/>
        <pt x="444" y="-20" on="1"/>
        <pt x="348" y="-12" on="0"/>
        <pt x="188" y="68" on="0"/>
        <pt x="141" y="139" on="1"/>
        <pt x="141" y="0" on="1"/>
        <pt x="25" y="0" on="1"/>
        <pt x="25" y="397" on="1"/>
        <pt x="141" y="397" on="1"/>
        <pt x="141" y="330" on="0"/>
        <pt x="203" y="219" on="0"/>
        <pt x="299" y="139" on="0"/>
        <pt x="424" y="94" on="0"/>
        <pt x="489" y="94" on="1"/>
        <pt x="547" y="94" on="0"/>
        <pt x="645" y="127" on="0"/>
        <pt x="719" y="188" on="0"/>
        <pt x="762" y="276" on="0"/>
        <pt x="762" y="332" on="1"/>
        <pt x="762" y="395" on="0"/>
        <pt x="707" y="485" on="0"/>
        <pt x="614" y="549" on="0"/>
        <pt x="498" y="594" on="0"/>
        <pt x="438" y="616" on="1"/>
        <pt x="367" y="641" on="0"/>
        <pt x="225" y="696" on="0"/>
        <pt x="113" y="780" on="0"/>
        <pt x="43" y="901" on="0"/>
        <pt x="43" y="991" on="1"/>
        <pt x="43" y="1071" on="0"/>
        <pt x="111" y="1196" on="0"/>
        <pt x="221" y="1282" on="0"/>
        <pt x="367" y="1327" on="0"/>
        <pt x="444" y="1327" on="1"/>
        <pt x="539" y="1327" on="0"/>
        <pt x="700" y="1249" on="0"/>
        <pt x="745" y="1169" on="1"/>
        <pt x="745" y="1305" on="1"/>
        <pt x="866" y="1305" on="1"/>
        <pt x="866" y="932" on="1"/>
        <pt x="745" y="932" on="1"/>
        <pt x="745" y="991" on="0"/>
        <pt x="696" y="1094" on="0"/>
        <pt x="612" y="1167" on="0"/>
        <pt x="504" y="1210" on="0"/>
        <pt x="444" y="1210" on="1"/>
        <pt x="391" y="1210" on="0"/>
        <pt x="295" y="1186" on="0"/>
        <pt x="223" y="1133" on="0"/>
        <pt x="180" y="1049" on="0"/>
        <pt x="180" y="991" on="1"/>
        <pt x="180" y="940" on="0"/>
        <pt x="231" y="868" on="0"/>
        <pt x="317" y="813" on="0"/>
        <pt x="430" y="768" on="0"/>
        <pt x="489" y="745" on="1"/>
        <pt x="563" y="719" on="0"/>
        <pt x="709" y="655" on="0"/>
        <pt x="825" y="565" on="0"/>
        <pt x="899" y="434" on="0"/>
      </contour>
    </TTGlyph>
    <TTGlyph name="Scircumflex" xMin="25" yMin="-23" xMax="899" yMax="1739">
      <component glyphName="S" x="0" y="0" flags="0x204"/>
      <component glyphName="circumflex" x="0" y="371" flags="0x4"/>
    </TTGlyph>
    <TTGlyph name="Scommaaccent" xMin="25" yMin="-373" xMax="899" yMax="1327">
      <component glyphName="S" x="0" y="0" flags="0x204"/>
      <component glyphName="commaaccent" x="0" y="0" flags="0x4"/>
    </TTGlyph>
    <TTGlyph name="Sigma" xMin="43" yMin="0" xMax="883" yMax="1305">
      <contour>
        <pt x="883" y="0" on="1"/>
        <pt x="43" y="0" on="1"/>
        <pt x="43" y="117" on="1"/>
        <pt x="371" y="653" on="1"/>
        <pt x="43" y="1188" on="1"/>
        <pt x="43" y="1305" on="1"/>
        <pt x="883" y="1305" on="1"/>
        <pt x="883" y="864" on="1"/>
        <pt x="762" y="864" on="1"/>
        <pt x="762" y="1188" on="1"/>
        <pt x="207" y="1188" on="1"/>
        <pt x="532" y="653" on="1"/>
        <pt x="207" y="117" on="1"/>
        <pt x="762" y="117" on="1"/>
        <pt x="762" y="442" on="1"/>
        <pt x="883" y="442" on="1"/>
      </contour>
    </TTGlyph>
    <TTGlyph name="T" xMin="0" yMin="0" xMax="932" yMax="1305">
      <contour>
        <pt x="932" y="864" on="1"/>
        <pt x="815" y="864" on="1"/>
        <pt x="815" y="1188" on="1"/>
        <pt x="535" y="1188" on="1"/>
        <pt x="535" y="117" on="1"/>
        <pt x="745" y="117" on="1"/>
        <pt x="745" y="0" on="1"/>
        <pt x="186" y="0" on="1"/>
        <pt x="186" y="117" on="1"/>
        <pt x="397" y="117" on="1"/>
        <pt x="397" y="1188" on="1"/>
        <pt x="117" y="1188" on="1"/>
        <pt x="117" y="864" on="1"/>
        <pt x="0" y="864" on="1"/>
        <pt x="0" y="1305" on="1"/>
        <pt x="932" y="1305" on="1"/>
      </contour>
    </TTGlyph>
    <TTGlyph name="Tau" xMin="0" yMin="0" xMax="932" yMax="1305">
      <contour>
        <pt x="932" y="864" on="1"/>
        <pt x="815" y="864" on="1"/>
        <pt x="815" y="1188" on="1"/>
        <pt x="535" y="1188" on="1"/>
        <pt x="535" y="117" on="1"/>
        <pt x="745" y="117" on="1"/>
        <pt x="745" y="0" on="1"/>
        <pt x="186" y="0" on="1"/>
        <pt x="186" y="117" on="1"/>
        <pt x="397" y="117" on="1"/>
        <pt x="397" y="1188" on="1"/>
        <pt x="117" y="1188" on="1"/>
        <pt x="117" y="864" on="1"/>
        <pt x="0" y="864" on="1"/>
        <pt x="0" y="1305" on="1"/>
        <pt x="932" y="1305" on="1"/>
      </contour>
    </TTGlyph>
    <TTGlyph name="Tbar" xMin="0" yMin="0" xMax="932" yMax="1305">
      <contour>
        <pt x="745" y="608" on="1"/>
        <pt x="535" y="608" on="1"/>
        <pt x="535" y="117" on="1"/>
        <pt x="745" y="117" on="1"/>
        <pt x="745" y="0" on="1"/>
        <pt x="186" y="0" on="1"/>
        <pt x="186" y="117" on="1"/>
        <pt x="397" y="117" on="1"/>
        <pt x="397" y="608" on="1"/>
        <pt x="186" y="608" on="1"/>
        <pt x="186" y="721" on="1"/>
        <pt x="397" y="721" on="1"/>
        <pt x="397" y="1188" on="1"/>
        <pt x="117" y="1188" on="1"/>
        <pt x="117" y="864" on="1"/>
        <pt x="0" y="864" on="1"/>
        <pt x="0" y="1305" on="1"/>
        <pt x="932" y="1305" on="1"/>
        <pt x="932" y="864" on="1"/>
        <pt x="815" y="864" on="1"/>
        <pt x="815" y="1188" on="1"/>
        <pt x="535" y="1188" on="1"/>
        <pt x="535" y="721" on="1"/>
        <pt x="745" y="721" on="1"/>
      </contour>
    </TTGlyph>
    <TTGlyph name="Tcaron" xMin="0" yMin="0" xMax="932" yMax="1739">
      <component glyphName="T" x="0" y="0" flags="0x204"/>
      <component glyphName="caron" x="0" y="371" flags="0x4"/>
    </TTGlyph>
    <TTGlyph name="Tcommaaccent" xMin="0" yMin="-373" xMax="932" yMax="1305">
      <component glyphName="T" x="0" y="0" flags="0x204"/>
      <component glyphName="commaaccent" x="0" y="0" flags="0x4"/>
    </TTGlyph>
    <TTGlyph name="Theta" xMin="-33" yMin="-23" xMax="967" yMax="1327">
      <contour>
        <pt x="229" y="711" on="1"/>
        <pt x="700" y="711" on="1"/>
        <pt x="700" y="594" on="1"/>
        <pt x="229" y="594" on="1"/>
      </contour>
      <contour>
        <pt x="967" y="651" on="1"/>
        <pt x="967" y="520" on="0"/>
        <pt x="913" y="276" on="0"/>
        <pt x="795" y="90" on="0"/>
        <pt x="604" y="-23" on="0"/>
        <pt x="467" y="-23" on="1"/>
        <pt x="330" y="-23" on="0"/>
        <pt x="139" y="90" on="0"/>
        <pt x="20" y="276" on="0"/>
        <pt x="-33" y="520" on="0"/>
        <pt x="-33" y="651" on="1"/>
        <pt x="-33" y="782" on="0"/>
        <pt x="20" y="1026" on="0"/>
        <pt x="141" y="1214" on="0"/>
        <pt x="332" y="1327" on="0"/>
        <pt x="467" y="1327" on="1"/>
        <pt x="602" y="1327" on="0"/>
        <pt x="793" y="1214" on="0"/>
        <pt x="911" y="1026" on="0"/>
        <pt x="967" y="782" on="0"/>
      </contour>
      <contour>
        <pt x="829" y="651" on="1"/>
        <pt x="829" y="780" on="0"/>
        <pt x="780" y="987" on="0"/>
        <pt x="688" y="1133" on="0"/>
        <pt x="553" y="1210" on="0"/>
        <pt x="467" y="1210" on="1"/>
        <pt x="360" y="1210" on="0"/>
        <pt x="221" y="1110" on="0"/>
        <pt x="137" y="948" on="0"/>
        <pt x="104" y="750" on="0"/>
        <pt x="104" y="651" on="1"/>
        <pt x="104" y="553" on="0"/>
        <pt x="137" y="354" on="0"/>
        <pt x="221" y="195" on="0"/>
        <pt x="360" y="94" on="0"/>
        <pt x="467" y="94" on="1"/>
        <pt x="573" y="94" on="0"/>
        <pt x="713" y="195" on="0"/>
        <pt x="797" y="354" on="0"/>
        <pt x="829" y="553" on="0"/>
      </contour>
    </TTGlyph>
    <TTGlyph name="Thorn" xMin="49" yMin="0" xMax="930" yMax="1305">
      <contour>
        <pt x="930" y="664" on="1"/>
        <pt x="930" y="291" on="0"/>
        <pt x="430" y="291" on="1"/>
        <pt x="186" y="291" on="1"/>
        <pt x="186" y="0" on="1"/>
        <pt x="49" y="0" on="1"/>
        <pt x="49" y="1305" on="1"/>
        <pt x="186" y="1305" on="1"/>
        <pt x="186" y="1036" on="1"/>
        <pt x="430" y="1036" on="1"/>
        <pt x="930" y="1036" on="0"/>
      </contour>
      <contour>
        <pt x="791" y="664" on="1"/>
        <pt x="791" y="918" on="0"/>
        <pt x="430" y="918" on="1"/>
        <pt x="186" y="918" on="1"/>
        <pt x="186" y="406" on="1"/>
        <pt x="430" y="406" on="1"/>
        <pt x="610" y="406" on="0"/>
        <pt x="791" y="537" on="0"/>
      </contour>
    </TTGlyph>
    <TTGlyph name="U" xMin="49" yMin="-23" xMax="883" yMax="1305">
      <contour>
        <pt x="883" y="465" on="1"/>
        <pt x="883" y="354" on="0"/>
        <pt x="834" y="174" on="0"/>
        <pt x="731" y="47" on="0"/>
        <pt x="573" y="-23" on="0"/>
        <pt x="465" y="-23" on="1"/>
        <pt x="356" y="-23" on="0"/>
        <pt x="199" y="47" on="0"/>
        <pt x="98" y="174" on="0"/>
        <pt x="49" y="356" on="0"/>
        <pt x="49" y="467" on="1"/>
        <pt x="49" y="1305" on="1"/>
        <pt x="186" y="1305" on="1"/>
        <pt x="186" y="465" on="1"/>
        <pt x="186" y="406" on="0"/>
        <pt x="207" y="274" on="0"/>
        <pt x="268" y="166" on="0"/>
        <pt x="377" y="94" on="0"/>
        <pt x="465" y="94" on="1"/>
        <pt x="553" y="94" on="0"/>
        <pt x="664" y="166" on="0"/>
        <pt x="725" y="274" on="0"/>
        <pt x="745" y="406" on="0"/>
        <pt x="745" y="465" on="1"/>
        <pt x="745" y="1305" on="1"/>
        <pt x="883" y="1305" on="1"/>
      </contour>
    </TTGlyph>
    <TTGlyph name="Uacute" xMin="49" yMin="-23" xMax="883" yMax="1735">
      <component glyphName="U" x="0" y="0" flags="0x204"/>
      <component glyphName="acute" x="0" y="371" flags="0x4"/>
    </TTGlyph>
    <TTGlyph name="Ubreve" xMin="49" yMin="-23" xMax="883" yMax="1657">
      <component glyphName="U" x="0" y="0" flags="0x204"/>
      <component glyphName="breve" x="0" y="371" flags="0x4"/>
    </TTGlyph>
    <TTGlyph name="Ucircumflex" xMin="49" yMin="-23" xMax="883" yMax="1739">
      <component glyphName="U" x="0" y="0" flags="0x204"/>
      <component glyphName="circumflex" x="0" y="371" flags="0x4"/>
    </TTGlyph>
    <TTGlyph name="Udieresis" xMin="49" yMin="-23" xMax="883" yMax="1676">
      <component glyphName="U" x="0" y="0" flags="0x204"/>
      <component glyphName="dieresis" x="0" y="371" flags="0x4"/>
    </TTGlyph>
    <TTGlyph name="Ugrave" xMin="49" yMin="-23" xMax="883" yMax="1737">
      <component glyphName="U" x="0" y="0" flags="0x204"/>
      <component glyphName="grave" x="0" y="373" flags="0x4"/>
    </TTGlyph>
    <TTGlyph name="Uhungarumlaut" xMin="49" yMin="-23" xMax="883" yMax="1770">
      <component glyphName="U" x="0" y="0" flags="0x204"/>
      <component glyphName="hungarumlaut" x="0" y="371" flags="0x4"/>
    </TTGlyph>
    <TTGlyph name="Umacron" xMin="49" yMin="-23" xMax="883" yMax="1590">
      <component glyphName="U" x="0" y="0" flags="0x204"/>
      <component glyphName="macron" x="0" y="371" flags="0x4"/>
    </TTGlyph>
    <TTGlyph name="Uogonek" xMin="49" yMin="-379" xMax="883" yMax="1305">
      <contour>
        <pt x="760" y="-379" on="1"/>
        <pt x="635" y="-379" on="0"/>
        <pt x="492" y="-254" on="0"/>
        <pt x="492" y="-152" on="1"/>
        <pt x="492" y="-111" on="0"/>
        <pt x="512" y="-47" on="0"/>
        <pt x="530" y="-18" on="1"/>
        <pt x="514" y="-20" on="0"/>
        <pt x="481" y="-23" on="0"/>
        <pt x="465" y="-23" on="1"/>
        <pt x="356" y="-23" on="0"/>
        <pt x="199" y="47" on="0"/>
        <pt x="98" y="174" on="0"/>
        <pt x="49" y="356" on="0"/>
        <pt x="49" y="467" on="1"/>
        <pt x="49" y="1305" on="1"/>
        <pt x="186" y="1305" on="1"/>
        <pt x="186" y="465" on="1"/>
        <pt x="186" y="406" on="0"/>
        <pt x="207" y="274" on="0"/>
        <pt x="268" y="166" on="0"/>
        <pt x="377" y="94" on="0"/>
        <pt x="465" y="94" on="1"/>
        <pt x="553" y="94" on="0"/>
        <pt x="664" y="166" on="0"/>
        <pt x="725" y="274" on="0"/>
        <pt x="745" y="406" on="0"/>
        <pt x="745" y="465" on="1"/>
        <pt x="745" y="1305" on="1"/>
        <pt x="883" y="1305" on="1"/>
        <pt x="883" y="465" on="1"/>
        <pt x="883" y="285" on="0"/>
        <pt x="756" y="43" on="0"/>
        <pt x="621" y="0" on="1"/>
        <pt x="571" y="-45" on="0"/>
        <pt x="571" y="-121" on="1"/>
        <pt x="571" y="-193" on="0"/>
        <pt x="680" y="-289" on="0"/>
        <pt x="760" y="-289" on="1"/>
      </contour>
    </TTGlyph>
    <TTGlyph name="Upsilon" xMin="-20" yMin="0" xMax="952" yMax="1305">
      <contour>
        <pt x="952" y="1188" on="1"/>
        <pt x="846" y="1188" on="1"/>
        <pt x="535" y="563" on="1"/>
        <pt x="535" y="117" on="1"/>
        <pt x="745" y="117" on="1"/>
        <pt x="745" y="0" on="1"/>
        <pt x="186" y="0" on="1"/>
        <pt x="186" y="117" on="1"/>
        <pt x="397" y="117" on="1"/>
        <pt x="397" y="563" on="1"/>
        <pt x="86" y="1188" on="1"/>
        <pt x="-20" y="1188" on="1"/>
        <pt x="-20" y="1305" on="1"/>
        <pt x="348" y="1305" on="1"/>
        <pt x="348" y="1188" on="1"/>
        <pt x="240" y="1188" on="1"/>
        <pt x="467" y="696" on="1"/>
        <pt x="692" y="1188" on="1"/>
        <pt x="584" y="1188" on="1"/>
        <pt x="584" y="1305" on="1"/>
        <pt x="952" y="1305" on="1"/>
      </contour>
    </TTGlyph>
    <TTGlyph name="Upsilondieresis" xMin="-20" yMin="0" xMax="952" yMax="1678">
      <component glyphName="dieresis" x="0" y="373" flags="0x200"/>
      <component glyphName="Upsilon" x="0" y="0" flags="0x0"/>
    </TTGlyph>
    <TTGlyph name="Upsilontonos" xMin="-165" yMin="0" xMax="952" yMax="1583">
      <component glyphName="Upsilon" x="0" y="0" flags="0x200"/>
      <component glyphName="tonos" x="-562" y="0" flags="0x0"/>
    </TTGlyph>
    <TTGlyph name="Uring" xMin="49" yMin="-23" xMax="883" yMax="1854">
      <component glyphName="U" x="0" y="0" flags="0x204"/>
      <component glyphName="ring" x="0" y="371" flags="0x4"/>
    </TTGlyph>
    <TTGlyph name="Utilde" xMin="49" yMin="-23" xMax="883" yMax="1651">
      <component glyphName="U" x="0" y="0" flags="0x204"/>
      <component glyphName="tilde" x="0" y="371" flags="0x4"/>
    </TTGlyph>
    <TTGlyph name="V" xMin="-59" yMin="0" xMax="995" yMax="1305">
      <contour>
        <pt x="995" y="1305" on="1"/>
        <pt x="559" y="0" on="1"/>
        <pt x="373" y="0" on="1"/>
        <pt x="-59" y="1305" on="1"/>
        <pt x="86" y="1305" on="1"/>
        <pt x="467" y="139" on="1"/>
        <pt x="846" y="1305" on="1"/>
      </contour>
    </TTGlyph>
    <TTGlyph name="W" xMin="-63" yMin="0" xMax="995" yMax="1305">
      <contour>
        <pt x="995" y="1305" on="1"/>
        <pt x="760" y="0" on="1"/>
        <pt x="598" y="0" on="1"/>
        <pt x="465" y="637" on="1"/>
        <pt x="330" y="0" on="1"/>
        <pt x="170" y="0" on="1"/>
        <pt x="-63" y="1305" on="1"/>
        <pt x="82" y="1305" on="1"/>
        <pt x="266" y="231" on="1"/>
        <pt x="397" y="932" on="1"/>
        <pt x="532" y="932" on="1"/>
        <pt x="664" y="231" on="1"/>
        <pt x="848" y="1305" on="1"/>
      </contour>
    </TTGlyph>
    <TTGlyph name="Wacute" xMin="-63" yMin="0" xMax="995" yMax="1737">
      <component glyphName="W" x="0" y="0" flags="0x204"/>
      <component glyphName="acute" x="0" y="373" flags="0x4"/>
    </TTGlyph>
    <TTGlyph name="Wcircumflex" xMin="-63" yMin="0" xMax="995" yMax="1739">
      <component glyphName="W" x="0" y="0" flags="0x204"/>
      <component glyphName="circumflex" x="0" y="371" flags="0x4"/>
    </TTGlyph>
    <TTGlyph name="Wdieresis" xMin="-63" yMin="0" xMax="995" yMax="1678">
      <component glyphName="W" x="0" y="0" flags="0x204"/>
      <component glyphName="dieresis" x="0" y="373" flags="0x4"/>
    </TTGlyph>
    <TTGlyph name="Wgrave" xMin="-63" yMin="0" xMax="995" yMax="1741">
      <component glyphName="W" x="0" y="0" flags="0x204"/>
      <component glyphName="grave" x="0" y="377" flags="0x4"/>
    </TTGlyph>
    <TTGlyph name="X" xMin="-23" yMin="0" xMax="954" yMax="1305">
      <contour>
        <pt x="954" y="0" on="1"/>
        <pt x="584" y="0" on="1"/>
        <pt x="584" y="117" on="1"/>
        <pt x="672" y="117" on="1"/>
        <pt x="467" y="545" on="1"/>
        <pt x="260" y="117" on="1"/>
        <pt x="348" y="117" on="1"/>
        <pt x="348" y="0" on="1"/>
        <pt x="-23" y="0" on="1"/>
        <pt x="-23" y="117" on="1"/>
        <pt x="104" y="117" on="1"/>
        <pt x="387" y="657" on="1"/>
        <pt x="109" y="1188" on="1"/>
        <pt x="0" y="1188" on="1"/>
        <pt x="0" y="1305" on="1"/>
        <pt x="373" y="1305" on="1"/>
        <pt x="373" y="1188" on="1"/>
        <pt x="264" y="1188" on="1"/>
        <pt x="467" y="770" on="1"/>
        <pt x="664" y="1188" on="1"/>
        <pt x="559" y="1188" on="1"/>
        <pt x="559" y="1305" on="1"/>
        <pt x="932" y="1305" on="1"/>
        <pt x="932" y="1188" on="1"/>
        <pt x="819" y="1188" on="1"/>
        <pt x="547" y="657" on="1"/>
        <pt x="827" y="117" on="1"/>
        <pt x="954" y="117" on="1"/>
      </contour>
    </TTGlyph>
    <TTGlyph name="Xi" xMin="0" yMin="0" xMax="932" yMax="1305">
      <contour>
        <pt x="0" y="301" on="1"/>
        <pt x="121" y="301" on="1"/>
        <pt x="121" y="117" on="1"/>
        <pt x="811" y="117" on="1"/>
        <pt x="811" y="301" on="1"/>
        <pt x="932" y="301" on="1"/>
        <pt x="932" y="0" on="1"/>
        <pt x="0" y="0" on="1"/>
      </contour>
      <contour>
        <pt x="811" y="1188" on="1"/>
        <pt x="121" y="1188" on="1"/>
        <pt x="121" y="1001" on="1"/>
        <pt x="0" y="1001" on="1"/>
        <pt x="0" y="1305" on="1"/>
        <pt x="932" y="1305" on="1"/>
        <pt x="932" y="1001" on="1"/>
        <pt x="811" y="1001" on="1"/>
      </contour>
      <contour>
        <pt x="229" y="711" on="1"/>
        <pt x="700" y="711" on="1"/>
        <pt x="700" y="594" on="1"/>
        <pt x="229" y="594" on="1"/>
      </contour>
    </TTGlyph>
    <TTGlyph name="Y" xMin="-20" yMin="0" xMax="952" yMax="1305">
      <contour>
        <pt x="952" y="1188" on="1"/>
        <pt x="846" y="1188" on="1"/>
        <pt x="535" y="563" on="1"/>
        <pt x="535" y="117" on="1"/>
        <pt x="745" y="117" on="1"/>
        <pt x="745" y="0" on="1"/>
        <pt x="186" y="0" on="1"/>
        <pt x="186" y="117" on="1"/>
        <pt x="397" y="117" on="1"/>
        <pt x="397" y="563" on="1"/>
        <pt x="86" y="1188" on="1"/>
        <pt x="-20" y="1188" on="1"/>
        <pt x="-20" y="1305" on="1"/>
        <pt x="348" y="1305" on="1"/>
        <pt x="348" y="1188" on="1"/>
        <pt x="240" y="1188" on="1"/>
        <pt x="467" y="696" on="1"/>
        <pt x="692" y="1188" on="1"/>
        <pt x="584" y="1188" on="1"/>
        <pt x="584" y="1305" on="1"/>
        <pt x="952" y="1305" on="1"/>
      </contour>
    </TTGlyph>
    <TTGlyph name="Yacute" xMin="-20" yMin="0" xMax="952" yMax="1735">
      <component glyphName="Y" x="0" y="0" flags="0x204"/>
      <component glyphName="acute" x="0" y="371" flags="0x4"/>
    </TTGlyph>
    <TTGlyph name="Ycircumflex" xMin="-20" yMin="0" xMax="952" yMax="1739">
      <component glyphName="Y" x="0" y="0" flags="0x204"/>
      <component glyphName="circumflex" x="0" y="371" flags="0x4"/>
    </TTGlyph>
    <TTGlyph name="Ydieresis" xMin="-20" yMin="0" xMax="952" yMax="1676">
      <component glyphName="Y" x="0" y="0" flags="0x200"/>
      <component glyphName="dieresis" x="0" y="371" flags="0x0"/>
    </TTGlyph>
    <TTGlyph name="Ygrave" xMin="-20" yMin="0" xMax="952" yMax="1741">
      <component glyphName="Y" x="0" y="0" flags="0x204"/>
      <component glyphName="grave" x="0" y="377" flags="0x4"/>
    </TTGlyph>
    <TTGlyph name="Z" xMin="49" yMin="0" xMax="887" yMax="1305">
      <contour>
        <pt x="887" y="0" on="1"/>
        <pt x="49" y="0" on="1"/>
        <pt x="49" y="117" on="1"/>
        <pt x="705" y="1188" on="1"/>
        <pt x="166" y="1188" on="1"/>
        <pt x="166" y="868" on="1"/>
        <pt x="49" y="868" on="1"/>
        <pt x="49" y="1305" on="1"/>
        <pt x="866" y="1305" on="1"/>
        <pt x="866" y="1188" on="1"/>
        <pt x="217" y="117" on="1"/>
        <pt x="770" y="117" on="1"/>
        <pt x="770" y="442" on="1"/>
        <pt x="887" y="442" on="1"/>
      </contour>
    </TTGlyph>
    <TTGlyph name="Zacute" xMin="49" yMin="0" xMax="887" yMax="1737">
      <component glyphName="Z" x="0" y="0" flags="0x204"/>
      <component glyphName="acute" x="0" y="373" flags="0x4"/>
    </TTGlyph>
    <TTGlyph name="Zcaron" xMin="49" yMin="0" xMax="887" yMax="1741">
      <component glyphName="Z" x="0" y="0" flags="0x204"/>
      <component glyphName="caron" x="0" y="373" flags="0x4"/>
    </TTGlyph>
    <TTGlyph name="Zdotaccent" xMin="49" yMin="0" xMax="887" yMax="1678">
      <component glyphName="Z" x="0" y="0" flags="0x204"/>
      <component glyphName="dotaccent" x="0" y="373" flags="0x4"/>
    </TTGlyph>
    <TTGlyph name="Zeta" xMin="49" yMin="0" xMax="887" yMax="1305">
      <contour>
        <pt x="887" y="0" on="1"/>
        <pt x="49" y="0" on="1"/>
        <pt x="49" y="117" on="1"/>
        <pt x="705" y="1188" on="1"/>
        <pt x="166" y="1188" on="1"/>
        <pt x="166" y="868" on="1"/>
        <pt x="49" y="868" on="1"/>
        <pt x="49" y="1305" on="1"/>
        <pt x="866" y="1305" on="1"/>
        <pt x="866" y="1188" on="1"/>
        <pt x="217" y="117" on="1"/>
        <pt x="770" y="117" on="1"/>
        <pt x="770" y="442" on="1"/>
        <pt x="887" y="442" on="1"/>
      </contour>
    </TTGlyph>
    <TTGlyph name="a" xMin="-2" yMin="-23" xMax="883" yMax="954">
      <contour>
        <pt x="-2" y="252" on="1"/>
        <pt x="-2" y="340" on="0"/>
        <pt x="86" y="459" on="0"/>
        <pt x="229" y="528" on="0"/>
        <pt x="414" y="559" on="0"/>
        <pt x="510" y="559" on="1"/>
        <pt x="547" y="559" on="0"/>
        <pt x="606" y="557" on="0"/>
        <pt x="659" y="553" on="0"/>
        <pt x="713" y="547" on="0"/>
        <pt x="745" y="543" on="1"/>
        <pt x="745" y="610" on="1"/>
        <pt x="745" y="678" on="0"/>
        <pt x="686" y="766" on="0"/>
        <pt x="600" y="817" on="0"/>
        <pt x="506" y="838" on="0"/>
        <pt x="473" y="838" on="1"/>
        <pt x="369" y="838" on="0"/>
        <pt x="193" y="782" on="0"/>
        <pt x="117" y="735" on="1"/>
        <pt x="55" y="838" on="1"/>
        <pt x="139" y="889" on="0"/>
        <pt x="348" y="954" on="0"/>
        <pt x="473" y="954" on="1"/>
        <pt x="549" y="954" on="0"/>
        <pt x="696" y="915" on="0"/>
        <pt x="813" y="834" on="0"/>
        <pt x="883" y="702" on="0"/>
        <pt x="883" y="610" on="1"/>
        <pt x="883" y="0" on="1"/>
        <pt x="745" y="0" on="1"/>
        <pt x="745" y="156" on="1"/>
        <pt x="709" y="111" on="0"/>
        <pt x="618" y="43" on="0"/>
        <pt x="518" y="0" on="0"/>
        <pt x="418" y="-23" on="0"/>
        <pt x="373" y="-23" on="1"/>
        <pt x="188" y="-23" on="0"/>
        <pt x="-2" y="119" on="0"/>
      </contour>
      <contour>
        <pt x="373" y="94" on="1"/>
        <pt x="459" y="94" on="0"/>
        <pt x="596" y="145" on="0"/>
        <pt x="692" y="221" on="0"/>
        <pt x="745" y="307" on="0"/>
        <pt x="745" y="342" on="1"/>
        <pt x="745" y="430" on="1"/>
        <pt x="678" y="440" on="0"/>
        <pt x="555" y="442" on="0"/>
        <pt x="510" y="442" on="1"/>
        <pt x="436" y="442" on="0"/>
        <pt x="299" y="422" on="0"/>
        <pt x="197" y="377" on="0"/>
        <pt x="135" y="305" on="0"/>
        <pt x="135" y="252" on="1"/>
        <pt x="135" y="193" on="0"/>
        <pt x="250" y="94" on="0"/>
      </contour>
    </TTGlyph>
    <TTGlyph name="aacute" xMin="0" yMin="-23" xMax="885" yMax="1363">
      <component glyphName="a" x="2" y="0" flags="0x204"/>
      <component glyphName="acute" x="0" y="-1" flags="0x4"/>
    </TTGlyph>
    <TTGlyph name="abreve" xMin="0" yMin="-23" xMax="885" yMax="1285">
      <component glyphName="a" x="2" y="0" flags="0x204"/>
      <component glyphName="breve" x="0" y="-1" flags="0x4"/>
    </TTGlyph>
    <TTGlyph name="acircumflex" xMin="0" yMin="-23" xMax="885" yMax="1367">
      <component glyphName="a" x="2" y="0" flags="0x204"/>
      <component glyphName="circumflex" x="0" y="-1" flags="0x4"/>
    </TTGlyph>
    <TTGlyph name="acute" xMin="242" yMin="1012" xMax="711" yMax="1364">
      <contour>
        <pt x="711" y="1255" on="1"/>
        <pt x="279" y="1012" on="1"/>
        <pt x="242" y="1077" on="1"/>
        <pt x="645" y="1364" on="1"/>
      </contour>
    </TTGlyph>
    <TTGlyph name="adieresis" xMin="0" yMin="-23" xMax="885" yMax="1305">
      <component glyphName="a" x="2" y="0" flags="0x204"/>
      <component glyphName="dieresis" x="0" y="0" flags="0x4"/>
    </TTGlyph>
    <TTGlyph name="ae" xMin="-37" yMin="-23" xMax="954" yMax="954">
      <contour>
        <pt x="449" y="170" on="1"/>
        <pt x="436" y="135" on="0"/>
        <pt x="393" y="68" on="0"/>
        <pt x="332" y="12" on="0"/>
        <pt x="254" y="-23" on="0"/>
        <pt x="205" y="-23" on="1"/>
        <pt x="88" y="-23" on="0"/>
        <pt x="-37" y="135" on="0"/>
        <pt x="-37" y="254" on="1"/>
        <pt x="-37" y="334" on="0"/>
        <pt x="20" y="451" on="0"/>
        <pt x="113" y="524" on="0"/>
        <pt x="233" y="559" on="0"/>
        <pt x="297" y="559" on="1"/>
        <pt x="319" y="559" on="0"/>
        <pt x="367" y="557" on="0"/>
        <pt x="389" y="553" on="1"/>
        <pt x="389" y="649" on="1"/>
        <pt x="389" y="725" on="0"/>
        <pt x="319" y="840" on="0"/>
        <pt x="248" y="840" on="1"/>
        <pt x="207" y="840" on="0"/>
        <pt x="113" y="768" on="0"/>
        <pt x="78" y="709" on="1"/>
        <pt x="-8" y="793" on="1"/>
        <pt x="18" y="836" on="0"/>
        <pt x="88" y="897" on="0"/>
        <pt x="158" y="936" on="0"/>
        <pt x="223" y="954" on="0"/>
        <pt x="248" y="954" on="1"/>
        <pt x="326" y="954" on="0"/>
        <pt x="438" y="885" on="0"/>
        <pt x="461" y="807" on="1"/>
        <pt x="489" y="885" on="0"/>
        <pt x="621" y="954" on="0"/>
        <pt x="690" y="954" on="1"/>
        <pt x="782" y="954" on="0"/>
        <pt x="889" y="842" on="0"/>
        <pt x="940" y="678" on="0"/>
        <pt x="954" y="492" on="0"/>
        <pt x="954" y="418" on="1"/>
        <pt x="526" y="418" on="1"/>
        <pt x="526" y="252" on="0"/>
        <pt x="604" y="104" on="0"/>
        <pt x="682" y="104" on="1"/>
        <pt x="729" y="104" on="0"/>
        <pt x="801" y="162" on="0"/>
        <pt x="819" y="227" on="1"/>
        <pt x="936" y="190" on="1"/>
        <pt x="901" y="82" on="0"/>
        <pt x="776" y="-23" on="0"/>
        <pt x="674" y="-23" on="1"/>
        <pt x="598" y="-23" on="0"/>
        <pt x="471" y="78" on="0"/>
      </contour>
      <contour>
        <pt x="807" y="539" on="1"/>
        <pt x="807" y="702" on="0"/>
        <pt x="743" y="840" on="0"/>
        <pt x="672" y="840" on="1"/>
        <pt x="606" y="840" on="0"/>
        <pt x="526" y="707" on="0"/>
        <pt x="526" y="539" on="1"/>
      </contour>
      <contour>
        <pt x="389" y="438" on="1"/>
        <pt x="377" y="440" on="0"/>
        <pt x="332" y="442" on="0"/>
        <pt x="309" y="442" on="1"/>
        <pt x="223" y="442" on="0"/>
        <pt x="100" y="346" on="0"/>
        <pt x="100" y="244" on="1"/>
        <pt x="100" y="190" on="0"/>
        <pt x="160" y="104" on="0"/>
        <pt x="219" y="104" on="1"/>
        <pt x="252" y="104" on="0"/>
        <pt x="313" y="135" on="0"/>
        <pt x="360" y="188" on="0"/>
        <pt x="389" y="260" on="0"/>
        <pt x="389" y="301" on="1"/>
      </contour>
    </TTGlyph>
    <TTGlyph name="aeacute" xMin="-37" yMin="-23" xMax="954" yMax="1366">
      <component glyphName="ae" x="0" y="0" flags="0x204"/>
      <component glyphName="acute" x="0" y="2" flags="0x4"/>
    </TTGlyph>
    <TTGlyph name="afii00208" xMin="0" yMin="420" xMax="932" yMax="537">
      <contour>
        <pt x="932" y="420" on="1"/>
        <pt x="0" y="420" on="1"/>
        <pt x="0" y="537" on="1"/>
        <pt x="932" y="537" on="1"/>
      </contour>
    </TTGlyph>
    <TTGlyph name="afii10017" xMin="-59" yMin="0" xMax="995" yMax="1305">
      <contour>
        <pt x="995" y="0" on="1"/>
        <pt x="848" y="0" on="1"/>
        <pt x="725" y="373" on="1"/>
        <pt x="209" y="373" on="1"/>
        <pt x="88" y="0" on="1"/>
        <pt x="-59" y="0" on="1"/>
        <pt x="375" y="1305" on="1"/>
        <pt x="561" y="1305" on="1"/>
      </contour>
      <contour>
        <pt x="686" y="494" on="1"/>
        <pt x="467" y="1167" on="1"/>
        <pt x="248" y="494" on="1"/>
      </contour>
    </TTGlyph>
    <TTGlyph name="afii10018" xMin="49" yMin="0" xMax="930" yMax="1305">
      <contour>
        <pt x="793" y="369" on="1"/>
        <pt x="793" y="496" on="0"/>
        <pt x="623" y="629" on="0"/>
        <pt x="481" y="629" on="1"/>
        <pt x="186" y="629" on="1"/>
        <pt x="186" y="117" on="1"/>
        <pt x="481" y="117" on="1"/>
        <pt x="623" y="117" on="0"/>
        <pt x="793" y="244" on="0"/>
      </contour>
      <contour>
        <pt x="186" y="745" on="1"/>
        <pt x="481" y="745" on="1"/>
        <pt x="694" y="745" on="0"/>
        <pt x="930" y="557" on="0"/>
        <pt x="930" y="369" on="1"/>
        <pt x="930" y="182" on="0"/>
        <pt x="694" y="0" on="0"/>
        <pt x="479" y="0" on="1"/>
        <pt x="49" y="0" on="1"/>
        <pt x="49" y="1305" on="1"/>
        <pt x="883" y="1305" on="1"/>
        <pt x="883" y="1188" on="1"/>
        <pt x="186" y="1188" on="1"/>
      </contour>
    </TTGlyph>
    <TTGlyph name="afii10019" xMin="49" yMin="0" xMax="930" yMax="1305">
      <contour>
        <pt x="930" y="373" on="1"/>
        <pt x="930" y="186" on="0"/>
        <pt x="688" y="0" on="0"/>
        <pt x="465" y="0" on="1"/>
        <pt x="49" y="0" on="1"/>
        <pt x="49" y="1305" on="1"/>
        <pt x="442" y="1305" on="1"/>
        <pt x="524" y="1305" on="0"/>
        <pt x="682" y="1278" on="0"/>
        <pt x="807" y="1204" on="0"/>
        <pt x="885" y="1073" on="0"/>
        <pt x="885" y="967" on="1"/>
        <pt x="885" y="764" on="0"/>
        <pt x="682" y="690" on="1"/>
        <pt x="930" y="614" on="0"/>
      </contour>
      <contour>
        <pt x="748" y="967" on="1"/>
        <pt x="748" y="1036" on="0"/>
        <pt x="690" y="1124" on="0"/>
        <pt x="600" y="1171" on="0"/>
        <pt x="492" y="1188" on="0"/>
        <pt x="442" y="1188" on="1"/>
        <pt x="186" y="1188" on="1"/>
        <pt x="186" y="745" on="1"/>
        <pt x="442" y="745" on="1"/>
        <pt x="498" y="745" on="0"/>
        <pt x="606" y="762" on="0"/>
        <pt x="692" y="811" on="0"/>
        <pt x="748" y="897" on="0"/>
      </contour>
      <contour>
        <pt x="793" y="373" on="1"/>
        <pt x="793" y="508" on="0"/>
        <pt x="618" y="631" on="0"/>
        <pt x="465" y="631" on="1"/>
        <pt x="186" y="631" on="1"/>
        <pt x="186" y="117" on="1"/>
        <pt x="465" y="117" on="1"/>
        <pt x="618" y="117" on="0"/>
        <pt x="793" y="246" on="0"/>
      </contour>
    </TTGlyph>
    <TTGlyph name="afii10020" xMin="49" yMin="0" xMax="932" yMax="1305">
      <contour>
        <pt x="49" y="1305" on="1"/>
        <pt x="932" y="1305" on="1"/>
        <pt x="932" y="1188" on="1"/>
        <pt x="186" y="1188" on="1"/>
        <pt x="186" y="0" on="1"/>
        <pt x="49" y="0" on="1"/>
      </contour>
    </TTGlyph>
    <TTGlyph name="afii10021" xMin="0" yMin="-319" xMax="932" yMax="1305">
      <contour>
        <pt x="0" y="117" on="1"/>
        <pt x="57" y="166" on="0"/>
        <pt x="145" y="279" on="0"/>
        <pt x="205" y="467" on="0"/>
        <pt x="236" y="758" on="0"/>
        <pt x="236" y="983" on="1"/>
        <pt x="236" y="1305" on="1"/>
        <pt x="745" y="1305" on="1"/>
        <pt x="745" y="117" on="1"/>
        <pt x="932" y="117" on="1"/>
        <pt x="932" y="-319" on="1"/>
        <pt x="809" y="-319" on="1"/>
        <pt x="809" y="0" on="1"/>
        <pt x="123" y="0" on="1"/>
        <pt x="123" y="-319" on="1"/>
        <pt x="0" y="-319" on="1"/>
      </contour>
      <contour>
        <pt x="373" y="983" on="1"/>
        <pt x="373" y="807" on="0"/>
        <pt x="350" y="537" on="0"/>
        <pt x="301" y="328" on="0"/>
        <pt x="221" y="174" on="0"/>
        <pt x="164" y="117" on="1"/>
        <pt x="608" y="117" on="1"/>
        <pt x="608" y="1188" on="1"/>
        <pt x="373" y="1188" on="1"/>
      </contour>
    </TTGlyph>
    <TTGlyph name="afii10022" xMin="49" yMin="0" xMax="883" yMax="1305">
      <contour>
        <pt x="883" y="0" on="1"/>
        <pt x="49" y="0" on="1"/>
        <pt x="49" y="1305" on="1"/>
        <pt x="883" y="1305" on="1"/>
        <pt x="883" y="1188" on="1"/>
        <pt x="186" y="1188" on="1"/>
        <pt x="186" y="721" on="1"/>
        <pt x="700" y="721" on="1"/>
        <pt x="700" y="604" on="1"/>
        <pt x="186" y="604" on="1"/>
        <pt x="186" y="117" on="1"/>
        <pt x="883" y="117" on="1"/>
      </contour>
    </TTGlyph>
    <TTGlyph name="afii10023" xMin="49" yMin="0" xMax="883" yMax="1678">
      <component glyphName="afii10022" x="0" y="0" flags="0x204"/>
      <component glyphName="dieresis" x="0" y="373" flags="0x4"/>
    </TTGlyph>
    <TTGlyph name="afii10024" xMin="-63" yMin="0" xMax="995" yMax="1305">
      <contour>
        <pt x="397" y="0" on="1"/>
        <pt x="397" y="518" on="1"/>
        <pt x="342" y="618" on="1"/>
        <pt x="80" y="0" on="1"/>
        <pt x="-63" y="0" on="1"/>
        <pt x="256" y="737" on="1"/>
        <pt x="-63" y="1305" on="1"/>
        <pt x="86" y="1305" on="1"/>
        <pt x="397" y="725" on="1"/>
        <pt x="397" y="1305" on="1"/>
        <pt x="535" y="1305" on="1"/>
        <pt x="535" y="725" on="1"/>
        <pt x="846" y="1305" on="1"/>
        <pt x="995" y="1305" on="1"/>
        <pt x="676" y="737" on="1"/>
        <pt x="995" y="0" on="1"/>
        <pt x="852" y="0" on="1"/>
        <pt x="590" y="618" on="1"/>
        <pt x="535" y="518" on="1"/>
        <pt x="535" y="0" on="1"/>
      </contour>
    </TTGlyph>
    <TTGlyph name="afii10025" xMin="27" yMin="-23" xMax="920" yMax="1327">
      <contour>
        <pt x="920" y="360" on="1"/>
        <pt x="920" y="274" on="0"/>
        <pt x="850" y="133" on="0"/>
        <pt x="733" y="33" on="0"/>
        <pt x="580" y="-23" on="0"/>
        <pt x="496" y="-23" on="1"/>
        <pt x="402" y="-23" on="0"/>
        <pt x="238" y="28" on="0"/>
        <pt x="113" y="130" on="0"/>
        <pt x="35" y="280" on="0"/>
        <pt x="27" y="379" on="1"/>
        <pt x="160" y="397" on="1"/>
        <pt x="172" y="247" on="0"/>
        <pt x="265" y="170" on="1"/>
        <pt x="357" y="94" on="0"/>
        <pt x="496" y="94" on="1"/>
        <pt x="555" y="94" on="0"/>
        <pt x="659" y="134" on="0"/>
        <pt x="737" y="204" on="0"/>
        <pt x="782" y="302" on="0"/>
        <pt x="782" y="360" on="1"/>
        <pt x="782" y="440" on="0"/>
        <pt x="732" y="541" on="0"/>
        <pt x="635" y="598" on="0"/>
        <pt x="493" y="618" on="0"/>
        <pt x="401" y="618" on="1"/>
        <pt x="401" y="735" on="1"/>
        <pt x="468" y="735" on="0"/>
        <pt x="596" y="757" on="0"/>
        <pt x="696" y="811" on="0"/>
        <pt x="758" y="900" on="0"/>
        <pt x="758" y="967" on="1"/>
        <pt x="758" y="1077" on="0"/>
        <pt x="685" y="1143" on="1"/>
        <pt x="612" y="1210" on="0"/>
        <pt x="496" y="1210" on="1"/>
        <pt x="431" y="1210" on="0"/>
        <pt x="310" y="1160" on="0"/>
        <pt x="268" y="1119" on="1"/>
        <pt x="228" y="1081" on="0"/>
        <pt x="174" y="969" on="0"/>
        <pt x="174" y="893" on="1"/>
        <pt x="49" y="893" on="1"/>
        <pt x="49" y="1305" on="1"/>
        <pt x="166" y="1305" on="1"/>
        <pt x="166" y="1153" on="1"/>
        <pt x="190" y="1202" on="0"/>
        <pt x="264" y="1268" on="0"/>
        <pt x="352" y="1309" on="0"/>
        <pt x="448" y="1327" on="0"/>
        <pt x="496" y="1327" on="1"/>
        <pt x="580" y="1327" on="0"/>
        <pt x="726" y="1278" on="0"/>
        <pt x="833" y="1186" on="0"/>
        <pt x="895" y="1052" on="0"/>
        <pt x="895" y="967" on="1"/>
        <pt x="895" y="855" on="0"/>
        <pt x="763" y="709" on="0"/>
        <pt x="639" y="690" on="1"/>
        <pt x="708" y="680" on="0"/>
        <pt x="813" y="620" on="0"/>
        <pt x="884" y="531" on="0"/>
        <pt x="920" y="420" on="0"/>
      </contour>
    </TTGlyph>
    <TTGlyph name="afii10026" xMin="49" yMin="0" xMax="883" yMax="1305">
      <contour>
        <pt x="49" y="1305" on="1"/>
        <pt x="186" y="1305" on="1"/>
        <pt x="186" y="252" on="1"/>
        <pt x="690" y="1305" on="1"/>
        <pt x="883" y="1305" on="1"/>
        <pt x="883" y="0" on="1"/>
        <pt x="745" y="0" on="1"/>
        <pt x="745" y="1104" on="1"/>
        <pt x="219" y="0" on="1"/>
        <pt x="49" y="0" on="1"/>
      </contour>
    </TTGlyph>
    <TTGlyph name="afii10027" xMin="49" yMin="0" xMax="883" yMax="1657">
      <component glyphName="afii10026" x="0" y="0" flags="0x204"/>
      <component glyphName="breve" x="0" y="371" flags="0x4"/>
    </TTGlyph>
    <TTGlyph name="afii10028" xMin="49" yMin="0" xMax="926" yMax="1305">
      <contour>
        <pt x="926" y="0" on="1"/>
        <pt x="758" y="0" on="1"/>
        <pt x="324" y="639" on="1"/>
        <pt x="186" y="485" on="1"/>
        <pt x="186" y="0" on="1"/>
        <pt x="49" y="0" on="1"/>
        <pt x="49" y="1305" on="1"/>
        <pt x="186" y="1305" on="1"/>
        <pt x="186" y="670" on="1"/>
        <pt x="745" y="1305" on="1"/>
        <pt x="926" y="1305" on="1"/>
        <pt x="414" y="735" on="1"/>
      </contour>
    </TTGlyph>
    <TTGlyph name="afii10029" xMin="-25" yMin="-23" xMax="883" yMax="1305">
      <contour>
        <pt x="883" y="1305" on="1"/>
        <pt x="883" y="0" on="1"/>
        <pt x="745" y="0" on="1"/>
        <pt x="745" y="1188" on="1"/>
        <pt x="324" y="1188" on="1"/>
        <pt x="324" y="207" on="1"/>
        <pt x="324" y="152" on="0"/>
        <pt x="287" y="66" on="0"/>
        <pt x="225" y="8" on="0"/>
        <pt x="143" y="-23" on="0"/>
        <pt x="98" y="-23" on="1"/>
        <pt x="14" y="-23" on="0"/>
        <pt x="-25" y="2" on="1"/>
        <pt x="2" y="111" on="1"/>
        <pt x="16" y="102" on="0"/>
        <pt x="51" y="94" on="0"/>
        <pt x="80" y="94" on="1"/>
        <pt x="186" y="94" on="0"/>
        <pt x="186" y="207" on="1"/>
        <pt x="186" y="1305" on="1"/>
      </contour>
    </TTGlyph>
    <TTGlyph name="afii10030" xMin="49" yMin="0" xMax="883" yMax="1305">
      <contour>
        <pt x="883" y="0" on="1"/>
        <pt x="745" y="0" on="1"/>
        <pt x="745" y="1087" on="1"/>
        <pt x="514" y="414" on="1"/>
        <pt x="416" y="414" on="1"/>
        <pt x="186" y="1087" on="1"/>
        <pt x="186" y="0" on="1"/>
        <pt x="49" y="0" on="1"/>
        <pt x="49" y="1305" on="1"/>
        <pt x="227" y="1305" on="1"/>
        <pt x="465" y="623" on="1"/>
        <pt x="705" y="1305" on="1"/>
        <pt x="883" y="1305" on="1"/>
      </contour>
    </TTGlyph>
    <TTGlyph name="afii10031" xMin="49" yMin="0" xMax="883" yMax="1305">
      <contour>
        <pt x="883" y="0" on="1"/>
        <pt x="745" y="0" on="1"/>
        <pt x="745" y="604" on="1"/>
        <pt x="186" y="604" on="1"/>
        <pt x="186" y="0" on="1"/>
        <pt x="49" y="0" on="1"/>
        <pt x="49" y="1305" on="1"/>
        <pt x="186" y="1305" on="1"/>
        <pt x="186" y="721" on="1"/>
        <pt x="745" y="721" on="1"/>
        <pt x="745" y="1305" on="1"/>
        <pt x="883" y="1305" on="1"/>
      </contour>
    </TTGlyph>
    <TTGlyph name="afii10032" xMin="-33" yMin="-23" xMax="967" yMax="1327">
      <contour>
        <pt x="967" y="651" on="1"/>
        <pt x="967" y="520" on="0"/>
        <pt x="913" y="276" on="0"/>
        <pt x="795" y="90" on="0"/>
        <pt x="604" y="-23" on="0"/>
        <pt x="467" y="-23" on="1"/>
        <pt x="330" y="-23" on="0"/>
        <pt x="139" y="90" on="0"/>
        <pt x="20" y="276" on="0"/>
        <pt x="-33" y="520" on="0"/>
        <pt x="-33" y="651" on="1"/>
        <pt x="-33" y="782" on="0"/>
        <pt x="20" y="1026" on="0"/>
        <pt x="141" y="1214" on="0"/>
        <pt x="332" y="1327" on="0"/>
        <pt x="467" y="1327" on="1"/>
        <pt x="602" y="1327" on="0"/>
        <pt x="793" y="1214" on="0"/>
        <pt x="911" y="1026" on="0"/>
        <pt x="967" y="782" on="0"/>
      </contour>
      <contour>
        <pt x="829" y="651" on="1"/>
        <pt x="829" y="780" on="0"/>
        <pt x="780" y="987" on="0"/>
        <pt x="688" y="1133" on="0"/>
        <pt x="553" y="1210" on="0"/>
        <pt x="467" y="1210" on="1"/>
        <pt x="360" y="1210" on="0"/>
        <pt x="221" y="1110" on="0"/>
        <pt x="137" y="948" on="0"/>
        <pt x="104" y="750" on="0"/>
        <pt x="104" y="651" on="1"/>
        <pt x="104" y="553" on="0"/>
        <pt x="137" y="354" on="0"/>
        <pt x="221" y="195" on="0"/>
        <pt x="360" y="94" on="0"/>
        <pt x="467" y="94" on="1"/>
        <pt x="573" y="94" on="0"/>
        <pt x="713" y="195" on="0"/>
        <pt x="797" y="354" on="0"/>
        <pt x="829" y="553" on="0"/>
      </contour>
    </TTGlyph>
    <TTGlyph name="afii10033" xMin="49" yMin="0" xMax="883" yMax="1305">
      <contour>
        <pt x="883" y="0" on="1"/>
        <pt x="745" y="0" on="1"/>
        <pt x="745" y="1188" on="1"/>
        <pt x="186" y="1188" on="1"/>
        <pt x="186" y="0" on="1"/>
        <pt x="49" y="0" on="1"/>
        <pt x="49" y="1305" on="1"/>
        <pt x="883" y="1305" on="1"/>
      </contour>
    </TTGlyph>
    <TTGlyph name="afii10034" xMin="49" yMin="0" xMax="930" yMax="1305">
      <contour>
        <pt x="930" y="932" on="1"/>
        <pt x="930" y="743" on="0"/>
        <pt x="694" y="559" on="0"/>
        <pt x="481" y="559" on="1"/>
        <pt x="186" y="559" on="1"/>
        <pt x="186" y="0" on="1"/>
        <pt x="49" y="0" on="1"/>
        <pt x="49" y="1305" on="1"/>
        <pt x="479" y="1305" on="1"/>
        <pt x="694" y="1305" on="0"/>
        <pt x="930" y="1118" on="0"/>
      </contour>
      <contour>
        <pt x="793" y="932" on="1"/>
        <pt x="793" y="1067" on="0"/>
        <pt x="623" y="1188" on="0"/>
        <pt x="481" y="1188" on="1"/>
        <pt x="186" y="1188" on="1"/>
        <pt x="186" y="676" on="1"/>
        <pt x="481" y="676" on="1"/>
        <pt x="623" y="676" on="0"/>
        <pt x="793" y="797" on="0"/>
      </contour>
    </TTGlyph>
    <TTGlyph name="afii10035" xMin="-20" yMin="-20" xMax="940" yMax="1327">
      <contour>
        <pt x="940" y="342" on="1"/>
        <pt x="889" y="174" on="0"/>
        <pt x="657" y="-20" on="0"/>
        <pt x="481" y="-20" on="1"/>
        <pt x="344" y="-20" on="0"/>
        <pt x="154" y="90" on="0"/>
        <pt x="33" y="276" on="0"/>
        <pt x="-20" y="520" on="0"/>
        <pt x="-20" y="651" on="1"/>
        <pt x="-20" y="782" on="0"/>
        <pt x="33" y="1026" on="0"/>
        <pt x="154" y="1214" on="0"/>
        <pt x="344" y="1327" on="0"/>
        <pt x="481" y="1327" on="1"/>
        <pt x="602" y="1327" on="0"/>
        <pt x="774" y="1241" on="0"/>
        <pt x="815" y="1153" on="1"/>
        <pt x="815" y="1305" on="1"/>
        <pt x="932" y="1305" on="1"/>
        <pt x="932" y="877" on="1"/>
        <pt x="815" y="877" on="1"/>
        <pt x="815" y="946" on="0"/>
        <pt x="762" y="1069" on="0"/>
        <pt x="672" y="1159" on="0"/>
        <pt x="549" y="1210" on="0"/>
        <pt x="481" y="1210" on="1"/>
        <pt x="375" y="1210" on="0"/>
        <pt x="236" y="1110" on="0"/>
        <pt x="152" y="948" on="0"/>
        <pt x="117" y="750" on="0"/>
        <pt x="117" y="651" on="1"/>
        <pt x="117" y="553" on="0"/>
        <pt x="152" y="354" on="0"/>
        <pt x="236" y="197" on="0"/>
        <pt x="375" y="96" on="0"/>
        <pt x="481" y="96" on="1"/>
        <pt x="725" y="96" on="0"/>
        <pt x="821" y="389" on="1"/>
      </contour>
    </TTGlyph>
    <TTGlyph name="afii10036" xMin="0" yMin="0" xMax="932" yMax="1305">
      <contour>
        <pt x="932" y="864" on="1"/>
        <pt x="815" y="864" on="1"/>
        <pt x="815" y="1188" on="1"/>
        <pt x="535" y="1188" on="1"/>
        <pt x="535" y="117" on="1"/>
        <pt x="745" y="117" on="1"/>
        <pt x="745" y="0" on="1"/>
        <pt x="186" y="0" on="1"/>
        <pt x="186" y="117" on="1"/>
        <pt x="397" y="117" on="1"/>
        <pt x="397" y="1188" on="1"/>
        <pt x="117" y="1188" on="1"/>
        <pt x="117" y="864" on="1"/>
        <pt x="0" y="864" on="1"/>
        <pt x="0" y="1305" on="1"/>
        <pt x="932" y="1305" on="1"/>
      </contour>
    </TTGlyph>
    <TTGlyph name="afii10037" xMin="-31" yMin="-23" xMax="961" yMax="1305">
      <contour>
        <pt x="961" y="1305" on="1"/>
        <pt x="457" y="137" on="1"/>
        <pt x="418" y="39" on="0"/>
        <pt x="276" y="-23" on="0"/>
        <pt x="190" y="-23" on="1"/>
        <pt x="94" y="-23" on="0"/>
        <pt x="-2" y="12" on="1"/>
        <pt x="25" y="131" on="1"/>
        <pt x="72" y="111" on="0"/>
        <pt x="162" y="94" on="0"/>
        <pt x="190" y="94" on="1"/>
        <pt x="258" y="94" on="0"/>
        <pt x="309" y="160" on="0"/>
        <pt x="328" y="205" on="1"/>
        <pt x="385" y="346" on="1"/>
        <pt x="-31" y="1305" on="1"/>
        <pt x="131" y="1305" on="1"/>
        <pt x="467" y="489" on="1"/>
        <pt x="797" y="1305" on="1"/>
      </contour>
    </TTGlyph>
    <TTGlyph name="afii10038" xMin="-20" yMin="0" xMax="956" yMax="1305">
      <contour>
        <pt x="956" y="655" on="1"/>
        <pt x="956" y="557" on="0"/>
        <pt x="895" y="389" on="0"/>
        <pt x="784" y="262" on="0"/>
        <pt x="629" y="182" on="0"/>
        <pt x="535" y="172" on="1"/>
        <pt x="535" y="0" on="1"/>
        <pt x="397" y="0" on="1"/>
        <pt x="397" y="174" on="1"/>
        <pt x="303" y="184" on="0"/>
        <pt x="150" y="264" on="0"/>
        <pt x="39" y="389" on="0"/>
        <pt x="-20" y="557" on="0"/>
        <pt x="-20" y="655" on="1"/>
        <pt x="-20" y="754" on="0"/>
        <pt x="39" y="922" on="0"/>
        <pt x="150" y="1051" on="0"/>
        <pt x="303" y="1130" on="0"/>
        <pt x="397" y="1143" on="1"/>
        <pt x="397" y="1305" on="1"/>
        <pt x="535" y="1305" on="1"/>
        <pt x="535" y="1143" on="1"/>
        <pt x="629" y="1133" on="0"/>
        <pt x="784" y="1051" on="0"/>
        <pt x="895" y="924" on="0"/>
        <pt x="956" y="754" on="0"/>
      </contour>
      <contour>
        <pt x="819" y="655" on="1"/>
        <pt x="819" y="725" on="0"/>
        <pt x="780" y="850" on="0"/>
        <pt x="709" y="948" on="0"/>
        <pt x="602" y="1012" on="0"/>
        <pt x="535" y="1024" on="1"/>
        <pt x="535" y="293" on="1"/>
        <pt x="670" y="315" on="0"/>
        <pt x="819" y="514" on="0"/>
      </contour>
      <contour>
        <pt x="117" y="655" on="1"/>
        <pt x="117" y="514" on="0"/>
        <pt x="262" y="315" on="0"/>
        <pt x="397" y="293" on="1"/>
        <pt x="397" y="1024" on="1"/>
        <pt x="330" y="1012" on="0"/>
        <pt x="225" y="946" on="0"/>
        <pt x="154" y="850" on="0"/>
        <pt x="117" y="725" on="0"/>
      </contour>
    </TTGlyph>
    <TTGlyph name="afii10039" xMin="-23" yMin="0" xMax="954" yMax="1305">
      <contour>
        <pt x="954" y="0" on="1"/>
        <pt x="584" y="0" on="1"/>
        <pt x="584" y="117" on="1"/>
        <pt x="672" y="117" on="1"/>
        <pt x="467" y="545" on="1"/>
        <pt x="260" y="117" on="1"/>
        <pt x="348" y="117" on="1"/>
        <pt x="348" y="0" on="1"/>
        <pt x="-23" y="0" on="1"/>
        <pt x="-23" y="117" on="1"/>
        <pt x="104" y="117" on="1"/>
        <pt x="387" y="657" on="1"/>
        <pt x="109" y="1188" on="1"/>
        <pt x="0" y="1188" on="1"/>
        <pt x="0" y="1305" on="1"/>
        <pt x="373" y="1305" on="1"/>
        <pt x="373" y="1188" on="1"/>
        <pt x="264" y="1188" on="1"/>
        <pt x="467" y="770" on="1"/>
        <pt x="664" y="1188" on="1"/>
        <pt x="559" y="1188" on="1"/>
        <pt x="559" y="1305" on="1"/>
        <pt x="932" y="1305" on="1"/>
        <pt x="932" y="1188" on="1"/>
        <pt x="819" y="1188" on="1"/>
        <pt x="547" y="657" on="1"/>
        <pt x="827" y="117" on="1"/>
        <pt x="954" y="117" on="1"/>
      </contour>
    </TTGlyph>
    <TTGlyph name="afii10040" xMin="49" yMin="-319" xMax="1055" yMax="1305">
      <contour>
        <pt x="1055" y="117" on="1"/>
        <pt x="1055" y="-319" on="1"/>
        <pt x="932" y="-319" on="1"/>
        <pt x="932" y="0" on="1"/>
        <pt x="49" y="0" on="1"/>
        <pt x="49" y="1305" on="1"/>
        <pt x="186" y="1305" on="1"/>
        <pt x="186" y="117" on="1"/>
        <pt x="745" y="117" on="1"/>
        <pt x="745" y="1305" on="1"/>
        <pt x="883" y="1305" on="1"/>
        <pt x="883" y="117" on="1"/>
      </contour>
    </TTGlyph>
    <TTGlyph name="afii10041" xMin="49" yMin="0" xMax="883" yMax="1305">
      <contour>
        <pt x="49" y="1305" on="1"/>
        <pt x="186" y="1305" on="1"/>
        <pt x="186" y="729" on="1"/>
        <pt x="186" y="604" on="0"/>
        <pt x="295" y="467" on="0"/>
        <pt x="416" y="467" on="1"/>
        <pt x="492" y="467" on="0"/>
        <pt x="614" y="537" on="0"/>
        <pt x="700" y="653" on="0"/>
        <pt x="745" y="805" on="0"/>
        <pt x="745" y="887" on="1"/>
        <pt x="745" y="1305" on="1"/>
        <pt x="883" y="1305" on="1"/>
        <pt x="883" y="0" on="1"/>
        <pt x="745" y="0" on="1"/>
        <pt x="745" y="606" on="1"/>
        <pt x="647" y="350" on="0"/>
        <pt x="393" y="350" on="1"/>
        <pt x="49" y="350" on="0"/>
        <pt x="49" y="729" on="1"/>
      </contour>
    </TTGlyph>
    <TTGlyph name="afii10042" xMin="0" yMin="0" xMax="932" yMax="1305">
      <contour>
        <pt x="397" y="1305" on="1"/>
        <pt x="535" y="1305" on="1"/>
        <pt x="535" y="117" on="1"/>
        <pt x="795" y="117" on="1"/>
        <pt x="795" y="1305" on="1"/>
        <pt x="932" y="1305" on="1"/>
        <pt x="932" y="0" on="1"/>
        <pt x="0" y="0" on="1"/>
        <pt x="0" y="1305" on="1"/>
        <pt x="137" y="1305" on="1"/>
        <pt x="137" y="117" on="1"/>
        <pt x="397" y="117" on="1"/>
      </contour>
    </TTGlyph>
    <TTGlyph name="afii10043" xMin="0" yMin="-319" xMax="1055" yMax="1305">
      <contour>
        <pt x="0" y="0" on="1"/>
        <pt x="0" y="1305" on="1"/>
        <pt x="137" y="1305" on="1"/>
        <pt x="137" y="117" on="1"/>
        <pt x="397" y="117" on="1"/>
        <pt x="397" y="1305" on="1"/>
        <pt x="535" y="1305" on="1"/>
        <pt x="535" y="117" on="1"/>
        <pt x="795" y="117" on="1"/>
        <pt x="795" y="1305" on="1"/>
        <pt x="932" y="1305" on="1"/>
        <pt x="932" y="117" on="1"/>
        <pt x="1055" y="117" on="1"/>
        <pt x="1055" y="-319" on="1"/>
        <pt x="932" y="-319" on="1"/>
        <pt x="932" y="0" on="1"/>
      </contour>
    </TTGlyph>
    <TTGlyph name="afii10044" xMin="0" yMin="0" xMax="930" yMax="1305">
      <contour>
        <pt x="0" y="1305" on="1"/>
        <pt x="373" y="1305" on="1"/>
        <pt x="373" y="745" on="1"/>
        <pt x="551" y="745" on="1"/>
        <pt x="731" y="745" on="0"/>
        <pt x="930" y="557" on="0"/>
        <pt x="930" y="369" on="1"/>
        <pt x="930" y="182" on="0"/>
        <pt x="731" y="0" on="0"/>
        <pt x="549" y="0" on="1"/>
        <pt x="236" y="0" on="1"/>
        <pt x="236" y="1188" on="1"/>
        <pt x="0" y="1188" on="1"/>
      </contour>
      <contour>
        <pt x="793" y="369" on="1"/>
        <pt x="793" y="496" on="0"/>
        <pt x="664" y="629" on="0"/>
        <pt x="553" y="629" on="1"/>
        <pt x="373" y="629" on="1"/>
        <pt x="373" y="117" on="1"/>
        <pt x="553" y="117" on="1"/>
        <pt x="664" y="117" on="0"/>
        <pt x="793" y="244" on="0"/>
      </contour>
    </TTGlyph>
    <TTGlyph name="afii10045" xMin="0" yMin="0" xMax="932" yMax="1305">
      <contour>
        <pt x="0" y="1305" on="1"/>
        <pt x="137" y="1305" on="1"/>
        <pt x="137" y="745" on="1"/>
        <pt x="272" y="745" on="1"/>
        <pt x="434" y="745" on="0"/>
        <pt x="612" y="557" on="0"/>
        <pt x="612" y="369" on="1"/>
        <pt x="612" y="182" on="0"/>
        <pt x="434" y="0" on="0"/>
        <pt x="270" y="0" on="1"/>
        <pt x="0" y="0" on="1"/>
      </contour>
      <contour>
        <pt x="475" y="369" on="1"/>
        <pt x="475" y="496" on="0"/>
        <pt x="367" y="629" on="0"/>
        <pt x="274" y="629" on="1"/>
        <pt x="137" y="629" on="1"/>
        <pt x="137" y="117" on="1"/>
        <pt x="274" y="117" on="1"/>
        <pt x="367" y="117" on="0"/>
        <pt x="475" y="244" on="0"/>
      </contour>
      <contour>
        <pt x="795" y="1305" on="1"/>
        <pt x="932" y="1305" on="1"/>
        <pt x="932" y="0" on="1"/>
        <pt x="795" y="0" on="1"/>
      </contour>
    </TTGlyph>
    <TTGlyph name="afii10046" xMin="49" yMin="0" xMax="930" yMax="1305">
      <contour>
        <pt x="793" y="369" on="1"/>
        <pt x="793" y="496" on="0"/>
        <pt x="623" y="629" on="0"/>
        <pt x="481" y="629" on="1"/>
        <pt x="186" y="629" on="1"/>
        <pt x="186" y="117" on="1"/>
        <pt x="481" y="117" on="1"/>
        <pt x="623" y="117" on="0"/>
        <pt x="793" y="244" on="0"/>
      </contour>
      <contour>
        <pt x="186" y="745" on="1"/>
        <pt x="481" y="745" on="1"/>
        <pt x="694" y="745" on="0"/>
        <pt x="930" y="557" on="0"/>
        <pt x="930" y="369" on="1"/>
        <pt x="930" y="182" on="0"/>
        <pt x="694" y="0" on="0"/>
        <pt x="479" y="0" on="1"/>
        <pt x="49" y="0" on="1"/>
        <pt x="49" y="1305" on="1"/>
        <pt x="186" y="1305" on="1"/>
      </contour>
    </TTGlyph>
    <TTGlyph name="afii10047" xMin="-8" yMin="-23" xMax="952" yMax="1327">
      <contour>
        <pt x="111" y="389" on="1"/>
        <pt x="207" y="94" on="0"/>
        <pt x="451" y="94" on="1"/>
        <pt x="504" y="94" on="0"/>
        <pt x="591" y="121" on="0"/>
        <pt x="662" y="169" on="0"/>
        <pt x="717" y="235" on="0"/>
        <pt x="738" y="274" on="1"/>
        <pt x="776" y="345" on="0"/>
        <pt x="811" y="516" on="0"/>
        <pt x="814" y="604" on="1"/>
        <pt x="232" y="604" on="1"/>
        <pt x="232" y="721" on="1"/>
        <pt x="814" y="721" on="1"/>
        <pt x="809" y="812" on="0"/>
        <pt x="766" y="988" on="0"/>
        <pt x="681" y="1126" on="0"/>
        <pt x="547" y="1210" on="0"/>
        <pt x="451" y="1210" on="1"/>
        <pt x="382" y="1210" on="0"/>
        <pt x="260" y="1159" on="0"/>
        <pt x="170" y="1069" on="0"/>
        <pt x="117" y="947" on="0"/>
        <pt x="117" y="877" on="1"/>
        <pt x="0" y="877" on="1"/>
        <pt x="0" y="1305" on="1"/>
        <pt x="117" y="1305" on="1"/>
        <pt x="117" y="1153" on="1"/>
        <pt x="159" y="1241" on="0"/>
        <pt x="330" y="1327" on="0"/>
        <pt x="451" y="1327" on="1"/>
        <pt x="588" y="1327" on="0"/>
        <pt x="779" y="1214" on="0"/>
        <pt x="898" y="1026" on="0"/>
        <pt x="952" y="782" on="0"/>
        <pt x="952" y="651" on="1"/>
        <pt x="952" y="563" on="0"/>
        <pt x="929" y="396" on="0"/>
        <pt x="878" y="246" on="0"/>
        <pt x="799" y="120" on="0"/>
        <pt x="687" y="29" on="0"/>
        <pt x="542" y="-23" on="0"/>
        <pt x="451" y="-23" on="1"/>
        <pt x="275" y="-23" on="0"/>
        <pt x="159" y="75" on="1"/>
        <pt x="43" y="175" on="0"/>
        <pt x="-8" y="342" on="1"/>
      </contour>
    </TTGlyph>
    <TTGlyph name="afii10048" xMin="49" yMin="-23" xMax="936" yMax="1327">
      <contour>
        <pt x="49" y="1305" on="1"/>
        <pt x="186" y="1305" on="1"/>
        <pt x="186" y="711" on="1"/>
        <pt x="358" y="711" on="1"/>
        <pt x="371" y="1327" on="0"/>
        <pt x="647" y="1327" on="1"/>
        <pt x="936" y="1327" on="0"/>
        <pt x="936" y="651" on="1"/>
        <pt x="936" y="-23" on="0"/>
        <pt x="647" y="-23" on="1"/>
        <pt x="371" y="-23" on="0"/>
        <pt x="358" y="594" on="1"/>
        <pt x="186" y="594" on="1"/>
        <pt x="186" y="0" on="1"/>
        <pt x="49" y="0" on="1"/>
      </contour>
      <contour>
        <pt x="647" y="94" on="1"/>
        <pt x="694" y="94" on="0"/>
        <pt x="754" y="176" on="0"/>
        <pt x="786" y="324" on="0"/>
        <pt x="799" y="528" on="0"/>
        <pt x="799" y="651" on="1"/>
        <pt x="799" y="774" on="0"/>
        <pt x="786" y="981" on="0"/>
        <pt x="754" y="1128" on="0"/>
        <pt x="694" y="1210" on="0"/>
        <pt x="647" y="1210" on="1"/>
        <pt x="600" y="1210" on="0"/>
        <pt x="541" y="1128" on="0"/>
        <pt x="508" y="981" on="0"/>
        <pt x="496" y="774" on="0"/>
        <pt x="496" y="651" on="1"/>
        <pt x="496" y="528" on="0"/>
        <pt x="508" y="324" on="0"/>
        <pt x="541" y="176" on="0"/>
        <pt x="600" y="94" on="0"/>
      </contour>
    </TTGlyph>
    <TTGlyph name="afii10049" xMin="-12" yMin="0" xMax="883" yMax="1305">
      <contour>
        <pt x="381" y="565" on="1"/>
        <pt x="299" y="571" on="0"/>
        <pt x="160" y="627" on="0"/>
        <pt x="59" y="719" on="0"/>
        <pt x="2" y="850" on="0"/>
        <pt x="2" y="932" on="1"/>
        <pt x="2" y="1118" on="0"/>
        <pt x="238" y="1305" on="0"/>
        <pt x="453" y="1305" on="1"/>
        <pt x="883" y="1305" on="1"/>
        <pt x="883" y="0" on="1"/>
        <pt x="745" y="0" on="1"/>
        <pt x="745" y="559" on="1"/>
        <pt x="543" y="559" on="1"/>
        <pt x="162" y="0" on="1"/>
        <pt x="-12" y="0" on="1"/>
      </contour>
      <contour>
        <pt x="143" y="932" on="1"/>
        <pt x="143" y="797" on="0"/>
        <pt x="309" y="676" on="0"/>
        <pt x="453" y="676" on="1"/>
        <pt x="745" y="676" on="1"/>
        <pt x="745" y="1188" on="1"/>
        <pt x="453" y="1188" on="1"/>
        <pt x="309" y="1188" on="0"/>
        <pt x="143" y="1065" on="0"/>
      </contour>
    </TTGlyph>
    <TTGlyph name="afii10050" xMin="49" yMin="0" xMax="932" yMax="1491">
      <contour>
        <pt x="815" y="1491" on="1"/>
        <pt x="932" y="1491" on="1"/>
        <pt x="932" y="1188" on="1"/>
        <pt x="186" y="1188" on="1"/>
        <pt x="186" y="0" on="1"/>
        <pt x="49" y="0" on="1"/>
        <pt x="49" y="1305" on="1"/>
        <pt x="815" y="1305" on="1"/>
      </contour>
    </TTGlyph>
    <TTGlyph name="afii10051" xMin="-137" yMin="-23" xMax="883" yMax="1305">
      <contour>
        <pt x="-137" y="1305" on="1"/>
        <pt x="373" y="1305" on="1"/>
        <pt x="373" y="1188" on="1"/>
        <pt x="186" y="1188" on="1"/>
        <pt x="186" y="698" on="1"/>
        <pt x="285" y="954" on="0"/>
        <pt x="539" y="954" on="1"/>
        <pt x="883" y="954" on="0"/>
        <pt x="883" y="575" on="1"/>
        <pt x="883" y="207" on="1"/>
        <pt x="883" y="152" on="0"/>
        <pt x="846" y="66" on="0"/>
        <pt x="784" y="8" on="0"/>
        <pt x="702" y="-23" on="0"/>
        <pt x="657" y="-23" on="1"/>
        <pt x="573" y="-23" on="0"/>
        <pt x="535" y="2" on="1"/>
        <pt x="561" y="111" on="1"/>
        <pt x="575" y="102" on="0"/>
        <pt x="610" y="94" on="0"/>
        <pt x="639" y="94" on="1"/>
        <pt x="745" y="94" on="0"/>
        <pt x="745" y="207" on="1"/>
        <pt x="745" y="575" on="1"/>
        <pt x="745" y="700" on="0"/>
        <pt x="637" y="838" on="0"/>
        <pt x="516" y="838" on="1"/>
        <pt x="440" y="838" on="0"/>
        <pt x="317" y="768" on="0"/>
        <pt x="231" y="651" on="0"/>
        <pt x="186" y="500" on="0"/>
        <pt x="186" y="418" on="1"/>
        <pt x="186" y="0" on="1"/>
        <pt x="49" y="0" on="1"/>
        <pt x="49" y="1188" on="1"/>
        <pt x="-137" y="1188" on="1"/>
      </contour>
    </TTGlyph>
    <TTGlyph name="afii10052" xMin="49" yMin="0" xMax="932" yMax="1737">
      <component glyphName="afii10020" x="0" y="0" flags="0x204"/>
      <component glyphName="acute" x="0" y="373" flags="0x4"/>
    </TTGlyph>
    <TTGlyph name="afii10053" xMin="-20" yMin="-23" xMax="940" yMax="1327">
      <contour>
        <pt x="940" y="342" on="1"/>
        <pt x="889" y="175" on="0"/>
        <pt x="773" y="75" on="1"/>
        <pt x="657" y="-23" on="0"/>
        <pt x="481" y="-23" on="1"/>
        <pt x="390" y="-23" on="0"/>
        <pt x="245" y="29" on="0"/>
        <pt x="133" y="120" on="0"/>
        <pt x="54" y="246" on="0"/>
        <pt x="3" y="396" on="0"/>
        <pt x="-20" y="563" on="0"/>
        <pt x="-20" y="651" on="1"/>
        <pt x="-20" y="782" on="0"/>
        <pt x="34" y="1026" on="0"/>
        <pt x="153" y="1214" on="0"/>
        <pt x="344" y="1327" on="0"/>
        <pt x="481" y="1327" on="1"/>
        <pt x="602" y="1327" on="0"/>
        <pt x="773" y="1241" on="0"/>
        <pt x="815" y="1153" on="1"/>
        <pt x="815" y="1305" on="1"/>
        <pt x="932" y="1305" on="1"/>
        <pt x="932" y="877" on="1"/>
        <pt x="815" y="877" on="1"/>
        <pt x="815" y="947" on="0"/>
        <pt x="762" y="1069" on="0"/>
        <pt x="672" y="1159" on="0"/>
        <pt x="550" y="1210" on="0"/>
        <pt x="481" y="1210" on="1"/>
        <pt x="385" y="1210" on="0"/>
        <pt x="251" y="1126" on="0"/>
        <pt x="166" y="988" on="0"/>
        <pt x="123" y="812" on="0"/>
        <pt x="118" y="721" on="1"/>
        <pt x="700" y="721" on="1"/>
        <pt x="700" y="604" on="1"/>
        <pt x="118" y="604" on="1"/>
        <pt x="121" y="516" on="0"/>
        <pt x="156" y="345" on="0"/>
        <pt x="194" y="274" on="1"/>
        <pt x="215" y="235" on="0"/>
        <pt x="270" y="169" on="0"/>
        <pt x="341" y="121" on="0"/>
        <pt x="428" y="94" on="0"/>
        <pt x="481" y="94" on="1"/>
        <pt x="725" y="94" on="0"/>
        <pt x="821" y="389" on="1"/>
      </contour>
    </TTGlyph>
    <TTGlyph name="afii10054" xMin="25" yMin="-23" xMax="899" yMax="1327">
      <contour>
        <pt x="899" y="340" on="1"/>
        <pt x="899" y="258" on="0"/>
        <pt x="831" y="125" on="0"/>
        <pt x="717" y="29" on="0"/>
        <pt x="569" y="-23" on="0"/>
        <pt x="489" y="-23" on="1"/>
        <pt x="379" y="-23" on="0"/>
        <pt x="195" y="59" on="0"/>
        <pt x="141" y="139" on="1"/>
        <pt x="141" y="0" on="1"/>
        <pt x="25" y="0" on="1"/>
        <pt x="25" y="397" on="1"/>
        <pt x="141" y="397" on="1"/>
        <pt x="141" y="330" on="0"/>
        <pt x="203" y="219" on="0"/>
        <pt x="299" y="139" on="0"/>
        <pt x="424" y="94" on="0"/>
        <pt x="489" y="94" on="1"/>
        <pt x="547" y="94" on="0"/>
        <pt x="645" y="127" on="0"/>
        <pt x="719" y="188" on="0"/>
        <pt x="762" y="276" on="0"/>
        <pt x="762" y="332" on="1"/>
        <pt x="762" y="395" on="0"/>
        <pt x="707" y="485" on="0"/>
        <pt x="614" y="549" on="0"/>
        <pt x="498" y="594" on="0"/>
        <pt x="438" y="616" on="1"/>
        <pt x="367" y="641" on="0"/>
        <pt x="225" y="696" on="0"/>
        <pt x="113" y="780" on="0"/>
        <pt x="43" y="901" on="0"/>
        <pt x="43" y="991" on="1"/>
        <pt x="43" y="1071" on="0"/>
        <pt x="111" y="1196" on="0"/>
        <pt x="221" y="1282" on="0"/>
        <pt x="367" y="1327" on="0"/>
        <pt x="444" y="1327" on="1"/>
        <pt x="539" y="1327" on="0"/>
        <pt x="700" y="1249" on="0"/>
        <pt x="745" y="1169" on="1"/>
        <pt x="745" y="1305" on="1"/>
        <pt x="866" y="1305" on="1"/>
        <pt x="866" y="932" on="1"/>
        <pt x="745" y="932" on="1"/>
        <pt x="745" y="991" on="0"/>
        <pt x="696" y="1094" on="0"/>
        <pt x="612" y="1167" on="0"/>
        <pt x="504" y="1210" on="0"/>
        <pt x="444" y="1210" on="1"/>
        <pt x="391" y="1210" on="0"/>
        <pt x="295" y="1186" on="0"/>
        <pt x="223" y="1133" on="0"/>
        <pt x="180" y="1049" on="0"/>
        <pt x="180" y="991" on="1"/>
        <pt x="180" y="940" on="0"/>
        <pt x="231" y="868" on="0"/>
        <pt x="317" y="813" on="0"/>
        <pt x="430" y="768" on="0"/>
        <pt x="489" y="745" on="1"/>
        <pt x="563" y="719" on="0"/>
        <pt x="709" y="655" on="0"/>
        <pt x="825" y="565" on="0"/>
        <pt x="899" y="434" on="0"/>
      </contour>
    </TTGlyph>
    <TTGlyph name="afii10055" xMin="186" yMin="0" xMax="745" yMax="1305">
      <contour>
        <pt x="745" y="0" on="1"/>
        <pt x="186" y="0" on="1"/>
        <pt x="186" y="117" on="1"/>
        <pt x="397" y="117" on="1"/>
        <pt x="397" y="1188" on="1"/>
        <pt x="186" y="1188" on="1"/>
        <pt x="186" y="1305" on="1"/>
        <pt x="745" y="1305" on="1"/>
        <pt x="745" y="1188" on="1"/>
        <pt x="535" y="1188" on="1"/>
        <pt x="535" y="117" on="1"/>
        <pt x="745" y="117" on="1"/>
      </contour>
    </TTGlyph>
    <TTGlyph name="afii10056" xMin="186" yMin="0" xMax="745" yMax="1676">
      <component glyphName="I" x="0" y="0" flags="0x204"/>
      <component glyphName="dieresis" x="0" y="371" flags="0x4"/>
    </TTGlyph>
    <TTGlyph name="afii10057" xMin="-2" yMin="-23" xMax="883" yMax="1305">
      <contour>
        <pt x="883" y="498" on="1"/>
        <pt x="883" y="250" on="0"/>
        <pt x="672" y="-23" on="0"/>
        <pt x="455" y="-23" on="1"/>
        <pt x="281" y="-23" on="0"/>
        <pt x="45" y="160" on="0"/>
        <pt x="-2" y="342" on="1"/>
        <pt x="117" y="387" on="1"/>
        <pt x="160" y="225" on="0"/>
        <pt x="330" y="94" on="0"/>
        <pt x="455" y="94" on="1"/>
        <pt x="547" y="94" on="0"/>
        <pt x="662" y="168" on="0"/>
        <pt x="723" y="283" on="0"/>
        <pt x="745" y="426" on="0"/>
        <pt x="745" y="498" on="1"/>
        <pt x="745" y="1305" on="1"/>
        <pt x="883" y="1305" on="1"/>
      </contour>
    </TTGlyph>
    <TTGlyph name="afii10058" xMin="-139" yMin="-23" xMax="924" yMax="1305">
      <contour>
        <pt x="786" y="369" on="1"/>
        <pt x="786" y="496" on="0"/>
        <pt x="678" y="629" on="0"/>
        <pt x="586" y="629" on="1"/>
        <pt x="510" y="629" on="1"/>
        <pt x="510" y="117" on="1"/>
        <pt x="586" y="117" on="1"/>
        <pt x="678" y="117" on="0"/>
        <pt x="786" y="244" on="0"/>
      </contour>
      <contour>
        <pt x="510" y="1305" on="1"/>
        <pt x="510" y="745" on="1"/>
        <pt x="584" y="745" on="1"/>
        <pt x="745" y="745" on="0"/>
        <pt x="924" y="557" on="0"/>
        <pt x="924" y="369" on="1"/>
        <pt x="924" y="182" on="0"/>
        <pt x="745" y="0" on="0"/>
        <pt x="582" y="0" on="1"/>
        <pt x="373" y="0" on="1"/>
        <pt x="373" y="1188" on="1"/>
        <pt x="186" y="1188" on="1"/>
        <pt x="186" y="207" on="1"/>
        <pt x="186" y="152" on="0"/>
        <pt x="154" y="66" on="0"/>
        <pt x="96" y="8" on="0"/>
        <pt x="20" y="-23" on="0"/>
        <pt x="-23" y="-23" on="1"/>
        <pt x="-63" y="-23" on="0"/>
        <pt x="-117" y="-14" on="0"/>
        <pt x="-139" y="-4" on="1"/>
        <pt x="-115" y="111" on="1"/>
        <pt x="-102" y="102" on="0"/>
        <pt x="-70" y="94" on="0"/>
        <pt x="-45" y="94" on="1"/>
        <pt x="49" y="94" on="0"/>
        <pt x="49" y="207" on="1"/>
        <pt x="49" y="1305" on="1"/>
      </contour>
    </TTGlyph>
    <TTGlyph name="afii10059" xMin="49" yMin="0" xMax="924" yMax="1305">
      <contour>
        <pt x="786" y="369" on="1"/>
        <pt x="786" y="496" on="0"/>
        <pt x="678" y="629" on="0"/>
        <pt x="586" y="629" on="1"/>
        <pt x="510" y="629" on="1"/>
        <pt x="510" y="117" on="1"/>
        <pt x="586" y="117" on="1"/>
        <pt x="678" y="117" on="0"/>
        <pt x="786" y="244" on="0"/>
      </contour>
      <contour>
        <pt x="49" y="0" on="1"/>
        <pt x="49" y="1305" on="1"/>
        <pt x="186" y="1305" on="1"/>
        <pt x="186" y="745" on="1"/>
        <pt x="373" y="745" on="1"/>
        <pt x="373" y="1305" on="1"/>
        <pt x="510" y="1305" on="1"/>
        <pt x="510" y="745" on="1"/>
        <pt x="584" y="745" on="1"/>
        <pt x="745" y="745" on="0"/>
        <pt x="924" y="557" on="0"/>
        <pt x="924" y="369" on="1"/>
        <pt x="924" y="182" on="0"/>
        <pt x="745" y="0" on="0"/>
        <pt x="582" y="0" on="1"/>
        <pt x="373" y="0" on="1"/>
        <pt x="373" y="629" on="1"/>
        <pt x="186" y="629" on="1"/>
        <pt x="186" y="0" on="1"/>
      </contour>
    </TTGlyph>
    <TTGlyph name="afii10060" xMin="-137" yMin="0" xMax="883" yMax="1305">
      <contour>
        <pt x="-137" y="1305" on="1"/>
        <pt x="373" y="1305" on="1"/>
        <pt x="373" y="1188" on="1"/>
        <pt x="186" y="1188" on="1"/>
        <pt x="186" y="698" on="1"/>
        <pt x="285" y="954" on="0"/>
        <pt x="539" y="954" on="1"/>
        <pt x="883" y="954" on="0"/>
        <pt x="883" y="575" on="1"/>
        <pt x="883" y="0" on="1"/>
        <pt x="745" y="0" on="1"/>
        <pt x="745" y="575" on="1"/>
        <pt x="745" y="700" on="0"/>
        <pt x="637" y="838" on="0"/>
        <pt x="516" y="838" on="1"/>
        <pt x="440" y="838" on="0"/>
        <pt x="317" y="768" on="0"/>
        <pt x="231" y="651" on="0"/>
        <pt x="186" y="500" on="0"/>
        <pt x="186" y="418" on="1"/>
        <pt x="186" y="0" on="1"/>
        <pt x="49" y="0" on="1"/>
        <pt x="49" y="1188" on="1"/>
        <pt x="-137" y="1188" on="1"/>
      </contour>
    </TTGlyph>
    <TTGlyph name="afii10061" xMin="49" yMin="0" xMax="926" yMax="1737">
      <component glyphName="afii10028" x="0" y="0" flags="0x204"/>
      <component glyphName="acute" x="0" y="373" flags="0x4"/>
    </TTGlyph>
    <TTGlyph name="afii10062" xMin="-31" yMin="-23" xMax="961" yMax="1659">
      <component glyphName="afii10037" x="0" y="0" flags="0x204"/>
      <component glyphName="breve" x="0" y="373" flags="0x4"/>
    </TTGlyph>
    <TTGlyph name="afii10065" xMin="-2" yMin="-23" xMax="883" yMax="954">
      <contour>
        <pt x="-2" y="252" on="1"/>
        <pt x="-2" y="340" on="0"/>
        <pt x="86" y="459" on="0"/>
        <pt x="229" y="528" on="0"/>
        <pt x="414" y="559" on="0"/>
        <pt x="510" y="559" on="1"/>
        <pt x="547" y="559" on="0"/>
        <pt x="606" y="557" on="0"/>
        <pt x="659" y="553" on="0"/>
        <pt x="713" y="547" on="0"/>
        <pt x="745" y="543" on="1"/>
        <pt x="745" y="610" on="1"/>
        <pt x="745" y="678" on="0"/>
        <pt x="686" y="766" on="0"/>
        <pt x="600" y="817" on="0"/>
        <pt x="506" y="838" on="0"/>
        <pt x="473" y="838" on="1"/>
        <pt x="369" y="838" on="0"/>
        <pt x="193" y="782" on="0"/>
        <pt x="117" y="735" on="1"/>
        <pt x="55" y="838" on="1"/>
        <pt x="139" y="889" on="0"/>
        <pt x="348" y="954" on="0"/>
        <pt x="473" y="954" on="1"/>
        <pt x="549" y="954" on="0"/>
        <pt x="696" y="915" on="0"/>
        <pt x="813" y="834" on="0"/>
        <pt x="883" y="702" on="0"/>
        <pt x="883" y="610" on="1"/>
        <pt x="883" y="0" on="1"/>
        <pt x="745" y="0" on="1"/>
        <pt x="745" y="156" on="1"/>
        <pt x="709" y="111" on="0"/>
        <pt x="618" y="43" on="0"/>
        <pt x="518" y="0" on="0"/>
        <pt x="418" y="-23" on="0"/>
        <pt x="373" y="-23" on="1"/>
        <pt x="188" y="-23" on="0"/>
        <pt x="-2" y="119" on="0"/>
      </contour>
      <contour>
        <pt x="373" y="94" on="1"/>
        <pt x="459" y="94" on="0"/>
        <pt x="596" y="145" on="0"/>
        <pt x="692" y="221" on="0"/>
        <pt x="745" y="307" on="0"/>
        <pt x="745" y="342" on="1"/>
        <pt x="745" y="430" on="1"/>
        <pt x="678" y="440" on="0"/>
        <pt x="555" y="442" on="0"/>
        <pt x="510" y="442" on="1"/>
        <pt x="436" y="442" on="0"/>
        <pt x="299" y="422" on="0"/>
        <pt x="197" y="377" on="0"/>
        <pt x="135" y="305" on="0"/>
        <pt x="135" y="252" on="1"/>
        <pt x="135" y="193" on="0"/>
        <pt x="250" y="94" on="0"/>
      </contour>
    </TTGlyph>
    <TTGlyph name="afii10066" xMin="0" yMin="-23" xMax="932" yMax="1327">
      <contour>
        <pt x="150" y="444" on="1"/>
        <pt x="150" y="285" on="0"/>
        <pt x="322" y="94" on="0"/>
        <pt x="473" y="94" on="1"/>
        <pt x="543" y="94" on="0"/>
        <pt x="662" y="143" on="0"/>
        <pt x="748" y="236" on="0"/>
        <pt x="795" y="365" on="0"/>
        <pt x="795" y="444" on="1"/>
        <pt x="795" y="604" on="0"/>
        <pt x="627" y="795" on="0"/>
        <pt x="473" y="795" on="1"/>
        <pt x="307" y="795" on="0"/>
        <pt x="150" y="604" on="0"/>
      </contour>
      <contour>
        <pt x="0" y="651" on="1"/>
        <pt x="0" y="801" on="0"/>
        <pt x="63" y="1049" on="0"/>
        <pt x="178" y="1227" on="0"/>
        <pt x="336" y="1327" on="0"/>
        <pt x="432" y="1327" on="1"/>
        <pt x="477" y="1327" on="0"/>
        <pt x="539" y="1309" on="0"/>
        <pt x="588" y="1284" on="0"/>
        <pt x="633" y="1266" on="0"/>
        <pt x="664" y="1266" on="1"/>
        <pt x="705" y="1266" on="0"/>
        <pt x="762" y="1294" on="0"/>
        <pt x="803" y="1327" on="1"/>
        <pt x="874" y="1245" on="1"/>
        <pt x="831" y="1204" on="0"/>
        <pt x="715" y="1149" on="0"/>
        <pt x="664" y="1149" on="1"/>
        <pt x="625" y="1149" on="0"/>
        <pt x="567" y="1167" on="0"/>
        <pt x="518" y="1192" on="0"/>
        <pt x="467" y="1210" on="0"/>
        <pt x="432" y="1210" on="1"/>
        <pt x="371" y="1210" on="0"/>
        <pt x="264" y="1143" on="0"/>
        <pt x="184" y="1016" on="0"/>
        <pt x="139" y="836" on="0"/>
        <pt x="139" y="723" on="1"/>
        <pt x="164" y="768" on="0"/>
        <pt x="236" y="838" on="0"/>
        <pt x="324" y="887" on="0"/>
        <pt x="424" y="911" on="0"/>
        <pt x="473" y="911" on="1"/>
        <pt x="571" y="911" on="0"/>
        <pt x="739" y="852" on="0"/>
        <pt x="862" y="735" on="0"/>
        <pt x="932" y="561" on="0"/>
        <pt x="932" y="444" on="1"/>
        <pt x="932" y="346" on="0"/>
        <pt x="862" y="174" on="0"/>
        <pt x="739" y="49" on="0"/>
        <pt x="571" y="-23" on="0"/>
        <pt x="473" y="-23" on="1"/>
        <pt x="238" y="-23" on="0"/>
        <pt x="0" y="305" on="0"/>
      </contour>
    </TTGlyph>
    <TTGlyph name="afii10067" xMin="49" yMin="0" xMax="930" yMax="932">
      <contour>
        <pt x="930" y="266" on="1"/>
        <pt x="930" y="131" on="0"/>
        <pt x="731" y="0" on="0"/>
        <pt x="545" y="0" on="1"/>
        <pt x="49" y="0" on="1"/>
        <pt x="49" y="932" on="1"/>
        <pt x="514" y="932" on="1"/>
        <pt x="582" y="932" on="0"/>
        <pt x="715" y="911" on="0"/>
        <pt x="819" y="858" on="0"/>
        <pt x="885" y="764" on="0"/>
        <pt x="885" y="688" on="1"/>
        <pt x="885" y="616" on="0"/>
        <pt x="815" y="518" on="0"/>
        <pt x="713" y="492" on="1"/>
        <pt x="838" y="463" on="0"/>
        <pt x="930" y="350" on="0"/>
      </contour>
      <contour>
        <pt x="748" y="680" on="1"/>
        <pt x="748" y="723" on="0"/>
        <pt x="702" y="776" on="0"/>
        <pt x="635" y="805" on="0"/>
        <pt x="553" y="815" on="0"/>
        <pt x="514" y="815" on="1"/>
        <pt x="186" y="815" on="1"/>
        <pt x="186" y="547" on="1"/>
        <pt x="514" y="547" on="1"/>
        <pt x="555" y="547" on="0"/>
        <pt x="639" y="557" on="0"/>
        <pt x="707" y="588" on="0"/>
        <pt x="748" y="639" on="0"/>
      </contour>
      <contour>
        <pt x="793" y="272" on="1"/>
        <pt x="793" y="354" on="0"/>
        <pt x="659" y="430" on="0"/>
        <pt x="543" y="430" on="1"/>
        <pt x="186" y="430" on="1"/>
        <pt x="186" y="117" on="1"/>
        <pt x="543" y="117" on="1"/>
        <pt x="659" y="117" on="0"/>
        <pt x="793" y="195" on="0"/>
      </contour>
    </TTGlyph>
    <TTGlyph name="afii10068" xMin="49" yMin="0" xMax="932" yMax="932">
      <contour>
        <pt x="49" y="932" on="1"/>
        <pt x="932" y="932" on="1"/>
        <pt x="932" y="815" on="1"/>
        <pt x="186" y="815" on="1"/>
        <pt x="186" y="0" on="1"/>
        <pt x="49" y="0" on="1"/>
      </contour>
    </TTGlyph>
    <TTGlyph name="afii10069" xMin="0" yMin="-319" xMax="932" yMax="932">
      <contour>
        <pt x="0" y="117" on="1"/>
        <pt x="47" y="127" on="0"/>
        <pt x="133" y="215" on="0"/>
        <pt x="197" y="371" on="0"/>
        <pt x="236" y="594" on="0"/>
        <pt x="236" y="739" on="1"/>
        <pt x="236" y="932" on="1"/>
        <pt x="745" y="932" on="1"/>
        <pt x="745" y="117" on="1"/>
        <pt x="932" y="117" on="1"/>
        <pt x="932" y="-319" on="1"/>
        <pt x="809" y="-319" on="1"/>
        <pt x="809" y="0" on="1"/>
        <pt x="123" y="0" on="1"/>
        <pt x="123" y="-319" on="1"/>
        <pt x="0" y="-319" on="1"/>
      </contour>
      <contour>
        <pt x="373" y="739" on="1"/>
        <pt x="373" y="623" on="0"/>
        <pt x="340" y="420" on="0"/>
        <pt x="287" y="260" on="0"/>
        <pt x="219" y="145" on="0"/>
        <pt x="186" y="117" on="1"/>
        <pt x="608" y="117" on="1"/>
        <pt x="608" y="815" on="1"/>
        <pt x="373" y="815" on="1"/>
      </contour>
    </TTGlyph>
    <TTGlyph name="afii10070" xMin="-4" yMin="-23" xMax="942" yMax="954">
      <contour>
        <pt x="137" y="418" on="1"/>
        <pt x="152" y="270" on="0"/>
        <pt x="338" y="94" on="0"/>
        <pt x="487" y="94" on="1"/>
        <pt x="592" y="94" on="0"/>
        <pt x="756" y="180" on="0"/>
        <pt x="797" y="244" on="1"/>
        <pt x="893" y="178" on="1"/>
        <pt x="823" y="80" on="0"/>
        <pt x="629" y="-23" on="0"/>
        <pt x="487" y="-23" on="1"/>
        <pt x="379" y="-23" on="0"/>
        <pt x="199" y="49" on="0"/>
        <pt x="68" y="178" on="0"/>
        <pt x="-4" y="356" on="0"/>
        <pt x="-4" y="465" on="1"/>
        <pt x="-4" y="571" on="0"/>
        <pt x="61" y="750" on="0"/>
        <pt x="184" y="881" on="0"/>
        <pt x="360" y="954" on="0"/>
        <pt x="469" y="954" on="1"/>
        <pt x="588" y="954" on="0"/>
        <pt x="766" y="874" on="0"/>
        <pt x="885" y="733" on="0"/>
        <pt x="942" y="537" on="0"/>
        <pt x="942" y="418" on="1"/>
      </contour>
      <contour>
        <pt x="797" y="535" on="1"/>
        <pt x="774" y="688" on="0"/>
        <pt x="598" y="838" on="0"/>
        <pt x="469" y="838" on="1"/>
        <pt x="403" y="838" on="0"/>
        <pt x="291" y="795" on="0"/>
        <pt x="205" y="715" on="0"/>
        <pt x="147" y="602" on="0"/>
        <pt x="139" y="535" on="1"/>
      </contour>
    </TTGlyph>
    <TTGlyph name="afii10071" xMin="-4" yMin="-23" xMax="942" yMax="1305">
      <component glyphName="afii10070" x="0" y="0" flags="0x204"/>
      <component glyphName="dieresis" x="0" y="0" flags="0x4"/>
    </TTGlyph>
    <TTGlyph name="afii10072" xMin="-16" yMin="0" xMax="948" yMax="932">
      <contour>
        <pt x="270" y="524" on="1"/>
        <pt x="-16" y="932" on="1"/>
        <pt x="137" y="932" on="1"/>
        <pt x="397" y="539" on="1"/>
        <pt x="397" y="932" on="1"/>
        <pt x="535" y="932" on="1"/>
        <pt x="535" y="539" on="1"/>
        <pt x="795" y="932" on="1"/>
        <pt x="948" y="932" on="1"/>
        <pt x="662" y="524" on="1"/>
        <pt x="948" y="0" on="1"/>
        <pt x="801" y="0" on="1"/>
        <pt x="584" y="418" on="1"/>
        <pt x="535" y="346" on="1"/>
        <pt x="535" y="0" on="1"/>
        <pt x="397" y="0" on="1"/>
        <pt x="397" y="346" on="1"/>
        <pt x="348" y="418" on="1"/>
        <pt x="131" y="0" on="1"/>
        <pt x="-16" y="0" on="1"/>
      </contour>
    </TTGlyph>
    <TTGlyph name="afii10073" xMin="-2" yMin="-23" xMax="895" yMax="954">
      <contour>
        <pt x="883" y="676" on="1"/>
        <pt x="883" y="608" on="0"/>
        <pt x="788" y="489" on="0"/>
        <pt x="690" y="473" on="1"/>
        <pt x="782" y="455" on="0"/>
        <pt x="895" y="336" on="0"/>
        <pt x="895" y="264" on="1"/>
        <pt x="895" y="197" on="0"/>
        <pt x="823" y="90" on="0"/>
        <pt x="698" y="16" on="0"/>
        <pt x="528" y="-23" on="0"/>
        <pt x="428" y="-23" on="1"/>
        <pt x="268" y="-23" on="0"/>
        <pt x="61" y="76" on="0"/>
        <pt x="-2" y="176" on="1"/>
        <pt x="94" y="242" on="1"/>
        <pt x="141" y="170" on="0"/>
        <pt x="305" y="94" on="0"/>
        <pt x="428" y="94" on="1"/>
        <pt x="575" y="94" on="0"/>
        <pt x="758" y="184" on="0"/>
        <pt x="758" y="264" on="1"/>
        <pt x="758" y="291" on="0"/>
        <pt x="723" y="346" on="0"/>
        <pt x="655" y="389" on="0"/>
        <pt x="555" y="416" on="0"/>
        <pt x="487" y="416" on="1"/>
        <pt x="331" y="416" on="1"/>
        <pt x="331" y="532" on="1"/>
        <pt x="487" y="532" on="1"/>
        <pt x="618" y="532" on="0"/>
        <pt x="745" y="625" on="0"/>
        <pt x="745" y="676" on="1"/>
        <pt x="745" y="750" on="0"/>
        <pt x="582" y="838" on="0"/>
        <pt x="440" y="838" on="1"/>
        <pt x="322" y="838" on="0"/>
        <pt x="168" y="754" on="0"/>
        <pt x="127" y="684" on="1"/>
        <pt x="25" y="754" on="1"/>
        <pt x="86" y="854" on="0"/>
        <pt x="287" y="954" on="0"/>
        <pt x="440" y="954" on="1"/>
        <pt x="537" y="954" on="0"/>
        <pt x="698" y="915" on="0"/>
        <pt x="817" y="844" on="0"/>
        <pt x="883" y="739" on="0"/>
      </contour>
    </TTGlyph>
    <TTGlyph name="afii10074" xMin="49" yMin="0" xMax="883" yMax="932">
      <contour>
        <pt x="49" y="932" on="1"/>
        <pt x="186" y="932" on="1"/>
        <pt x="186" y="180" on="1"/>
        <pt x="690" y="932" on="1"/>
        <pt x="883" y="932" on="1"/>
        <pt x="883" y="0" on="1"/>
        <pt x="745" y="0" on="1"/>
        <pt x="745" y="786" on="1"/>
        <pt x="219" y="0" on="1"/>
        <pt x="49" y="0" on="1"/>
      </contour>
    </TTGlyph>
    <TTGlyph name="afii10075" xMin="49" yMin="0" xMax="883" yMax="1286">
      <component glyphName="afii10074" x="0" y="0" flags="0x204"/>
      <component glyphName="breve" x="0" y="0" flags="0x4"/>
    </TTGlyph>
    <TTGlyph name="afii10076" xMin="49" yMin="0" xMax="930" yMax="932">
      <contour>
        <pt x="930" y="0" on="1"/>
        <pt x="735" y="0" on="1"/>
        <pt x="354" y="418" on="1"/>
        <pt x="186" y="264" on="1"/>
        <pt x="186" y="0" on="1"/>
        <pt x="49" y="0" on="1"/>
        <pt x="49" y="932" on="1"/>
        <pt x="186" y="932" on="1"/>
        <pt x="186" y="430" on="1"/>
        <pt x="717" y="932" on="1"/>
        <pt x="913" y="932" on="1"/>
        <pt x="446" y="504" on="1"/>
      </contour>
    </TTGlyph>
    <TTGlyph name="afii10077" xMin="-25" yMin="-23" xMax="883" yMax="932">
      <contour>
        <pt x="883" y="932" on="1"/>
        <pt x="883" y="0" on="1"/>
        <pt x="745" y="0" on="1"/>
        <pt x="745" y="815" on="1"/>
        <pt x="324" y="815" on="1"/>
        <pt x="324" y="207" on="1"/>
        <pt x="324" y="152" on="0"/>
        <pt x="287" y="66" on="0"/>
        <pt x="225" y="8" on="0"/>
        <pt x="143" y="-23" on="0"/>
        <pt x="98" y="-23" on="1"/>
        <pt x="14" y="-23" on="0"/>
        <pt x="-25" y="2" on="1"/>
        <pt x="2" y="111" on="1"/>
        <pt x="16" y="102" on="0"/>
        <pt x="51" y="94" on="0"/>
        <pt x="80" y="94" on="1"/>
        <pt x="186" y="94" on="0"/>
        <pt x="186" y="207" on="1"/>
        <pt x="186" y="932" on="1"/>
      </contour>
    </TTGlyph>
    <TTGlyph name="afii10078" xMin="49" yMin="0" xMax="883" yMax="932">
      <contour>
        <pt x="883" y="0" on="1"/>
        <pt x="745" y="0" on="1"/>
        <pt x="745" y="739" on="1"/>
        <pt x="516" y="256" on="1"/>
        <pt x="418" y="256" on="1"/>
        <pt x="186" y="739" on="1"/>
        <pt x="186" y="0" on="1"/>
        <pt x="49" y="0" on="1"/>
        <pt x="49" y="932" on="1"/>
        <pt x="227" y="932" on="1"/>
        <pt x="467" y="446" on="1"/>
        <pt x="705" y="932" on="1"/>
        <pt x="883" y="932" on="1"/>
      </contour>
    </TTGlyph>
    <TTGlyph name="afii10079" xMin="49" yMin="0" xMax="883" yMax="932">
      <contour>
        <pt x="883" y="0" on="1"/>
        <pt x="745" y="0" on="1"/>
        <pt x="745" y="418" on="1"/>
        <pt x="186" y="418" on="1"/>
        <pt x="186" y="0" on="1"/>
        <pt x="49" y="0" on="1"/>
        <pt x="49" y="932" on="1"/>
        <pt x="186" y="932" on="1"/>
        <pt x="186" y="535" on="1"/>
        <pt x="745" y="535" on="1"/>
        <pt x="745" y="932" on="1"/>
        <pt x="883" y="932" on="1"/>
      </contour>
    </TTGlyph>
    <TTGlyph name="afii10080" xMin="-20" yMin="-23" xMax="956" yMax="954">
      <contour>
        <pt x="956" y="463" on="1"/>
        <pt x="956" y="354" on="0"/>
        <pt x="887" y="176" on="0"/>
        <pt x="758" y="49" on="0"/>
        <pt x="578" y="-23" on="0"/>
        <pt x="467" y="-23" on="1"/>
        <pt x="358" y="-23" on="0"/>
        <pt x="178" y="49" on="0"/>
        <pt x="49" y="176" on="0"/>
        <pt x="-20" y="354" on="0"/>
        <pt x="-20" y="463" on="1"/>
        <pt x="-20" y="569" on="0"/>
        <pt x="49" y="752" on="0"/>
        <pt x="178" y="881" on="0"/>
        <pt x="358" y="954" on="0"/>
        <pt x="467" y="954" on="1"/>
        <pt x="578" y="954" on="0"/>
        <pt x="758" y="881" on="0"/>
        <pt x="887" y="752" on="0"/>
        <pt x="956" y="569" on="0"/>
      </contour>
      <contour>
        <pt x="819" y="463" on="1"/>
        <pt x="819" y="543" on="0"/>
        <pt x="772" y="678" on="0"/>
        <pt x="680" y="780" on="0"/>
        <pt x="549" y="838" on="0"/>
        <pt x="467" y="838" on="1"/>
        <pt x="385" y="838" on="0"/>
        <pt x="254" y="780" on="0"/>
        <pt x="164" y="678" on="0"/>
        <pt x="117" y="543" on="0"/>
        <pt x="117" y="463" on="1"/>
        <pt x="117" y="383" on="0"/>
        <pt x="164" y="248" on="0"/>
        <pt x="254" y="150" on="0"/>
        <pt x="385" y="94" on="0"/>
        <pt x="467" y="94" on="1"/>
        <pt x="549" y="94" on="0"/>
        <pt x="680" y="150" on="0"/>
        <pt x="772" y="248" on="0"/>
        <pt x="819" y="383" on="0"/>
      </contour>
    </TTGlyph>
    <TTGlyph name="afii10081" xMin="49" yMin="0" xMax="883" yMax="932">
      <contour>
        <pt x="883" y="0" on="1"/>
        <pt x="745" y="0" on="1"/>
        <pt x="745" y="815" on="1"/>
        <pt x="186" y="815" on="1"/>
        <pt x="186" y="0" on="1"/>
        <pt x="49" y="0" on="1"/>
        <pt x="49" y="932" on="1"/>
        <pt x="883" y="932" on="1"/>
      </contour>
    </TTGlyph>
    <TTGlyph name="afii10082" xMin="49" yMin="-373" xMax="932" yMax="954">
      <contour>
        <pt x="932" y="465" on="1"/>
        <pt x="932" y="356" on="0"/>
        <pt x="864" y="178" on="0"/>
        <pt x="741" y="49" on="0"/>
        <pt x="567" y="-23" on="0"/>
        <pt x="459" y="-23" on="1"/>
        <pt x="385" y="-23" on="0"/>
        <pt x="246" y="31" on="0"/>
        <pt x="186" y="84" on="1"/>
        <pt x="186" y="-373" on="1"/>
        <pt x="49" y="-373" on="1"/>
        <pt x="49" y="932" on="1"/>
        <pt x="186" y="932" on="1"/>
        <pt x="186" y="846" on="1"/>
        <pt x="313" y="954" on="0"/>
        <pt x="459" y="954" on="1"/>
        <pt x="567" y="954" on="0"/>
        <pt x="741" y="883" on="0"/>
        <pt x="864" y="752" on="0"/>
        <pt x="932" y="571" on="0"/>
      </contour>
      <contour>
        <pt x="795" y="465" on="1"/>
        <pt x="795" y="543" on="0"/>
        <pt x="752" y="680" on="0"/>
        <pt x="666" y="780" on="0"/>
        <pt x="541" y="838" on="0"/>
        <pt x="459" y="838" on="1"/>
        <pt x="381" y="838" on="0"/>
        <pt x="246" y="780" on="0"/>
        <pt x="186" y="715" on="1"/>
        <pt x="186" y="215" on="1"/>
        <pt x="246" y="150" on="0"/>
        <pt x="381" y="94" on="0"/>
        <pt x="459" y="94" on="1"/>
        <pt x="541" y="94" on="0"/>
        <pt x="666" y="152" on="0"/>
        <pt x="752" y="252" on="0"/>
        <pt x="795" y="387" on="0"/>
      </contour>
    </TTGlyph>
    <TTGlyph name="afii10083" xMin="0" yMin="-23" xMax="897" yMax="954">
      <contour>
        <pt x="897" y="176" on="1"/>
        <pt x="838" y="84" on="0"/>
        <pt x="633" y="-23" on="0"/>
        <pt x="492" y="-23" on="1"/>
        <pt x="383" y="-23" on="0"/>
        <pt x="201" y="49" on="0"/>
        <pt x="72" y="178" on="0"/>
        <pt x="0" y="356" on="0"/>
        <pt x="0" y="465" on="1"/>
        <pt x="0" y="571" on="0"/>
        <pt x="66" y="752" on="0"/>
        <pt x="188" y="881" on="0"/>
        <pt x="365" y="954" on="0"/>
        <pt x="473" y="954" on="1"/>
        <pt x="516" y="954" on="0"/>
        <pt x="606" y="934" on="0"/>
        <pt x="686" y="893" on="0"/>
        <pt x="750" y="836" on="0"/>
        <pt x="766" y="797" on="1"/>
        <pt x="766" y="932" on="1"/>
        <pt x="889" y="932" on="1"/>
        <pt x="889" y="559" on="1"/>
        <pt x="766" y="559" on="1"/>
        <pt x="766" y="621" on="0"/>
        <pt x="721" y="723" on="0"/>
        <pt x="643" y="797" on="0"/>
        <pt x="535" y="838" on="0"/>
        <pt x="473" y="838" on="1"/>
        <pt x="389" y="838" on="0"/>
        <pt x="264" y="780" on="0"/>
        <pt x="180" y="680" on="0"/>
        <pt x="137" y="545" on="0"/>
        <pt x="137" y="465" on="1"/>
        <pt x="137" y="385" on="0"/>
        <pt x="186" y="250" on="0"/>
        <pt x="279" y="152" on="0"/>
        <pt x="410" y="94" on="0"/>
        <pt x="492" y="94" on="1"/>
        <pt x="596" y="94" on="0"/>
        <pt x="758" y="174" on="0"/>
        <pt x="801" y="242" on="1"/>
      </contour>
    </TTGlyph>
    <TTGlyph name="afii10084" xMin="0" yMin="0" xMax="932" yMax="932">
      <contour>
        <pt x="932" y="492" on="1"/>
        <pt x="815" y="492" on="1"/>
        <pt x="815" y="815" on="1"/>
        <pt x="535" y="815" on="1"/>
        <pt x="535" y="117" on="1"/>
        <pt x="745" y="117" on="1"/>
        <pt x="745" y="0" on="1"/>
        <pt x="186" y="0" on="1"/>
        <pt x="186" y="117" on="1"/>
        <pt x="397" y="117" on="1"/>
        <pt x="397" y="815" on="1"/>
        <pt x="117" y="815" on="1"/>
        <pt x="117" y="492" on="1"/>
        <pt x="0" y="492" on="1"/>
        <pt x="0" y="932" on="1"/>
        <pt x="932" y="932" on="1"/>
      </contour>
    </TTGlyph>
    <TTGlyph name="afii10085" xMin="-31" yMin="-395" xMax="961" yMax="932">
      <contour>
        <pt x="961" y="932" on="1"/>
        <pt x="457" y="-236" on="1"/>
        <pt x="418" y="-334" on="0"/>
        <pt x="276" y="-395" on="0"/>
        <pt x="190" y="-395" on="1"/>
        <pt x="94" y="-395" on="0"/>
        <pt x="-2" y="-360" on="1"/>
        <pt x="25" y="-242" on="1"/>
        <pt x="72" y="-262" on="0"/>
        <pt x="162" y="-279" on="0"/>
        <pt x="190" y="-279" on="1"/>
        <pt x="258" y="-279" on="0"/>
        <pt x="309" y="-213" on="0"/>
        <pt x="328" y="-168" on="1"/>
        <pt x="385" y="-27" on="1"/>
        <pt x="-31" y="932" on="1"/>
        <pt x="131" y="932" on="1"/>
        <pt x="467" y="117" on="1"/>
        <pt x="797" y="932" on="1"/>
      </contour>
    </TTGlyph>
    <TTGlyph name="afii10086" xMin="-29" yMin="-373" xMax="961" yMax="1305">
      <contour>
        <pt x="397" y="743" on="1"/>
        <pt x="340" y="838" on="0"/>
        <pt x="256" y="838" on="1"/>
        <pt x="182" y="838" on="0"/>
        <pt x="109" y="666" on="0"/>
        <pt x="109" y="465" on="1"/>
        <pt x="109" y="264" on="0"/>
        <pt x="182" y="94" on="0"/>
        <pt x="256" y="94" on="1"/>
        <pt x="340" y="94" on="0"/>
        <pt x="397" y="188" on="1"/>
      </contour>
      <contour>
        <pt x="397" y="63" on="1"/>
        <pt x="344" y="-23" on="0"/>
        <pt x="256" y="-23" on="1"/>
        <pt x="113" y="-23" on="0"/>
        <pt x="-29" y="229" on="0"/>
        <pt x="-29" y="465" on="1"/>
        <pt x="-29" y="700" on="0"/>
        <pt x="113" y="954" on="0"/>
        <pt x="256" y="954" on="1"/>
        <pt x="344" y="954" on="0"/>
        <pt x="397" y="868" on="1"/>
        <pt x="397" y="1305" on="1"/>
        <pt x="535" y="1305" on="1"/>
        <pt x="535" y="868" on="1"/>
        <pt x="588" y="954" on="0"/>
        <pt x="676" y="954" on="1"/>
        <pt x="819" y="954" on="0"/>
        <pt x="961" y="700" on="0"/>
        <pt x="961" y="465" on="1"/>
        <pt x="961" y="229" on="0"/>
        <pt x="819" y="-23" on="0"/>
        <pt x="676" y="-23" on="1"/>
        <pt x="588" y="-23" on="0"/>
        <pt x="535" y="63" on="1"/>
        <pt x="535" y="-373" on="1"/>
        <pt x="397" y="-373" on="1"/>
      </contour>
      <contour>
        <pt x="535" y="188" on="1"/>
        <pt x="592" y="94" on="0"/>
        <pt x="676" y="94" on="1"/>
        <pt x="750" y="94" on="0"/>
        <pt x="823" y="264" on="0"/>
        <pt x="823" y="465" on="1"/>
        <pt x="823" y="666" on="0"/>
        <pt x="750" y="838" on="0"/>
        <pt x="676" y="838" on="1"/>
        <pt x="592" y="838" on="0"/>
        <pt x="535" y="743" on="1"/>
      </contour>
    </TTGlyph>
    <TTGlyph name="afii10087" xMin="-20" yMin="0" xMax="954" yMax="932">
      <contour>
        <pt x="954" y="0" on="1"/>
        <pt x="569" y="0" on="1"/>
        <pt x="569" y="121" on="1"/>
        <pt x="651" y="121" on="1"/>
        <pt x="467" y="391" on="1"/>
        <pt x="285" y="121" on="1"/>
        <pt x="360" y="121" on="1"/>
        <pt x="360" y="0" on="1"/>
        <pt x="-20" y="0" on="1"/>
        <pt x="-20" y="121" on="1"/>
        <pt x="125" y="121" on="1"/>
        <pt x="381" y="473" on="1"/>
        <pt x="135" y="809" on="1"/>
        <pt x="0" y="809" on="1"/>
        <pt x="0" y="932" on="1"/>
        <pt x="383" y="932" on="1"/>
        <pt x="383" y="809" on="1"/>
        <pt x="297" y="809" on="1"/>
        <pt x="467" y="555" on="1"/>
        <pt x="639" y="809" on="1"/>
        <pt x="545" y="809" on="1"/>
        <pt x="545" y="932" on="1"/>
        <pt x="932" y="932" on="1"/>
        <pt x="932" y="809" on="1"/>
        <pt x="801" y="809" on="1"/>
        <pt x="555" y="473" on="1"/>
        <pt x="811" y="121" on="1"/>
        <pt x="954" y="121" on="1"/>
      </contour>
    </TTGlyph>
    <TTGlyph name="afii10088" xMin="49" yMin="-319" xMax="1055" yMax="932">
      <contour>
        <pt x="1055" y="121" on="1"/>
        <pt x="1055" y="-319" on="1"/>
        <pt x="932" y="-319" on="1"/>
        <pt x="932" y="0" on="1"/>
        <pt x="49" y="0" on="1"/>
        <pt x="49" y="932" on="1"/>
        <pt x="186" y="932" on="1"/>
        <pt x="186" y="117" on="1"/>
        <pt x="745" y="117" on="1"/>
        <pt x="745" y="932" on="1"/>
        <pt x="883" y="932" on="1"/>
        <pt x="883" y="121" on="1"/>
      </contour>
    </TTGlyph>
    <TTGlyph name="afii10089" xMin="49" yMin="0" xMax="883" yMax="932">
      <contour>
        <pt x="49" y="932" on="1"/>
        <pt x="186" y="932" on="1"/>
        <pt x="186" y="635" on="1"/>
        <pt x="186" y="510" on="0"/>
        <pt x="295" y="373" on="0"/>
        <pt x="416" y="373" on="1"/>
        <pt x="492" y="373" on="0"/>
        <pt x="614" y="442" on="0"/>
        <pt x="700" y="559" on="0"/>
        <pt x="745" y="711" on="0"/>
        <pt x="745" y="793" on="1"/>
        <pt x="745" y="932" on="1"/>
        <pt x="883" y="932" on="1"/>
        <pt x="883" y="0" on="1"/>
        <pt x="745" y="0" on="1"/>
        <pt x="745" y="512" on="1"/>
        <pt x="647" y="256" on="0"/>
        <pt x="393" y="256" on="1"/>
        <pt x="49" y="256" on="0"/>
        <pt x="49" y="635" on="1"/>
      </contour>
    </TTGlyph>
    <TTGlyph name="afii10090" xMin="0" yMin="0" xMax="932" yMax="932">
      <contour>
        <pt x="397" y="932" on="1"/>
        <pt x="535" y="932" on="1"/>
        <pt x="535" y="117" on="1"/>
        <pt x="795" y="117" on="1"/>
        <pt x="795" y="932" on="1"/>
        <pt x="932" y="932" on="1"/>
        <pt x="932" y="0" on="1"/>
        <pt x="0" y="0" on="1"/>
        <pt x="0" y="932" on="1"/>
        <pt x="137" y="932" on="1"/>
        <pt x="137" y="117" on="1"/>
        <pt x="397" y="117" on="1"/>
      </contour>
    </TTGlyph>
    <TTGlyph name="afii10091" xMin="0" yMin="-319" xMax="1055" yMax="932">
      <contour>
        <pt x="0" y="0" on="1"/>
        <pt x="0" y="932" on="1"/>
        <pt x="137" y="932" on="1"/>
        <pt x="137" y="117" on="1"/>
        <pt x="397" y="117" on="1"/>
        <pt x="397" y="932" on="1"/>
        <pt x="535" y="932" on="1"/>
        <pt x="535" y="117" on="1"/>
        <pt x="795" y="117" on="1"/>
        <pt x="795" y="932" on="1"/>
        <pt x="932" y="932" on="1"/>
        <pt x="932" y="121" on="1"/>
        <pt x="1055" y="121" on="1"/>
        <pt x="1055" y="-319" on="1"/>
        <pt x="932" y="-319" on="1"/>
        <pt x="932" y="0" on="1"/>
      </contour>
    </TTGlyph>
    <TTGlyph name="afii10092" xMin="0" yMin="0" xMax="930" yMax="932">
      <contour>
        <pt x="0" y="932" on="1"/>
        <pt x="373" y="932" on="1"/>
        <pt x="373" y="559" on="1"/>
        <pt x="594" y="559" on="1"/>
        <pt x="756" y="559" on="0"/>
        <pt x="930" y="426" on="0"/>
        <pt x="930" y="281" on="1"/>
        <pt x="930" y="135" on="0"/>
        <pt x="756" y="0" on="0"/>
        <pt x="596" y="0" on="1"/>
        <pt x="236" y="0" on="1"/>
        <pt x="236" y="815" on="1"/>
        <pt x="0" y="815" on="1"/>
      </contour>
      <contour>
        <pt x="793" y="281" on="1"/>
        <pt x="793" y="358" on="0"/>
        <pt x="688" y="442" on="0"/>
        <pt x="596" y="442" on="1"/>
        <pt x="373" y="442" on="1"/>
        <pt x="373" y="117" on="1"/>
        <pt x="596" y="117" on="1"/>
        <pt x="688" y="117" on="0"/>
        <pt x="793" y="203" on="0"/>
      </contour>
    </TTGlyph>
    <TTGlyph name="afii10093" xMin="0" yMin="0" xMax="932" yMax="932">
      <contour>
        <pt x="795" y="932" on="1"/>
        <pt x="932" y="932" on="1"/>
        <pt x="932" y="0" on="1"/>
        <pt x="795" y="0" on="1"/>
      </contour>
      <contour>
        <pt x="137" y="559" on="1"/>
        <pt x="297" y="559" on="1"/>
        <pt x="451" y="559" on="0"/>
        <pt x="612" y="426" on="0"/>
        <pt x="612" y="281" on="1"/>
        <pt x="612" y="135" on="0"/>
        <pt x="451" y="0" on="0"/>
        <pt x="299" y="0" on="1"/>
        <pt x="0" y="0" on="1"/>
        <pt x="0" y="932" on="1"/>
        <pt x="137" y="932" on="1"/>
      </contour>
      <contour>
        <pt x="475" y="281" on="1"/>
        <pt x="475" y="358" on="0"/>
        <pt x="383" y="442" on="0"/>
        <pt x="299" y="442" on="1"/>
        <pt x="137" y="442" on="1"/>
        <pt x="137" y="117" on="1"/>
        <pt x="299" y="117" on="1"/>
        <pt x="383" y="117" on="0"/>
        <pt x="475" y="203" on="0"/>
      </contour>
    </TTGlyph>
    <TTGlyph name="afii10094" xMin="49" yMin="0" xMax="930" yMax="932">
      <contour>
        <pt x="186" y="559" on="1"/>
        <pt x="543" y="559" on="1"/>
        <pt x="729" y="559" on="0"/>
        <pt x="930" y="426" on="0"/>
        <pt x="930" y="281" on="1"/>
        <pt x="930" y="135" on="0"/>
        <pt x="731" y="0" on="0"/>
        <pt x="545" y="0" on="1"/>
        <pt x="49" y="0" on="1"/>
        <pt x="49" y="932" on="1"/>
        <pt x="186" y="932" on="1"/>
      </contour>
      <contour>
        <pt x="793" y="281" on="1"/>
        <pt x="793" y="358" on="0"/>
        <pt x="659" y="442" on="0"/>
        <pt x="543" y="442" on="1"/>
        <pt x="186" y="442" on="1"/>
        <pt x="186" y="117" on="1"/>
        <pt x="543" y="117" on="1"/>
        <pt x="659" y="117" on="0"/>
        <pt x="793" y="203" on="0"/>
      </contour>
    </TTGlyph>
    <TTGlyph name="afii10095" xMin="35" yMin="-23" xMax="932" yMax="954">
      <contour>
        <pt x="279" y="535" on="1"/>
        <pt x="788" y="535" on="1"/>
        <pt x="768" y="668" on="0"/>
        <pt x="588" y="838" on="0"/>
        <pt x="440" y="838" on="1"/>
        <pt x="336" y="838" on="0"/>
        <pt x="174" y="756" on="0"/>
        <pt x="131" y="688" on="1"/>
        <pt x="35" y="754" on="1"/>
        <pt x="94" y="846" on="0"/>
        <pt x="299" y="954" on="0"/>
        <pt x="440" y="954" on="1"/>
        <pt x="549" y="954" on="0"/>
        <pt x="731" y="883" on="0"/>
        <pt x="860" y="754" on="0"/>
        <pt x="932" y="573" on="0"/>
        <pt x="932" y="465" on="1"/>
        <pt x="932" y="356" on="0"/>
        <pt x="860" y="178" on="0"/>
        <pt x="731" y="49" on="0"/>
        <pt x="549" y="-23" on="0"/>
        <pt x="440" y="-23" on="1"/>
        <pt x="299" y="-23" on="0"/>
        <pt x="94" y="84" on="0"/>
        <pt x="35" y="176" on="1"/>
        <pt x="131" y="242" on="1"/>
        <pt x="174" y="174" on="0"/>
        <pt x="336" y="94" on="0"/>
        <pt x="440" y="94" on="1"/>
        <pt x="594" y="94" on="0"/>
        <pt x="778" y="276" on="0"/>
        <pt x="793" y="418" on="1"/>
        <pt x="279" y="418" on="1"/>
      </contour>
    </TTGlyph>
    <TTGlyph name="afii10096" xMin="49" yMin="-23" xMax="932" yMax="954">
      <contour>
        <pt x="49" y="932" on="1"/>
        <pt x="186" y="932" on="1"/>
        <pt x="186" y="524" on="1"/>
        <pt x="375" y="524" on="1"/>
        <pt x="393" y="954" on="0"/>
        <pt x="653" y="954" on="1"/>
        <pt x="932" y="954" on="0"/>
        <pt x="932" y="465" on="1"/>
        <pt x="932" y="-23" on="0"/>
        <pt x="653" y="-23" on="1"/>
        <pt x="389" y="-23" on="0"/>
        <pt x="375" y="408" on="1"/>
        <pt x="186" y="408" on="1"/>
        <pt x="186" y="0" on="1"/>
        <pt x="49" y="0" on="1"/>
      </contour>
      <contour>
        <pt x="653" y="88" on="1"/>
        <pt x="795" y="88" on="0"/>
        <pt x="795" y="465" on="1"/>
        <pt x="795" y="840" on="0"/>
        <pt x="653" y="840" on="1"/>
        <pt x="512" y="840" on="0"/>
        <pt x="512" y="465" on="1"/>
        <pt x="512" y="88" on="0"/>
      </contour>
    </TTGlyph>
    <TTGlyph name="afii10097" xMin="-12" yMin="0" xMax="883" yMax="932">
      <contour>
        <pt x="346" y="373" on="1"/>
        <pt x="180" y="381" on="0"/>
        <pt x="2" y="514" on="0"/>
        <pt x="2" y="651" on="1"/>
        <pt x="2" y="797" on="0"/>
        <pt x="201" y="932" on="0"/>
        <pt x="387" y="932" on="1"/>
        <pt x="883" y="932" on="1"/>
        <pt x="883" y="0" on="1"/>
        <pt x="745" y="0" on="1"/>
        <pt x="745" y="373" on="1"/>
        <pt x="522" y="373" on="1"/>
        <pt x="182" y="0" on="1"/>
        <pt x="-12" y="0" on="1"/>
      </contour>
      <contour>
        <pt x="139" y="651" on="1"/>
        <pt x="139" y="573" on="0"/>
        <pt x="272" y="489" on="0"/>
        <pt x="389" y="489" on="1"/>
        <pt x="745" y="489" on="1"/>
        <pt x="745" y="815" on="1"/>
        <pt x="389" y="815" on="1"/>
        <pt x="272" y="815" on="0"/>
        <pt x="139" y="729" on="0"/>
      </contour>
    </TTGlyph>
    <TTGlyph name="afii10098" xMin="49" yMin="0" xMax="932" yMax="1118">
      <contour>
        <pt x="815" y="1118" on="1"/>
        <pt x="932" y="1118" on="1"/>
        <pt x="932" y="815" on="1"/>
        <pt x="186" y="815" on="1"/>
        <pt x="186" y="0" on="1"/>
        <pt x="49" y="0" on="1"/>
        <pt x="49" y="932" on="1"/>
        <pt x="815" y="932" on="1"/>
      </contour>
    </TTGlyph>
    <TTGlyph name="afii10099" xMin="-113" yMin="-395" xMax="883" yMax="1305">
      <contour>
        <pt x="-113" y="1118" on="1"/>
        <pt x="49" y="1118" on="1"/>
        <pt x="49" y="1305" on="1"/>
        <pt x="186" y="1305" on="1"/>
        <pt x="186" y="1118" on="1"/>
        <pt x="373" y="1118" on="1"/>
        <pt x="373" y="1001" on="1"/>
        <pt x="186" y="1001" on="1"/>
        <pt x="186" y="698" on="1"/>
        <pt x="285" y="954" on="0"/>
        <pt x="539" y="954" on="1"/>
        <pt x="883" y="954" on="0"/>
        <pt x="883" y="575" on="1"/>
        <pt x="883" y="-166" on="1"/>
        <pt x="883" y="-221" on="0"/>
        <pt x="846" y="-307" on="0"/>
        <pt x="784" y="-365" on="0"/>
        <pt x="702" y="-395" on="0"/>
        <pt x="657" y="-395" on="1"/>
        <pt x="573" y="-395" on="0"/>
        <pt x="535" y="-371" on="1"/>
        <pt x="561" y="-262" on="1"/>
        <pt x="575" y="-270" on="0"/>
        <pt x="610" y="-279" on="0"/>
        <pt x="639" y="-279" on="1"/>
        <pt x="745" y="-279" on="0"/>
        <pt x="745" y="-166" on="1"/>
        <pt x="745" y="575" on="1"/>
        <pt x="745" y="700" on="0"/>
        <pt x="637" y="838" on="0"/>
        <pt x="516" y="838" on="1"/>
        <pt x="440" y="838" on="0"/>
        <pt x="317" y="768" on="0"/>
        <pt x="231" y="651" on="0"/>
        <pt x="186" y="500" on="0"/>
        <pt x="186" y="418" on="1"/>
        <pt x="186" y="0" on="1"/>
        <pt x="49" y="0" on="1"/>
        <pt x="49" y="1001" on="1"/>
        <pt x="-113" y="1001" on="1"/>
      </contour>
    </TTGlyph>
    <TTGlyph name="afii10100" xMin="49" yMin="0" xMax="932" yMax="1364">
      <component glyphName="afii10068" x="0" y="0" flags="0x204"/>
      <component glyphName="acute" x="0" y="0" flags="0x4"/>
    </TTGlyph>
</ttFont>
